<svg viewBox="0 -46 512 512" xmlns="http://www.w3.org/2000/svg"><path d="m482 330v-315h-30v315l15 30zm0 0" fill="#53433f"/><path d="m60 330v-315h-30v315l15 30zm0 0" fill="#68544f"/><path d="m482 330v60l-226 30-226-30v-60zm0 0" fill="#fdbf00"/><path d="m256 330h226v60l-226 30zm0 0" fill="#ff9f00"/><path d="m106 15h30v240h-30zm0 0" fill="#c6e2e7"/><path d="m121 15h15v240h-15zm0 0" fill="#8ebac5"/><path d="m151 270c0 16.5-13.5 30-30 30s-30-13.5-30-30 13.5-30 30-30 30 13.5 30 30zm0 0" fill="#ffd400"/><path d="m151 270c0 16.5-13.5 30-30 30v-60c16.5 0 30 13.5 30 30zm0 0" fill="#fdbf00"/><path d="m166 15h30v240h-30zm0 0" fill="#c6e2e7"/><path d="m181 15h15v240h-15zm0 0" fill="#8ebac5"/><path d="m211 270c0 16.5-13.5 30-30 30s-30-13.5-30-30 13.5-30 30-30 30 13.5 30 30zm0 0" fill="#ffd400"/><path d="m211 270c0 16.5-13.5 30-30 30v-60c16.5 0 30 13.5 30 30zm0 0" fill="#fdbf00"/><path d="m226 15h30v240h-30zm0 0" fill="#c6e2e7"/><path d="m241 15h15v240h-15zm0 0" fill="#8ebac5"/><path d="m271 270c0 16.5-13.5 30-30 30s-30-13.5-30-30 13.5-30 30-30 30 13.5 30 30zm0 0" fill="#ffd400"/><path d="m271 270c0 16.5-13.5 30-30 30v-60c16.5 0 30 13.5 30 30zm0 0" fill="#fdbf00"/><path d="m286 15h30v240h-30zm0 0" fill="#c6e2e7"/><path d="m301 15h15v240h-15zm0 0" fill="#8ebac5"/><path d="m331 270c0 16.5-13.5 30-30 30s-30-13.5-30-30 13.5-30 30-30 30 13.5 30 30zm0 0" fill="#ffd400"/><path d="m331 270c0 16.5-13.5 30-30 30v-60c16.5 0 30 13.5 30 30zm0 0" fill="#fdbf00"/><path d="m462.625 246.371094-86.019531-224.066406 28.011719-10.75 86.015624 224.0625zm0 0" fill="#c6e2e7"/><path d="m476.628906 240.996094-86.015625-224.066406 14.003907-5.375 86.015624 224.0625zm0 0" fill="#8ebac5"/><path d="m510.015625 244.257812c5.914063 15.40625-1.851563 32.847657-17.253906 38.757813-15.40625 5.914063-32.847657-1.851563-38.757813-17.253906-5.914062-15.40625 1.851563-32.847657 17.253906-38.757813 15.402344-5.914062 32.847657 1.851563 38.757813 17.253906zm0 0" fill="#ffd400"/><path d="m510.015625 244.257812c5.914063 15.40625-1.851563 32.847657-17.253906 38.757813l-21.503907-56.011719c15.402344-5.914062 32.847657 1.851563 38.757813 17.253906zm0 0" fill="#fdbf00"/><path d="m0 390h512v30h-512zm0 0" fill="#68544f"/><path d="m256 390h256v30h-256zm0 0" fill="#53433f"/><path d="m0 0h512v30h-512zm0 0" fill="#725d57"/><path d="m256 0h256v30h-256zm0 0" fill="#68544f"/></svg>