<svg viewBox="0 -14 512 511" xmlns="http://www.w3.org/2000/svg"><path d="m509 210.867188-162 93.601562-72 41.398438-82.5-142.796876 154.5-89.101562 79.5-45.898438zm0 0" fill="#ffe470"/><path d="m509 210.867188-162 93.601562v-190.5l79.5-45.898438zm0 0" fill="#fdbf00"/><path d="m347 286.46875-347 197.402344h512v-291.902344zm0 0" fill="#a8d3d8"/><path d="m512 191.96875v291.902344h-165v-197.402344zm0 0" fill="#8ebac5"/><path d="m402.5 404.367188-55.5 55.800781-55.5-55.800781 21-21 19.5 19.203124v-158.699218h30v158.699218l19.5-19.203124zm0 0" fill="#725d57"/><path d="m289.550781 251.0625-15-25.988281-111.539062 64.398437 7.09375-26.488281-28.972657-7.761719-20.347656 75.953125 75.949219 20.34375 7.765625-28.972656-26.480469-7.09375zm0 0" fill="#f66"/><path d="m352.507812 180.105469-78.914062-137.410157 26.621094 7.125 7.761718-28.972656-75.964843-20.347656-20.347657 75.953125 28.972657 7.761719 7.0625-26.367188 78.792969 137.199219zm0 0" fill="#00ddc1"/><path d="m402.5 404.367188-55.5 55.800781v-216.296875h15v158.699218l19.5-19.203124zm0 0" fill="#68544f"/></svg>