<svg viewBox="-61 0 512 512" xmlns="http://www.w3.org/2000/svg"><path d="m180 91h30v45h-30zm0 0" fill="#a8d3d8"/><path d="m195 91h15v45h-15zm0 0" fill="#8ebac5"/><path d="m195 0c-41.398438 0-75 34.601562-75 76s33.601562 75 75 75 75-33.601562 75-75-33.601562-76-75-76zm0 121c-24.902344 0-45-20.101562-45-45 0-24.902344 20.097656-45 45-45s45 20.097656 45 45c0 24.898438-20.097656 45-45 45zm0 0" fill="#725d57"/><path d="m270 76c0 41.398438-33.601562 75-75 75v-30c24.902344 0 45-20.101562 45-45 0-24.902344-20.097656-45-45-45v-31c41.398438 0 75 34.601562 75 76zm0 0" fill="#68544f"/><path d="m195 121c-107.402344 0-195 87.597656-195 195 0 107.398438 87.597656 196 195 196s195-88.601562 195-196c0-107.402344-87.597656-195-195-195zm0 0" fill="#a8d3d8"/><path d="m390 316c0 107.398438-87.597656 196-195 196v-391c107.402344 0 195 87.597656 195 195zm0 0" fill="#8ebac5"/><path d="m195 151c-90.902344 0-165 74.097656-165 165 0 90.898438 74.097656 165 165 165s165-74.101562 165-165c0-90.902344-74.097656-165-165-165zm0 0" fill="#deecf1"/><path d="m360 316c0 90.898438-74.097656 165-165 165v-330c90.902344 0 165 74.097656 165 165zm0 0" fill="#c6e2e7"/><g fill="#a8d3d8"><path d="m180 181h30v60h-30zm0 0"/><path d="m180 391h30v60h-30zm0 0"/><path d="m60 301h60v30h-60zm0 0"/></g><path d="m270 301h60v30h-60zm0 0" fill="#8ebac5"/><path d="m227.140625 283.859375-62.140625 2.140625-2.140625 62.140625 160.738281 96.457031zm0 0" fill="#00b2ad"/><path d="m195 181h15v60h-15zm0 0" fill="#8ebac5"/><path d="m195 391h15v60h-15zm0 0" fill="#8ebac5"/><path d="m66.402344 187.402344 96.457031 160.738281 64.28125-64.28125zm0 0" fill="#f66"/></svg>