<svg viewBox="0 0 512 512" xmlns="http://www.w3.org/2000/svg"><path d="m493.757812 154.601562c-17.097656-30-45.597656-52.601562-78.300781-62.5-17.996093-53.402343-70.097656-92.101562-129.496093-92.101562-10.203126 0-20.101563 1.199219-30 3.601562-23.101563 5.398438-44.703126 17.097657-62.402344 33.597657-55.199219-11.097657-115.699219 12.902343-145.398438 64.199219-17.101562 30-21.601562 66.402343-13.800781 99.699218-13.800781 15.300782-24.300781 33.601563-29.699219 54-18.601562 69.300782 19.796875 141.902344 91.800782 163.800782 17.996093 53.402343 70.097656 93.101562 129.5 93.101562 10.199218 0 20.398437-1.199219 30-3.601562 23.097656-5.398438 44.398437-17.097657 61.796874-33.300782 59.402344 12.003906 118.101563-16.898437 146-65.496094 17.101563-30 21.601563-65.402343 13.800782-98.703124 13.800781-15.296876 24.300781-33.597657 29.703125-54 9.296875-34.796876 4.5-71.097657-13.503907-102.296876zm0 0" fill="#ffd400"/><path d="m507.257812 256.898438c-5.398437 20.402343-15.898437 38.703124-29.699218 54 7.800781 33.300781 3.300781 68.703124-13.800782 98.703124-27.898437 48.597657-86.597656 77.5-146 65.496094-17.398437 16.203125-38.699218 27.902344-61.796874 33.300782v-504.796876c9.898437-2.402343 19.796874-3.601562 30-3.601562 59.398437 0 111.5 38.699219 129.5 92.101562 32.699218 9.898438 61.199218 32.5 78.296874 62.5 18.003907 31.199219 22.800782 67.5 13.5 102.296876zm0 0" fill="#fdbf00"/><path d="m478.160156 249.097656c7.5-26.996094 3.601563-55.199218-10.199218-79.496094-11.101563-18.902343-26.703126-34.300781-45.902344-43.300781 4.5 69.597657-43.398438 125.199219-102.5 140.5l-7.5-29.101562c120.976562-31.082031 98.601562-207.699219-26.097656-207.699219-10.5 0-20.402344 1.5-30 4.5-10.5 3-20.402344 7.800781-29.402344 14.101562 11.101562 5.398438 21 11.996094 29.402344 19.199219 40.496093 34.796875 54.597656 90.097657 41.097656 138.398438l-28.800782-8.097657c9.300782-33.003906 3-63.402343-12.296874-85.902343-38.402344-58.199219-137.601563-72.300781-182 4.199219-10.800782 18.902343-15.300782 40.898437-13.5 61.898437 2.398437-1.800781 4.5-3.597656 7.199218-5.097656 53.398438-30.902344 122.601563-21.601563 165.800782 22.199219l-21.300782 21c-56.699218-57.898438-157.402344-32.097657-178.402344 46.5-13.496093 49.800781 11.402344 100.5 56.101563 121.800781-4.5-69.601563 43.398437-124.199219 102.5-139.5l7.5 29.101562c-120.976563 31.082031-98.601563 207.699219 26.101563 207.699219 10.496093 0 20.398437-1.5 30-4.5 10.199218-3 20.097656-7.800781 29.097656-13.800781-10.800782-5.402344-20.398438-12-29.097656-19.5-39.601563-34.199219-54.902344-89.199219-41.101563-138.402344l28.800781 8.101563c-9.300781 33-3 62.402343 12.300782 84.902343 39.222656 59.445313 136.773437 73.71875 182-4.199219 10.796874-18.902343 15.296874-39.902343 13.5-60.902343-57.902344 38.699219-130.101563 26.699219-173-17.101563l21.300781-20.996094c56.996093 57.898438 157.699219 31.796876 178.398437-46.503906zm0 0" fill="#fdbf00"/><g fill="#ff9f00"><path d="m255.960938 444.199219c8.699218 7.5 18.296874 14.101562 29.097656 19.5-9 6-18.898438 10.800781-29.097656 13.800781zm0 0"/><path d="m299.761719 295.601562-21.300781 20.996094c42.898437 43.800782 115.097656 55.800782 173 17.101563 1.796874 21-2.703126 42-13.5 60.902343-45.226563 77.917969-142.777344 63.644532-182 4.199219v-286.601562c15.296874 22.5 21.597656 52.898437 12.296874 85.902343l28.800782 8.097657c13.5-48.300781-.601563-103.597657-41.097656-138.398438v-33.300781c9.597656-3 19.5-4.5 30-4.5 124.699218 0 147.074218 176.617188 26.097656 207.699219l7.5 29.101562c59.101562-15.300781 107-70.902343 102.5-140.503906 19.199218 9.003906 34.800781 24.402344 45.902344 43.300781 13.800781 24.300782 17.699218 52.5 10.199218 79.5-20.699218 78.300782-121.402344 104.402344-178.398437 46.503906zm0 0"/></g></svg>