<svg viewBox="0 -31 512 512" xmlns="http://www.w3.org/2000/svg"><path d="m125.699219 319.800781c-4.46875-4.285156 20.484375-37.988281 14.929687-40.972656-3.394531-1.824219-36.976562 26.621094-40.730468 25.371094-7.796876-2.699219-16.199219-4.199219-24.898438-4.199219-41.398438 0-75 33.601562-75 75s33.601562 75 75 75 75-33.601562 75-75c0-21.898438-9.300781-41.398438-24.300781-55.199219zm0 0" fill="#00ddc1"/><path d="m75 360h302v30h-302zm0 0" fill="#c6e2e7"/><path d="m256 360h121v30h-121zm0 0" fill="#a8d3d8"/><path d="m437 450c-41.351562 0-75-33.648438-75-75s33.648438-75 75-75 75 33.648438 75 75-33.648438 75-75 75zm0 0" fill="#00b2ad"/><path d="m424.140625 382.71875-150.136719-248.554688 25.722656-15.4375 150.132813 248.554688zm0 0" fill="#a8d3d8"/><path d="m256 0c-41.398438 0-75 33.601562-75 75s33.601562 75 75 75 75-33.601562 75-75-33.601562-75-75-75zm0 0" fill="#00ddc1"/><path d="m256 150v-150c41.398438 0 75 33.601562 75 75s-33.601562 75-75 75zm0 0" fill="#00b2ad"/><path d="m268.898438 82.800781-12.898438 21.597657-130.300781 215.402343c-7.199219-6.902343-15.898438-12.300781-25.800781-15.601562l143.203124-237zm0 0" fill="#c6e2e7"/><path d="m268.898438 82.800781-12.898438 21.597657v-29.398438zm0 0" fill="#a8d3d8"/></svg>