<svg viewBox="0 0 512.00113 512" xmlns="http://www.w3.org/2000/svg"><path d="m449.199219 13.300781-12 27.601563c-42.597657-18.300782-111.597657-.300782-181.199219 43.5-32.699219 20.097656-65.097656 45.898437-95.398438 76.199218-95.101562 95.101563-146.703124 214.199219-119.699218 276.597657l-27.601563 12.003906c-32.402343-75.601563 19.199219-203.101563 126-309.902344 37.5-37.5 77.398438-68.097656 116.699219-90.597656 72.898438-42 144-56.402344 193.199219-35.402344zm0 0" fill="#00eed0"/><path d="m372.699219 372.703125c-37.5 37.5-77.398438 68.097656-116.699219 90.597656-50.398438 29.101563-99.902344 45-142.199219 45-18.601562 0-35.699219-3-51-9.601562l12-27.597657c42.597657 18.300782 111.597657.300782 181.199219-43.5 32.699219-20.097656 65.097656-45.898437 95.398438-76.199218 95.101562-95.097656 146.703124-214.199219 119.703124-276.597656l27.597657-12.003907c32.398437 75.597657-19.199219 203.097657-126 309.902344zm0 0" fill="#00eed0"/><path d="m256 84.402344v-35.699219c72.898438-42 144-56.402344 193.199219-35.402344l-12 27.601563c-42.597657-18.300782-111.597657-.300782-181.199219 43.5zm0 0" fill="#00b2ad"/><path d="m372.699219 372.703125c-37.5 37.5-77.398438 68.097656-116.699219 90.597656v-35.699219c32.699219-20.101562 65.097656-45.898437 95.398438-76.199218 95.101562-95.101563 146.703124-214.199219 119.703124-276.601563l27.597657-12c32.398437 75.597657-19.199219 203.097657-126 309.902344zm0 0" fill="#00b2ad"/><path d="m256 151c-57.898438 0-105 47.101562-105 105 0 57.902344 47.101562 105 105 105s105-47.097656 105-105c0-57.898438-47.101562-105-105-105zm0 0" fill="#deecf1"/><path d="m256 361v-210c57.898438 0 105 47.101562 105 105 0 57.902344-47.101562 105-105 105zm0 0" fill="#a8d3d8"/><path d="m287.800781 287.800781c-8.699219 8.699219-20.402343 13.199219-31.800781 13.199219s-23.101562-4.5-31.800781-13.199219c-17.699219-17.402343-17.699219-46.199219 0-63.597656l21.300781 21.296875c-6 5.699219-6 15.300781 0 21 2.699219 3 6.601562 4.5 10.5 4.5s7.800781-1.5 10.5-4.5c6-5.699219 6-15.300781 0-21l21.300781-21.296875c17.699219 17.398437 17.699219 46.195313 0 63.597656zm0 0" fill="#c6e2e7"/><path d="m449.199219 498.699219c-15.300781 6.601562-32.398438 9.601562-51 9.601562-42.296875 0-91.800781-15.898437-142.199219-45-39.300781-22.5-79.199219-53.097656-116.699219-90.597656-106.800781-106.804687-158.398437-234.304687-126-309.902344l27.597657 12c-27 62.398438 24.601562 181.5 119.703124 276.601563 30.296876 30.300781 62.699219 56.097656 95.398438 76.199218 69.601562 43.800782 138.601562 61.796876 181.199219 43.5zm0 0" fill="#ff8f97"/><path d="m498.699219 449.203125-27.597657-12.003906c27-62.398438-24.601562-181.5-119.703124-276.597657-30.296876-30.300781-62.699219-56.101562-95.398438-76.199218-69.601562-43.800782-138.601562-61.800782-181.199219-43.5l-12-27.601563c49.199219-21 120.300781-6.597656 193.199219 35.402344 39.300781 22.5 79.199219 53.097656 116.699219 90.597656 106.800781 106.800781 158.398437 234.300781 126 309.902344zm0 0" fill="#ff8f97"/><path d="m287.800781 287.800781c-8.699219 8.699219-20.402343 13.199219-31.800781 13.199219v-30c3.898438 0 7.800781-1.5 10.5-4.5 6-5.699219 6-15.300781 0-21l21.300781-21.296875c17.699219 17.398437 17.699219 46.195313 0 63.597656zm0 0" fill="#8ebac5"/><path d="m437.199219 471.101562 12 27.597657c-15.300781 6.601562-32.398438 9.601562-51 9.601562-42.296875 0-91.800781-15.902343-142.199219-45v-35.703125c69.601562 43.804688 138.601562 61.800782 181.199219 43.503906zm0 0" fill="#f66"/><path d="m498.699219 449.203125-27.597657-12.003906c27-62.398438-24.601562-181.5-119.703124-276.597657-30.296876-30.300781-62.699219-56.101562-95.398438-76.199218v-35.699219c39.300781 22.5 79.199219 53.097656 116.699219 90.597656 106.800781 106.800781 158.398437 234.300781 126 309.902344zm0 0" fill="#f66"/><path d="m467.015625 89.957031c-11.511719 0-23.042969-4.378906-31.816406-13.140625-17.53125-17.5625-17.53125-46.113281-.015625-63.660156l.015625-.015625c17.5625-17.535156 46.113281-17.503906 63.648437 0 17.535156 17.5625 17.535156 46.113281.015625 63.660156-8.789062 8.761719-20.316406 13.15625-31.847656 13.15625zm0 0" fill="#68544f"/><path d="m44.96875 89.949219c-11.511719 0-23.042969-4.378907-31.816406-13.140625-17.535156-17.5625-17.535156-46.113282-.015625-63.660156 17.578125-17.503907 46.113281-17.550782 63.664062-.015626l.015625.015626c17.519532 17.546874 17.519532 46.097656 0 63.648437-8.789062 8.757813-20.320312 13.152344-31.847656 13.152344zm0 0" fill="#725d57"/><path d="m467.015625 512c-11.515625 0-23.042969-4.378906-31.816406-13.140625-17.535157-17.5625-17.535157-46.109375-.015625-63.660156 17.5625-17.519531 46.097656-17.535157 63.664062-.015625l.011719.015625c17.523437 17.550781 17.523437 46.097656 0 63.648437-8.789063 8.757813-20.316406 13.152344-31.84375 13.152344zm0 0" fill="#68544f"/><path d="m44.96875 512c-11.511719 0-23.042969-4.378906-31.816406-13.140625-17.535156-17.5625-17.535156-46.109375-.015625-63.660156l.015625-.015625c17.550781-17.519532 46.101562-17.519532 63.648437 0 17.535157 17.5625 17.535157 46.113281.015625 63.664062-8.789062 8.757813-20.320312 13.152344-31.847656 13.152344zm0 0" fill="#725d57"/></svg>