<svg viewBox="-121 0 512 512" xmlns="http://www.w3.org/2000/svg"><path d="m60 0v91h150v-91zm0 0" fill="#deecf1"/><path d="m135 0h75v91h-75zm0 0" fill="#a8d3d8"/><path d="m0 61v451h270v-451zm0 0" fill="#00ddc1"/><path d="m135 61h135v451h-135zm0 0" fill="#00b2ad"/><path d="m180 151v30h-30v30h-30v-30h-30v-30h30v-30h30v30zm0 0" fill="#68544f"/><path d="m90 421h90v30h-90zm0 0" fill="#68544f"/><path d="m60 241h150v60h-150zm0 0" fill="#deecf1"/><path d="m60 331h150v60h-150zm0 0" fill="#deecf1"/><path d="m150 211h-15v-90h15v30h30v30h-30zm0 0" fill="#53433f"/><path d="m135 421h45v30h-45zm0 0" fill="#53433f"/><g fill="#c6e2e7"><path d="m135 241h75v60h-75zm0 0"/><path d="m135 331h75v60h-75zm0 0"/></g></svg>