<svg viewBox="0 0 512 512" xmlns="http://www.w3.org/2000/svg"><path d="m497 195v242h-60c0 33-27 60-60 60s-60-27-60-60c0 33-28 60-61 60s-61-27-61-60c0 33-27 60-60 60s-60-27-60-60h-60v-242zm0 0" fill="#deecf1"/><path d="m497 195v242h-60c0 33-27 60-60 60s-60-27-60-60c0 33-28 60-61 60v-302zm0 0" fill="#c6e2e7"/><path d="m512 90c0 49.800781-40.199219 90-90 90s-90-40.199219-90-90 40.199219-90 90-90 90 40.199219 90 90zm0 0" fill="#f66"/><path d="m512 90c0 49.800781-40.199219 90-90 90v-180c49.800781 0 90 40.199219 90 90zm0 0" fill="#ff3e48"/><path d="m512 180v272h-61.5c-6.902344 34.199219-37.199219 60-73.5 60-24.601562 0-46.199219-12-60-30.601562-13.800781 18.601562-36.398438 30.601562-61 30.601562s-47.199219-12-61-30.601562c-13.800781 18.601562-35.398438 30.601562-60 30.601562-36.300781 0-66.597656-25.800781-73.5-60h-61.5v-272h225v30h-195v212h60v15c0 24.898438 20.097656 45 45 45s45-20.101562 45-45h30c0 24.898438 21.097656 45 46 45s46-20.101562 46-45h30c0 24.898438 20.097656 45 45 45s45-20.101562 45-45v-15h60v-212h-195v-30zm0 0" fill="#a8d3d8"/><path d="m160.605469 289.394531-55.605469-55.605469-55.605469 55.605469 21.210938 22.210938 19.394531-20.394531v100.789062h30v-100.789062l19.394531 20.394531zm0 0" fill="#725d57"/><path d="m441.394531 320.394531-19.394531 20.394531v-100.789062h-30v100.789062l-19.394531-20.394531-21.210938 22.210938 55.605469 55.605469 55.605469-55.605469zm0 0" fill="#68544f"/><path d="m180 90c0 49.800781-40.199219 90-90 90s-90-40.199219-90-90 40.199219-90 90-90 90 40.199219 90 90zm0 0" fill="#00ddc1"/><path d="m180 90c0 49.800781-40.199219 90-90 90v-180c49.800781 0 90 40.199219 90 90zm0 0" fill="#00b2ad"/><path d="m135 75v30h-30v30h-30v-30h-30v-30h30v-30h30v30zm0 0" fill="#deecf1"/><path d="m135 75v30h-30v30h-15v-90h15v30zm0 0" fill="#c6e2e7"/><path d="m377 75h90v30h-90zm0 0" fill="#deecf1"/><path d="m422 75h45v30h-45zm0 0" fill="#c6e2e7"/><path d="m512 180v272h-61.5c-6.902344 34.199219-37.199219 60-73.5 60-24.601562 0-46.199219-12-60-30.601562-13.800781 18.601562-36.398438 30.601562-61 30.601562v-30c24.902344 0 46-20.101562 46-45h30c0 24.898438 20.097656 45 45 45s45-20.101562 45-45v-15h60v-212h-195v-30zm0 0" fill="#8ebac5"/><path d="m210 150h30v90h-30zm0 0" fill="#a8d3d8"/><path d="m272 120h30v150h-30zm0 0" fill="#8ebac5"/></svg>