<svg viewBox="-35 1 511 511.99998" xmlns="http://www.w3.org/2000/svg"><g fill="#c6e2e7"><path d="m135.40625 288.160156 15.070312 26.109375-124.003906 71.574219-15.070312-26.109375zm0 0"/><path d="m76.824219 403.898438-76.324219-20.445313 20.457031-76.308594 29.113281 7.800781-12.660156 47.199219 47.214844 12.640625zm0 0"/><path d="m26.488281 126.144531 123.992188 71.589844-15.074219 26.105469-123.992188-71.589844zm0 0"/><path d="m20.957031 204.859375-20.457031-76.3125 76.324219-20.441406 7.800781 29.109375-47.214844 12.644531 12.660156 47.199219zm0 0"/><path d="m206.191406 21.402344h30.140625v144.175781h-30.140625zm0 0"/><path d="m277.023438 56.0625-21.097657 21.097656-34.664062-34.359375-34.664063 34.359375-21.097656-21.097656 55.761719-56.0625zm0 0"/></g><path d="m255.925781 77.160156-34.664062-34.359375v-42.800781l55.761719 56.0625zm0 0" fill="#a8d3d8"/><path d="m221.261719 21.402344h15.070312v144.175781h-15.070312zm0 0" fill="#a8d3d8"/><path d="m416.023438 126.164062 15.070312 26.109376-124.003906 71.574218-15.070313-26.113281zm0 0" fill="#a8d3d8"/><path d="m421.566406 204.859375-29.113281-7.800781 12.660156-47.199219-47.214843-12.644531 7.800781-29.109375 76.324219 20.441406zm0 0" fill="#a8d3d8"/><path d="m307.09375 288.152344 123.992188 71.589844-15.074219 26.105468-123.988281-71.589844zm0 0" fill="#a8d3d8"/><path d="m365.699219 403.898438-7.800781-29.113282 47.214843-12.640625-12.660156-47.199219 29.113281-7.800781 20.457032 76.308594zm0 0" fill="#a8d3d8"/><path d="m206.191406 346.425781h30.140625v144.175781h-30.140625zm0 0" fill="#c6e2e7"/><path d="m277.023438 455.9375-55.761719 56.0625-55.761719-56.0625 21.097656-21.097656 34.664063 34.359375 34.664062-34.359375zm0 0" fill="#c6e2e7"/><path d="m255.925781 434.839844 21.097657 21.097656-55.761719 56.0625v-42.800781zm0 0" fill="#a8d3d8"/><path d="m221.261719 346.425781h15.070312v144.175781h-15.070312zm0 0" fill="#a8d3d8"/><path d="m221.261719 150.507812c-58.171875 0-105.496094 47.320313-105.496094 105.492188 0 58.175781 47.324219 105.496094 105.496094 105.496094s105.496093-47.320313 105.496093-105.496094c0-58.171875-47.324218-105.492188-105.496093-105.492188zm0 0" fill="#00ddc1"/><path d="m326.757812 256c0 58.175781-47.324218 105.496094-105.496093 105.496094v-210.988282c58.171875 0 105.496093 47.320313 105.496093 105.492188zm0 0" fill="#00b2ad"/><path d="m266.472656 240.929688v30.140624h-30.140625v30.144532h-30.140625v-30.144532h-30.140625v-30.140624h30.140625v-30.140626h30.140625v30.140626zm0 0" fill="#deecf1"/><path d="m266.472656 240.929688v30.140624h-30.140625v30.144532h-15.070312v-90.425782h15.070312v30.140626zm0 0" fill="#c6e2e7"/></svg>