<svg viewBox="0 -61 512 512" xmlns="http://www.w3.org/2000/svg"><path d="m512 150.902344v239.097656h-512v-239.699219l256 60.300781zm0 0" fill="#a8d3d8"/><path d="m512 150.902344v239.097656h-256v-179.398438zm0 0" fill="#8ebac5"/><path d="m346 90c0 49.800781-40.199219 90-90 90s-90-40.199219-90-90 40.199219-90 90-90 90 40.199219 90 90zm0 0" fill="#ffd400"/><path d="m256 180v-180c49.800781 0 90 40.199219 90 90s-40.199219 90-90 90zm0 0" fill="#fdbf00"/><path d="m512 72v78.902344c-71.699219 56.996094-161.800781 88.796875-256 88.796875-95.398438 0-184.601562-32.097657-256-89.398438v-78.300781l24.902344 21.601562c65.699218 57.597657 148.898437 86.097657 231.097656 86.097657s165.398438-28.5 231.097656-86.097657zm0 0" fill="#deecf1"/><path d="m512 72v78.902344c-71.699219 56.996094-161.800781 88.796875-256 88.796875v-60c82.199219 0 165.398438-28.5 231.097656-86.097657zm0 0" fill="#c6e2e7"/></svg>