<svg viewBox="0 -31 512 512" xmlns="http://www.w3.org/2000/svg"><path d="m122 273.933594-25.007812-16.675782 30.292968-45.4375 25.007813 16.671876zm46.96875-70.449219-25.011719-16.675781 33.347657-50.019532 25.007812 16.675782zm50.019531-75.03125-25.011719-16.671875 33.347657-50.019531 25.007812 16.671875zm0 0" fill="#c6e2e7"/><path d="m391 273.933594-30.292969-45.441406 25.011719-16.671876 30.292969 45.4375zm-46.964844-70.449219-33.347656-50.019531 25.011719-16.675782 33.34375 50.019532zm-50.019531-75.03125-33.347656-50.019531 25.011719-16.671875 33.34375 50.019531zm0 0" fill="#a8d3d8"/><path d="m241.472656 75.148438h30.058594v240.46875h-30.058594zm0 0" fill="#a8d3d8"/><path d="m256.5 75.148438h15.03125v240.46875h-15.03125zm0 0" fill="#8ebac5"/><path d="m256.5 0c-24.949219 0-45.085938 20.136719-45.085938 45.089844 0 24.949218 20.136719 45.085937 45.085938 45.085937s45.089844-20.136719 45.089844-45.085937c0-24.953125-20.140625-45.089844-45.089844-45.089844zm0 0" fill="#725d57"/><path d="m76.148438 390.761719c-41.433594 0-76.148438-33.710938-76.148438-75.144531 0-41.433594 34.714844-75.148438 76.148438-75.148438 41.433593 0 75.148437 33.714844 75.148437 75.148438 0 41.433593-33.714844 75.144531-75.148437 75.144531zm0 0" fill="#ffd400"/><path d="m256.5 300.585938c-41.480469 0-75.144531 33.667968-75.144531 75.148437s33.664062 75.144531 75.144531 75.144531 75.148438-33.664062 75.148438-75.144531-33.667969-75.148437-75.148438-75.148437zm0 0" fill="#ffd400"/><path d="m436.851562 390.761719c-41.433593 0-75.144531-33.710938-75.144531-75.144531 0-41.433594 33.710938-75.148438 75.144531-75.148438 41.4375 0 75.148438 33.714844 75.148438 75.148438 0 41.433593-33.710938 75.144531-75.148438 75.144531zm0 0" fill="#fdbf00"/><path d="m256.5 90.175781v-90.175781c24.949219 0 45.089844 20.136719 45.089844 45.089844 0 24.949218-20.140625 45.085937-45.089844 45.085937zm0 0" fill="#68544f"/><path d="m331.648438 375.734375c0 41.480469-33.667969 75.144531-75.148438 75.144531v-150.292968c41.480469 0 75.148438 33.667968 75.148438 75.148437zm0 0" fill="#fdbf00"/></svg>