<?xml version="1.0" encoding="iso-8859-1"?>
<!-- Generator: Adobe Illustrator 19.0.0, SVG Export Plug-In . SVG Version: 6.00 Build 0)  -->
<svg version="1.1" id="Layer_1" xmlns="http://www.w3.org/2000/svg" xmlns:xlink="http://www.w3.org/1999/xlink" x="0px" y="0px"
	 viewBox="0 0 512 512" style="enable-background:new 0 0 512 512;" xml:space="preserve">
<path style="fill:#F9D026;" d="M298.986,461.98c40.791,0,49.672-20.567,50.204-36.016c0.56-16.26-5.02-37.183-5.02-37.183
	l-15.599,15.388l-29.584-35.666l-29.584,35.666l-15.599-15.388c0,0-5.581,20.922-5.02,37.183
	C249.314,441.414,258.196,461.98,298.986,461.98"/>
<path style="fill:#E7C224;" d="M298.986,461.98c40.791,0,49.672-20.567,50.204-36.016c0.56-16.26-5.02-37.183-5.02-37.183
	l-15.599,15.388l-29.584-35.666C298.986,368.503,298.986,430.396,298.986,461.98"/>
<rect x="243.032" y="449.12" style="fill:#61A2EF;" width="111.13" height="36.92"/>
<rect x="299.132" y="449.12" style="fill:#528ACF;" width="55.04" height="36.92"/>
<g>
	<polygon style="fill:#444242;" points="446.696,512 76.207,512 76.207,0 109.598,0 109.598,478.609 446.696,478.609 	"/>
	<rect x="92.902" y="96.46" style="fill:#444242;" width="205.7" height="22.261"/>
</g>
<circle style="fill:#F9D026;" cx="92.902" cy="107.59" r="27.598"/>
<circle style="fill:#FFAC12;" cx="92.902" cy="107.59" r="14.897"/>
<path style="fill:#EDEEF0;" d="M255.259,36.02v80.2l-44.788,119.786c-4.228,11.309-2.645,23.982,4.237,33.902
	c6.882,9.919,18.198,15.842,30.271,15.842h108.13c12.08,0,23.4-5.927,30.28-15.855s8.457-22.608,4.216-33.919l-44.9-119.759V36.02
	H255.259z"/>
<path style="fill:#DCDEE2;" d="M387.605,235.976l-44.899-119.759V36.02h-43.578v249.731h53.98c12.08,0,23.4-5.927,30.28-15.855
	C390.27,259.967,391.846,247.287,387.605,235.976z"/>
<path style="fill:#9ED04D;" d="M347.212,174.628h-96.403l-25.082,67.083c-2.394,6.403-1.533,13.298,2.364,18.915
	s10.052,8.839,16.889,8.839h108.13c6.84,0,12.998-3.224,16.894-8.846c3.897-5.622,4.754-12.52,2.353-18.924L347.212,174.628z"/>
<path style="fill:#86B143;" d="M372.356,241.694l-25.144-67.066H299.13v94.837h53.98c6.84,0,12.998-3.224,16.894-8.846
	C373.9,254.997,374.756,248.098,372.356,241.694z"/>
<rect x="255.552" y="49.899" style="fill:#D8D9DD;" width="87.15" height="17.696"/>
<rect x="299.132" y="49.899" style="fill:#B7B9C0;" width="43.576" height="17.696"/>
<rect x="241.852" y="27.882" style="fill:#EDEEF0;" width="114.24" height="27.14"/>
<rect x="299.132" y="27.882" style="fill:#DCDEE2;" width="56.977" height="27.14"/>
<g>
	<circle style="fill:#FFFFFF;" cx="282.772" cy="207.03" r="13.342"/>
	<circle style="fill:#FFFFFF;" cx="259.092" cy="246.65" r="9.434"/>
	<circle style="fill:#FFFFFF;" cx="336.982" cy="231.48" r="9.434"/>
</g>
<circle style="fill:#EDEEF0;" cx="336.982" cy="231.48" r="9.434"/>
<rect x="236.582" y="86.83" style="fill:#444242;" width="124.05" height="40.727"/>
<rect x="298.982" y="86.83" style="fill:#3A3839;" width="61.64" height="40.727"/>
<g>
</g>
<g>
</g>
<g>
</g>
<g>
</g>
<g>
</g>
<g>
</g>
<g>
</g>
<g>
</g>
<g>
</g>
<g>
</g>
<g>
</g>
<g>
</g>
<g>
</g>
<g>
</g>
<g>
</g>
</svg>
