<?xml version="1.0" encoding="iso-8859-1"?>
<!-- Generator: Adobe Illustrator 19.0.0, SVG Export Plug-In . SVG Version: 6.00 Build 0)  -->
<svg version="1.1" id="Layer_1" xmlns="http://www.w3.org/2000/svg" xmlns:xlink="http://www.w3.org/1999/xlink" x="0px" y="0px"
	 viewBox="0 0 512 512" style="enable-background:new 0 0 512 512;" xml:space="preserve">
<g>
	<circle style="fill:#444242;" cx="274.59" cy="19.12" r="15"/>
	<circle style="fill:#444242;" cx="330.71" cy="75.23" r="15"/>
	<circle style="fill:#444242;" cx="334.82" cy="15" r="15"/>
</g>
<g>
	<circle style="fill:#3A3839;" cx="436.76" cy="181.29" r="15"/>
	<circle style="fill:#3A3839;" cx="492.88" cy="237.41" r="15"/>
	<circle style="fill:#3A3839;" cx="497" cy="177.18" r="15"/>
</g>
<path style="fill:#F74D37;" d="M367.484,236.385L220.308,383.562c-25.369,25.369-66.501,25.369-91.87,0s-25.369-66.5,0-91.87
	l147.175-147.175L201.12,70.023L49.883,221.26c-66.511,66.511-66.511,174.346,0,240.856s174.346,66.511,240.856,0l151.238-151.238
	L367.484,236.385z"/>
<path style="fill:#C43D2C;" d="M49.882,462.117l78.556-78.556c25.369,25.369,66.501,25.369,91.87,0l147.175-147.175l74.493,74.493
	L290.74,462.116C224.228,528.628,116.394,528.628,49.882,462.117z"/>
<rect x="326.1" y="261.725" transform="matrix(0.7071 0.7071 -0.7071 0.7071 322.7843 -180.081)" style="fill:#B7B9C0;" width="105.339" height="75.739"/>
<rect x="159.739" y="95.352" transform="matrix(-0.7071 -0.7071 0.7071 -0.7071 268.4016 377.6198)" style="fill:#D8D9DD;" width="105.339" height="75.739"/>
<g>
</g>
<g>
</g>
<g>
</g>
<g>
</g>
<g>
</g>
<g>
</g>
<g>
</g>
<g>
</g>
<g>
</g>
<g>
</g>
<g>
</g>
<g>
</g>
<g>
</g>
<g>
</g>
<g>
</g>
</svg>
