<?xml version="1.0" encoding="iso-8859-1"?>
<!-- Generator: Adobe Illustrator 19.0.0, SVG Export Plug-In . SVG Version: 6.00 Build 0)  -->
<svg version="1.1" id="Layer_1" xmlns="http://www.w3.org/2000/svg" xmlns:xlink="http://www.w3.org/1999/xlink" x="0px" y="0px"
	 viewBox="0 0 512 512" style="enable-background:new 0 0 512 512;" xml:space="preserve">
<path style="fill:#444242;" d="M443.458,290.286l63.937-36.914l-16.696-28.917l-63.937,36.914l-68.686-39.656v-79.311l63.937-36.914
	l-16.696-28.917l-63.937,36.914l-68.686-39.657V0h-33.391v73.829l-68.686,39.656L106.68,76.57l-16.696,28.917l63.938,36.915v79.311
	l-68.685,39.656l-63.938-36.915L4.604,253.371l63.938,36.914v79.311L4.604,406.512l16.695,28.917l63.803-36.837l68.819,39.595V512
	h33.391v-73.829l68.551-39.579l68.819,39.595V512h33.391v-73.829l68.686-39.656l63.937,36.915l16.696-28.917l-63.937-36.915v-79.312
	H443.458z M187.313,142.402l68.686-39.656l68.686,39.656v79.311l-68.7,39.664l-68.671-39.51L187.313,142.402L187.313,142.402z
	 M170.603,409.262l-68.671-39.51v-79.466l68.551-39.578l68.821,39.595v79.294L170.603,409.262z M410.066,369.598l-68.7,39.664
	l-68.671-39.511v-79.465l68.686-39.656l63.937,36.914l0,0l4.748,2.741v79.311h0V369.598z"/>
<g>
</g>
<g>
</g>
<g>
</g>
<g>
</g>
<g>
</g>
<g>
</g>
<g>
</g>
<g>
</g>
<g>
</g>
<g>
</g>
<g>
</g>
<g>
</g>
<g>
</g>
<g>
</g>
<g>
</g>
</svg>
