<?xml version="1.0" encoding="iso-8859-1"?>
<!-- Generator: Adobe Illustrator 19.0.0, SVG Export Plug-In . SVG Version: 6.00 Build 0)  -->
<svg version="1.1" id="Layer_1" xmlns="http://www.w3.org/2000/svg" xmlns:xlink="http://www.w3.org/1999/xlink" x="0px" y="0px"
	 viewBox="0 0 512 512" style="enable-background:new 0 0 512 512;" xml:space="preserve">
<path style="fill:#EDEEF0;" d="M199.749,16.696h-33.391v157.441c-25.651,14.662-47.384,35.415-63.262,60.509
	c-18.259,28.859-27.911,62.241-27.911,96.54C75.185,430.887,156.298,512,256,512s180.815-81.113,180.815-180.815
	c0-34.298-9.651-67.682-27.911-96.54c-15.878-25.094-37.611-45.846-63.262-60.509V16.696h-33.391H199.749z"/>
<path style="fill:#DCDEE2;" d="M408.904,234.645c-15.878-25.094-37.611-45.846-63.262-60.509V16.696h-33.391H256V512
	c99.702,0,180.815-81.113,180.815-180.815C436.815,296.887,427.164,263.504,408.904,234.645z"/>
<path style="fill:#F74D37;" d="M114.044,291.368c-3.602,12.871-5.467,26.252-5.467,39.817c0,81.29,66.134,147.424,147.424,147.424
	s147.424-66.134,147.424-147.424c0-13.565-1.865-26.946-5.467-39.817L114.044,291.368L114.044,291.368z"/>
<path style="fill:#B03727;" d="M397.956,291.368H256v187.241c81.29,0,147.424-66.134,147.424-147.424
	C403.424,317.621,401.558,304.24,397.956,291.368z"/>
<rect x="166.69" y="26.15" style="fill:#D8D9DD;" width="178.96" height="35.14"/>
<rect x="256.17" y="26.15" style="fill:#B7B9C0;" width="89.48" height="35.14"/>
<rect x="142.46" style="fill:#EDEEF0;" width="226.83" height="36.33"/>
<rect x="256.17" style="fill:#DCDEE2;" width="113.13" height="36.33"/>
<g>
	<circle style="fill:#FFFFFF;" cx="256.17" cy="336.71" r="26.489"/>
	<circle style="fill:#FFFFFF;" cx="176.69" cy="385.51" r="18.731"/>
</g>
<g>
	<circle style="fill:#EDEEF0;" cx="331.33" cy="415.63" r="18.731"/>
	<path style="fill:#EDEEF0;" d="M282.657,336.703c0,14.63-11.859,26.489-26.489,26.489c0-15.125,0-26.489,0-52.98
		C270.797,310.213,282.657,322.074,282.657,336.703z"/>
</g>
<g>
</g>
<g>
</g>
<g>
</g>
<g>
</g>
<g>
</g>
<g>
</g>
<g>
</g>
<g>
</g>
<g>
</g>
<g>
</g>
<g>
</g>
<g>
</g>
<g>
</g>
<g>
</g>
<g>
</g>
</svg>
