<?xml version="1.0" encoding="iso-8859-1"?>
<!-- Generator: Adobe Illustrator 19.0.0, SVG Export Plug-In . SVG Version: 6.00 Build 0)  -->
<svg version="1.1" id="Layer_1" xmlns="http://www.w3.org/2000/svg" xmlns:xlink="http://www.w3.org/1999/xlink" x="0px" y="0px"
	 viewBox="0 0 512 512" style="enable-background:new 0 0 512 512;" xml:space="preserve">
<path style="fill:#444242;" d="M29.371,274.699L4.02,252.967c1.169-1.365,117.188-136.687,141.325-163.988
	c13.576-15.357,34.424-21.235,51.877-14.627c17.489,6.621,27.93,24.189,27.93,46.992h-33.391c0-4.015-0.62-13.589-6.362-15.763
	c-3.782-1.435-10.163,0.002-15.036,5.514C146.391,138.209,30.539,273.338,29.371,274.699z"/>
<path style="fill:#3A3839;" d="M482.629,274.699c-1.168-1.362-117.02-136.491-140.99-163.603
	c-4.874-5.514-11.256-6.949-15.037-5.515c-5.742,2.174-6.362,11.748-6.362,15.763h-33.391c0-22.802,10.44-40.37,27.93-46.992
	c17.454-6.606,38.302-0.729,51.878,14.628c24.137,27.3,140.156,162.622,141.324,163.987L482.629,274.699z"/>
<path style="fill:#BCE8F7;" d="M375.652,440.329c-39.007,0-67.604-8.412-87.426-25.716c-17.496-15.275-24.04-33.949-28.818-47.584
	c-1.016-2.899-2.259-6.449-3.408-9.146c-1.149,2.697-2.392,6.245-3.409,9.146c-4.777,13.635-11.322,32.308-28.818,47.584
	c-19.822,17.304-48.419,25.716-87.426,25.716c-35.482,0-69.377-11.745-95.442-33.071C14.91,385.989,0,357.495,0,329.086v-81.948h512
	v81.948c0,28.409-14.91,56.903-40.905,78.172C445.029,428.584,411.134,440.329,375.652,440.329z"/>
<path style="fill:#AFD9E8;" d="M256,247.138v110.746c1.149,2.697,2.392,6.245,3.408,9.146c4.777,13.635,11.322,32.308,28.818,47.584
	c19.822,17.304,48.418,25.716,87.426,25.716c35.482,0,69.377-11.745,95.442-33.071C497.09,385.989,512,357.495,512,329.086v-81.948
	H256z"/>
<rect y="247.14" style="fill:#61A2EF;" width="512" height="31.12"/>
<rect x="256" y="247.14" style="fill:#528ACF;" width="256" height="31.12"/>
<path style="fill:#FFFFFF;" d="M420.423,402.819l-10.479-31.704c18.916-6.252,34.804-18.773,42.498-33.494l29.591,15.469
	C470.241,375.649,447.784,393.775,420.423,402.819z"/>
<g>
</g>
<g>
</g>
<g>
</g>
<g>
</g>
<g>
</g>
<g>
</g>
<g>
</g>
<g>
</g>
<g>
</g>
<g>
</g>
<g>
</g>
<g>
</g>
<g>
</g>
<g>
</g>
<g>
</g>
</svg>
