<?xml version="1.0" encoding="iso-8859-1"?>
<!-- Generator: Adobe Illustrator 19.0.0, SVG Export Plug-In . SVG Version: 6.00 Build 0)  -->
<svg version="1.1" id="Layer_1" xmlns="http://www.w3.org/2000/svg" xmlns:xlink="http://www.w3.org/1999/xlink" x="0px" y="0px"
	 viewBox="0 0 512 512" style="enable-background:new 0 0 512 512;" xml:space="preserve">
<path style="fill:#EDEEF0;" d="M370.111,512H141.89l-3.795-2.119c-55.868-31.209-89.222-82.655-89.222-137.619
	c0-34.404,12.77-67.423,36.93-95.487c20.586-23.913,48.269-42.909,80.584-55.392V34.266h179.226v187.118
	c32.315,12.483,59.999,31.478,80.584,55.392c24.16,28.064,36.93,61.083,36.93,95.487c0,54.963-33.353,106.409-89.222,137.619
	L370.111,512z"/>
<path style="fill:#DCDEE2;" d="M370.111,512h-114.11V34.266h89.612v187.118c32.315,12.483,59.999,31.478,80.584,55.392
	c24.16,28.064,36.93,61.083,36.93,95.487c0,54.963-33.353,106.409-89.222,137.619L370.111,512z"/>
<rect x="166.69" y="24.968" style="fill:#D8D9DD;" width="178.96" height="35.14"/>
<rect x="256.17" y="24.968" style="fill:#B7B9C0;" width="89.48" height="35.14"/>
<rect x="142.46" style="fill:#EDEEF0;" width="226.83" height="31.722"/>
<rect x="256.17" style="fill:#DCDEE2;" width="113.13" height="31.722"/>
<path style="fill:#BCE8F7;" d="M113.095,296.201c-19.669,21.901-30.829,48.257-30.829,76.061c0,41.519,25.491,81.005,68.423,106.347
	h210.623c42.932-25.342,68.423-64.828,68.423-106.347c0-27.804-11.16-54.16-30.829-76.061L113.095,296.201L113.095,296.201z"/>
<path style="fill:#AFD9E8;" d="M255.878,478.609h105.435c42.932-25.342,68.423-64.828,68.423-106.347
	c0-27.804-11.16-54.16-30.829-76.061H255.878V478.609z"/>
<g>
	<circle style="fill:#FFFFFF;" cx="223.69" cy="355.71" r="26.489"/>
	<circle style="fill:#FFFFFF;" cx="176.69" cy="434.35" r="18.731"/>
	<circle style="fill:#FFFFFF;" cx="331.33" cy="404.25" r="18.731"/>
</g>
<circle style="fill:#EDEEF0;" cx="331.33" cy="404.25" r="18.731"/>
<g>
	<rect x="166.69" y="59.721" style="fill:#444242;" width="74.7" height="34.838"/>
	<rect x="166.69" y="119.5" style="fill:#444242;" width="74.7" height="34.838"/>
</g>
<g>
</g>
<g>
</g>
<g>
</g>
<g>
</g>
<g>
</g>
<g>
</g>
<g>
</g>
<g>
</g>
<g>
</g>
<g>
</g>
<g>
</g>
<g>
</g>
<g>
</g>
<g>
</g>
<g>
</g>
</svg>
