<?xml version="1.0" encoding="iso-8859-1"?>
<!-- Generator: Adobe Illustrator 19.0.0, SVG Export Plug-In . SVG Version: 6.00 Build 0)  -->
<svg version="1.1" id="Layer_1" xmlns="http://www.w3.org/2000/svg" xmlns:xlink="http://www.w3.org/1999/xlink" x="0px" y="0px"
	 viewBox="0 0 512.001 512.001" style="enable-background:new 0 0 512.001 512.001;" xml:space="preserve">
<path style="fill:#B7B9C0;" d="M380.943,180.181l72.113-72.113c14.172,11.64,35.139,10.843,48.378-2.396
	c14.09-14.09,14.09-36.934,0-51.024c-8.193-8.193-19.347-11.612-30.018-10.277c1.336-10.671-2.084-21.825-10.277-30.018
	c-14.09-14.09-36.934-14.09-51.024,0c-13.239,13.239-14.035,34.205-2.396,48.378l-71.396,71.396L380.943,180.181z"/>
<path style="fill:#D8D9DD;" d="M131.057,180.181L58.945,108.07c-14.172,11.64-35.139,10.843-48.378-2.396
	c-14.09-14.09-14.09-36.934,0-51.024c8.193-8.193,19.346-11.612,30.018-10.277c-1.336-10.671,2.084-21.825,10.277-30.018
	c14.09-14.09,36.934-14.09,51.024,0c13.239,13.239,14.035,34.205,2.396,48.378l71.396,71.396L131.057,180.181z"/>
<path style="fill:#B7B9C0;" d="M353.196,394.747l54.522,54.522c-11.64,14.172-10.843,35.139,2.396,48.378
	c14.09,14.09,36.934,14.09,51.024,0c8.193-8.193,11.612-19.347,10.277-30.018c10.671,1.336,21.825-2.084,30.018-10.277
	c14.09-14.09,14.09-36.934,0-51.024c-13.239-13.239-34.205-14.035-48.378-2.396l-71.531-71.531L353.196,394.747z"/>
<path style="fill:#D8D9DD;" d="M130.477,332.401l-71.531,71.531c-14.172-11.639-35.139-10.843-48.378,2.396
	c-14.09,14.09-14.09,36.934,0,51.024c8.193,8.193,19.346,11.612,30.018,10.277c-1.336,10.671,2.084,21.825,10.277,30.018
	c14.09,14.09,36.934,14.09,51.024,0c13.239-13.239,14.035-34.205,2.396-48.378l54.522-54.522L130.477,332.401z"/>
<path style="fill:#EDEEF0;" d="M255.999,492.078c-75.967,0-110.789-52.99-112.235-55.245l-2.822-4.404v-59.516
	c-31.229-30.753-48.987-72.91-48.987-116.913c0-90.454,73.59-164.044,164.044-164.044c90.455,0,164.044,73.59,164.044,164.044
	c0,44.003-17.759,86.158-48.988,116.913v59.516l-2.822,4.404C366.789,439.089,331.967,492.078,255.999,492.078z"/>
<path style="fill:#DCDEE2;" d="M255.999,91.957v400.121c75.967,0,110.789-52.99,112.234-55.246l2.823-4.404v-59.516
	c31.23-30.755,48.988-72.91,48.988-116.913C420.044,165.547,346.454,91.957,255.999,91.957z"/>
<circle style="fill:#444242;" cx="201.249" cy="243.18" r="30.1"/>
<circle style="fill:#3A3839;" cx="310.75" cy="243.18" r="30.1"/>
<polygon style="fill:#444242;" points="255.999,291.521 276.934,327.779 235.065,327.779 "/>
<g>
	<polygon style="fill:#3A3839;" points="276.934,327.779 255.999,291.521 255.999,327.779 	"/>
	<path style="fill:#3A3839;" d="M270.539,491.406c13.343-1.24,25.232-4.128,35.721-7.967v-55.033h-35.721V491.406z"/>
</g>
<path style="fill:#444242;" d="M205.742,483.44c10.489,3.838,22.378,6.726,35.721,7.966v-63h-35.721V483.44z"/>
<g>
</g>
<g>
</g>
<g>
</g>
<g>
</g>
<g>
</g>
<g>
</g>
<g>
</g>
<g>
</g>
<g>
</g>
<g>
</g>
<g>
</g>
<g>
</g>
<g>
</g>
<g>
</g>
<g>
</g>
</svg>
