<?xml version="1.0" encoding="iso-8859-1"?>
<!-- Generator: Adobe Illustrator 19.0.0, SVG Export Plug-In . SVG Version: 6.00 Build 0)  -->
<svg version="1.1" id="Layer_1" xmlns="http://www.w3.org/2000/svg" xmlns:xlink="http://www.w3.org/1999/xlink" x="0px" y="0px"
	 viewBox="0 0 512 512" style="enable-background:new 0 0 512 512;" xml:space="preserve">
<path style="fill:#AC2C62;" d="M237.451,312.844c-30.808,0-55.874-25.065-55.874-55.874s25.065-55.874,55.874-55.874
	s55.874,25.065,55.874,55.874C293.325,287.78,268.259,312.844,237.451,312.844z"/>
<path style="fill:#444242;" d="M402.639,161.976c-0.114-0.06-0.229-0.118-0.343-0.178c0.004-0.128,0.013-0.258,0.018-0.386
	c1.859-52.735-14.525-91.831-46.137-110.08c-31.61-18.252-73.659-12.893-118.4,15.084c-0.109,0.068-0.217,0.14-0.325,0.208
	c-0.109-0.068-0.217-0.14-0.325-0.208c-44.742-27.979-86.793-33.337-118.4-15.084c-31.61,18.249-47.996,57.345-46.137,110.08
	c0.004,0.128,0.013,0.258,0.018,0.386c-0.114,0.06-0.23,0.118-0.343,0.178C25.663,186.733,0,220.471,0,256.971
	s25.663,70.238,72.264,94.995c0.114,0.06,0.229,0.118,0.343,0.178c-0.004,0.128-0.013,0.258-0.018,0.386
	c-1.859,52.735,14.525,91.831,46.137,110.08c12.318,7.113,26.223,10.64,41.254,10.64c23.539,0,49.842-8.651,77.146-25.725
	c0.109-0.068,0.217-0.14,0.325-0.208c0.109,0.068,0.217,0.14,0.325,0.208c27.307,17.077,53.605,25.725,77.146,25.725
	c15.028,0,28.937-3.528,41.254-10.64c31.61-18.249,47.996-57.345,46.137-110.08c-0.004-0.128-0.013-0.258-0.018-0.386
	c0.113-0.06,0.23-0.118,0.343-0.178c46.6-24.757,72.264-58.494,72.264-94.995S449.239,186.733,402.639,161.976z M331.565,311.307
	c-10.338,17.906-21.747,34.656-33.914,49.93c-19.311,2.9-39.523,4.405-60.199,4.405s-40.887-1.506-60.199-4.405
	c-12.168-15.274-23.576-32.024-33.914-49.93s-19.139-36.162-26.283-54.337c7.145-18.174,15.945-36.431,26.283-54.337
	c10.338-17.906,21.748-34.657,33.914-49.931c19.311-2.899,39.523-4.405,60.198-4.405s40.887,1.506,60.198,4.405
	c12.168,15.274,23.578,32.026,33.914,49.931c10.338,17.906,19.139,36.162,26.283,54.337
	C350.703,275.145,341.901,293.402,331.565,311.307z M368.804,289.213c4.797,16.809,8.046,33.316,9.653,49.168
	c-14.532,6.534-30.451,11.973-47.407,16.224c7.115-10.181,13.902-20.826,20.285-31.883
	C357.718,311.666,363.544,300.465,368.804,289.213z M237.451,419.791c-12.925-9.318-25.594-20.385-37.754-32.945
	c12.375,1.071,24.988,1.626,37.754,1.626c12.767,0,25.38-0.555,37.754-1.626C263.047,399.406,250.376,410.473,237.451,419.791z
	 M143.853,354.605c-16.956-4.251-32.876-9.69-47.407-16.224c1.607-15.852,4.857-32.358,9.653-49.168
	c5.259,11.252,11.085,22.453,17.468,33.508C129.951,333.777,136.738,344.424,143.853,354.605z M106.1,224.729
	c-4.797-16.809-8.046-33.316-9.653-49.168c14.532-6.534,30.452-11.973,47.408-16.224c-7.116,10.181-13.902,20.827-20.285,31.883
	C117.185,202.276,111.359,213.477,106.1,224.729z M237.451,94.151c12.925,9.317,25.594,20.385,37.753,32.944
	c-12.375-1.071-24.988-1.626-37.753-1.626s-25.38,0.555-37.753,1.626C211.857,114.537,224.526,103.469,237.451,94.151z
	 M351.334,191.22c-6.383-11.056-13.171-21.702-20.285-31.883c16.956,4.251,32.876,9.69,47.408,16.224
	c-1.607,15.852-4.857,32.358-9.653,49.168C363.544,213.477,357.718,202.276,351.334,191.22z M314.807,63.525
	c11.09,0,21.179,2.51,29.956,7.578c22.203,12.819,34.415,41.085,34.845,80.116c-21.177-8.685-44.721-15.3-69.756-19.649
	c-16.283-19.507-33.784-36.589-51.892-50.587C278.527,69.407,297.84,63.525,314.807,63.525z M130.14,71.102
	c8.779-5.069,18.864-7.578,29.956-7.578c16.964,0,36.281,5.885,56.848,17.459c-18.108,13.997-35.61,31.08-51.892,50.586
	c-25.035,4.348-48.58,10.963-69.756,19.649C95.725,112.187,107.937,83.921,130.14,71.102z M22.829,256.971
	c0-25.638,18.373-50.347,51.959-70.234c3.068,22.68,9.11,46.378,17.862,70.234c-8.752,23.855-14.795,47.553-17.862,70.234
	C41.202,307.318,22.829,282.61,22.829,256.971z M130.14,442.84c-22.203-12.819-34.415-41.085-34.845-80.116
	c21.176,8.684,44.72,15.3,69.754,19.647c16.284,19.507,33.785,36.589,51.893,50.587C182.93,452.102,152.343,455.659,130.14,442.84z
	 M344.763,442.84c-22.204,12.82-52.789,9.261-86.804-9.882c18.109-13.998,35.611-31.08,51.893-50.587
	c25.035-4.348,48.579-10.963,69.754-19.647C379.178,401.755,366.965,430.021,344.763,442.84z M400.115,327.205
	c-3.068-22.682-9.11-46.378-17.862-70.234c8.752-23.855,14.795-47.554,17.862-70.234c33.587,19.887,51.959,44.596,51.959,70.234
	S433.701,307.318,400.115,327.205z"/>
<path style="fill:#922555;" d="M293.325,256.971c0-30.808-25.066-55.874-55.874-55.874l0,0v111.746l0,0
	C268.259,312.844,293.325,287.779,293.325,256.971z"/>
<path style="fill:#3A3839;" d="M402.639,161.976c-0.114-0.06-0.229-0.118-0.343-0.178c0.004-0.128,0.013-0.258,0.018-0.386
	c1.859-52.735-14.525-91.831-46.137-110.08c-31.61-18.252-73.659-12.893-118.4,15.084c-0.109,0.068-0.217,0.14-0.325,0.208l0,0
	v27.527l0,0c12.925,9.317,25.594,20.385,37.753,32.944c-12.375-1.071-24.988-1.626-37.753-1.626l0,0v22.829l0,0
	c20.675,0,40.887,1.506,60.198,4.405c12.168,15.274,23.578,32.026,33.914,49.931c10.338,17.906,19.139,36.162,26.283,54.337
	c-7.145,18.174-15.945,36.431-26.283,54.337c-10.338,17.906-21.747,34.656-33.914,49.93c-19.311,2.899-39.523,4.405-60.199,4.405
	l0,0v22.829l0,0c12.767,0,25.38-0.555,37.754-1.626c-12.159,12.56-24.83,23.627-37.754,32.945l0,0v27.526l0,0
	c0.109,0.068,0.217,0.14,0.325,0.208c27.307,17.077,53.605,25.725,77.146,25.725c15.028,0,28.937-3.528,41.254-10.64
	c31.61-18.249,47.996-57.345,46.137-110.08c-0.004-0.128-0.013-0.258-0.018-0.386c0.114-0.06,0.23-0.118,0.343-0.178
	c46.6-24.757,72.264-58.494,72.264-94.995S449.239,186.733,402.639,161.976z M351.334,191.22
	c-6.383-11.056-13.171-21.702-20.285-31.883c16.956,4.251,32.876,9.69,47.408,16.224c-1.607,15.852-4.857,32.358-9.653,49.168
	C363.544,213.477,357.718,202.276,351.334,191.22z M351.334,322.721c6.383-11.056,12.209-22.256,17.468-33.508
	c4.797,16.809,8.046,33.316,9.653,49.168c-14.532,6.534-30.451,11.973-47.407,16.224
	C338.165,344.424,344.952,333.777,351.334,322.721z M344.763,442.84c-22.204,12.82-52.789,9.261-86.804-9.882
	c18.109-13.998,35.611-31.08,51.893-50.587c25.035-4.348,48.579-10.963,69.754-19.647
	C379.178,401.755,366.965,430.021,344.763,442.84z M309.851,131.57c-16.283-19.507-33.784-36.589-51.892-50.587
	c20.568-11.576,39.883-17.458,56.848-17.458c11.09,0,21.179,2.51,29.956,7.578c22.203,12.819,34.415,41.085,34.845,80.116
	C358.431,142.533,334.886,135.917,309.851,131.57z M400.115,327.205c-3.068-22.682-9.11-46.378-17.862-70.234
	c8.752-23.855,14.795-47.554,17.862-70.234c33.587,19.887,51.959,44.596,51.959,70.234S433.701,307.318,400.115,327.205z"/>
<circle style="fill:#528ACF;" cx="463.49" cy="256.965" r="48.51"/>
<circle style="fill:#9ED04D;" cx="125.56" cy="450.785" r="48.51"/>
<circle style="fill:#F9D026;" cx="124.44" cy="61.215" r="48.51"/>
<g>
</g>
<g>
</g>
<g>
</g>
<g>
</g>
<g>
</g>
<g>
</g>
<g>
</g>
<g>
</g>
<g>
</g>
<g>
</g>
<g>
</g>
<g>
</g>
<g>
</g>
<g>
</g>
<g>
</g>
</svg>
