<?xml version="1.0" encoding="iso-8859-1"?>
<!-- Generator: Adobe Illustrator 19.0.0, SVG Export Plug-In . SVG Version: 6.00 Build 0)  -->
<svg version="1.1" id="Layer_1" xmlns="http://www.w3.org/2000/svg" xmlns:xlink="http://www.w3.org/1999/xlink" x="0px" y="0px"
	 viewBox="0 0 512 512" style="enable-background:new 0 0 512 512;" xml:space="preserve">
<polygon style="fill:#6DDEB4;" points="512,418.332 512,485.489 478.242,485.489 455.736,395.827 "/>
<polygon style="fill:#9EF3D3;" points="33.758,395.827 0,418.332 0,485.489 478.242,485.489 478.242,395.827 "/>
<rect y="26.511" style="fill:#4FC297;" width="512" height="391.821"/>
<path style="fill:#9EF3D3;" d="M75.731,298.151v88.897c24.553,0,44.448-19.906,44.448-44.448
	C120.179,318.045,100.284,298.151,75.731,298.151z"/>
<path style="fill:#C7FFEA;" d="M75.731,298.151c-24.553,0-44.448,19.895-44.448,44.448c0,24.542,19.895,44.448,44.448,44.448
	c12.119,0,21.943-19.906,21.943-44.448C97.674,318.045,87.85,298.151,75.731,298.151z"/>
<path style="fill:#9EF3D3;" d="M75.731,177.971v88.897c24.553,0,44.448-19.906,44.448-44.448
	C120.179,197.866,100.284,177.971,75.731,177.971z"/>
<path style="fill:#C7FFEA;" d="M75.731,177.971c-24.553,0-44.448,19.895-44.448,44.448c0,24.542,19.895,44.448,44.448,44.448
	c12.119,0,21.943-19.906,21.943-44.448C97.674,197.866,87.85,177.971,75.731,177.971z"/>
<path style="fill:#9EF3D3;" d="M75.731,57.794v88.897c24.553,0,44.448-19.906,44.448-44.448
	C120.179,77.689,100.284,57.794,75.731,57.794z"/>
<path style="fill:#C7FFEA;" d="M75.731,57.794c-24.553,0-44.448,19.895-44.448,44.448c0,24.541,19.894,44.447,44.446,44.448
	c12.121,0,21.945-19.906,21.945-44.448C97.674,77.689,87.85,57.794,75.731,57.794z"/>
<path style="fill:#9EF3D3;" d="M195.91,298.151v88.897c24.554,0,44.448-19.906,44.448-44.448
	C240.359,318.045,220.464,298.151,195.91,298.151z"/>
<path style="fill:#C7FFEA;" d="M195.91,298.151c-24.553,0-44.448,19.895-44.448,44.448c0,24.542,19.895,44.448,44.448,44.448
	c12.119,0,21.943-19.906,21.943-44.448C217.853,318.045,208.03,298.151,195.91,298.151z"/>
<path style="fill:#9EF3D3;" d="M195.91,177.971v88.897c24.554,0,44.448-19.906,44.448-44.448
	C240.359,197.866,220.464,177.971,195.91,177.971z"/>
<path style="fill:#C7FFEA;" d="M195.91,177.971c-24.553,0-44.448,19.895-44.448,44.448c0,24.542,19.895,44.448,44.448,44.448
	c12.119,0,21.943-19.906,21.943-44.448C217.853,197.866,208.03,177.971,195.91,177.971z"/>
<path style="fill:#9EF3D3;" d="M195.91,57.794v88.897c24.554,0,44.448-19.906,44.448-44.448
	C240.359,77.689,220.464,57.794,195.91,57.794z"/>
<path style="fill:#C7FFEA;" d="M195.91,57.794c-24.553,0-44.448,19.895-44.448,44.448c0,24.541,19.894,44.447,44.446,44.448
	c12.121,0,21.945-19.906,21.945-44.448C217.853,77.689,208.03,57.794,195.91,57.794z"/>
<path style="fill:#9EF3D3;" d="M316.09,298.151v88.897c24.553,0,44.448-19.906,44.448-44.448
	C360.538,318.045,340.643,298.151,316.09,298.151z"/>
<path style="fill:#C7FFEA;" d="M316.09,298.151c-24.554,0-44.448,19.895-44.448,44.448c0,24.542,19.895,44.448,44.448,44.448
	c12.119,0,21.943-19.906,21.943-44.448C338.033,318.045,328.209,298.151,316.09,298.151z"/>
<path style="fill:#9EF3D3;" d="M316.09,177.971v88.897c24.553,0,44.448-19.906,44.448-44.448
	C360.538,197.866,340.643,177.971,316.09,177.971z"/>
<path style="fill:#C7FFEA;" d="M316.09,177.971c-24.554,0-44.448,19.895-44.448,44.448c0,24.542,19.895,44.448,44.448,44.448
	c12.119,0,21.943-19.906,21.943-44.448C338.033,197.866,328.209,177.971,316.09,177.971z"/>
<path style="fill:#9EF3D3;" d="M316.09,57.794v88.897c24.553,0,44.448-19.906,44.448-44.448
	C360.538,77.689,340.643,57.794,316.09,57.794z"/>
<path style="fill:#C7FFEA;" d="M316.09,57.794c-24.554,0-44.448,19.895-44.448,44.448c0,24.541,19.894,44.447,44.446,44.448
	c12.121,0,21.945-19.906,21.945-44.448C338.033,77.689,328.209,57.794,316.09,57.794z"/>
<path style="fill:#9EF3D3;" d="M436.269,298.151v88.897c24.553,0,44.448-19.906,44.448-44.448
	C480.717,318.045,460.823,298.151,436.269,298.151z"/>
<path style="fill:#C7FFEA;" d="M436.269,298.151c-24.553,0-44.448,19.895-44.448,44.448c0,24.542,19.895,44.448,44.448,44.448
	c12.119,0,21.943-19.906,21.943-44.448C458.212,318.045,448.388,298.151,436.269,298.151z"/>
<path style="fill:#9EF3D3;" d="M436.269,177.971v88.897c24.553,0,44.448-19.906,44.448-44.448
	C480.717,197.866,460.823,177.971,436.269,177.971z"/>
<path style="fill:#C7FFEA;" d="M436.269,177.971c-24.553,0-44.448,19.895-44.448,44.448c0,24.542,19.895,44.448,44.448,44.448
	c12.119,0,21.943-19.906,21.943-44.448C458.212,197.866,448.388,177.971,436.269,177.971z"/>
<path style="fill:#9EF3D3;" d="M436.269,57.794v88.897c24.553,0,44.448-19.906,44.448-44.448
	C480.717,77.689,460.823,57.794,436.269,57.794z"/>
<path style="fill:#C7FFEA;" d="M436.269,57.794c-24.553,0-44.448,19.895-44.448,44.448c0,24.541,19.894,44.447,44.446,44.448
	c12.121,0,21.945-19.906,21.945-44.448C458.212,77.689,448.388,57.794,436.269,57.794z"/>
<g>
</g>
<g>
</g>
<g>
</g>
<g>
</g>
<g>
</g>
<g>
</g>
<g>
</g>
<g>
</g>
<g>
</g>
<g>
</g>
<g>
</g>
<g>
</g>
<g>
</g>
<g>
</g>
<g>
</g>
</svg>
