<?xml version="1.0" encoding="iso-8859-1"?>
<!-- Generator: Adobe Illustrator 19.0.0, SVG Export Plug-In . SVG Version: 6.00 Build 0)  -->
<svg version="1.1" id="Layer_1" xmlns="http://www.w3.org/2000/svg" xmlns:xlink="http://www.w3.org/1999/xlink" x="0px" y="0px"
	 viewBox="0 0 511.999 511.999" style="enable-background:new 0 0 511.999 511.999;" xml:space="preserve">
<path style="fill:#A3DDE9;" d="M510.963,225.901c-3.113,17.669-12.929,33.069-27.627,43.362l-70.205,49.155
	c-15.556,10.899-37.077,7.099-47.976-8.458l-20.961-29.948l25.94-18.162l20.969,29.941c0.844,1.217,2.657,1.538,3.867,0.687
	l70.205-49.155c7.771-5.442,12.951-13.578,14.601-22.916c1.643-9.346-0.448-18.767-5.882-26.53
	c-11.234-16.042-33.412-19.946-49.446-8.719L250.58,306.893l3.432-27.663l49.68-48.186l102.587-71.833
	c30.344-21.237,72.31-13.847,93.562,16.497C510.119,190.407,514.075,208.233,510.963,225.901z"/>
<path style="fill:#82C8DB;" d="M303.691,231.044l-112.447,78.738l-20.058,43.751c11.592-3.097,28.388-10.921,38.219-17.811
	l41.175-28.828L303.691,231.044z"/>
<path style="fill:#A3DDE9;" d="M74.305,379.397l96.881-25.864l20.058-43.751c-6.905,4.83-20.095,10.973-28.232,13.152
	l-96.881,25.864c-14.922,3.979-29.904,18.02-34.86,32.651L0.837,471.361c-1.866,5.524-0.612,11.869,3.792,16.273
	c4.27,4.27,10.376,5.583,15.773,3.964l10.585-10.585l30.284-89.404C62.846,386.944,69.541,380.666,74.305,379.397z"/>
<path style="fill:#419EBE;" d="M163.199,445.871l25.865-96.884c2.18-8.136,8.323-21.327,13.153-28.232l150.569-215.034
	c21.237-30.344,13.847-72.31-16.497-93.562c-14.697-10.28-32.523-14.236-50.192-11.122s-33.069,12.929-43.362,27.627L193.58,98.868
	c-10.899,15.556-7.098,37.077,8.458,47.976l29.948,20.961l18.162-25.94l-29.941-20.969c-1.217-0.843-1.538-2.657-0.687-3.867
	l49.155-70.205c5.442-7.771,13.578-12.951,22.916-14.601c9.346-1.643,18.767,0.448,26.53,5.882
	c16.042,11.234,19.946,33.412,8.719,49.446L176.276,302.593c-6.89,9.831-14.713,26.627-17.811,38.219L132.6,437.696
	c-1.269,4.762-7.547,11.458-12.212,13.033l-89.404,30.284l-10.585,10.585c-1.619,5.397-0.306,11.504,3.964,15.773
	c4.404,4.404,10.749,5.658,16.273,3.792l89.912-30.434C145.179,475.774,159.22,460.793,163.199,445.871z"/>
<g>
</g>
<g>
</g>
<g>
</g>
<g>
</g>
<g>
</g>
<g>
</g>
<g>
</g>
<g>
</g>
<g>
</g>
<g>
</g>
<g>
</g>
<g>
</g>
<g>
</g>
<g>
</g>
<g>
</g>
</svg>
