<?xml version="1.0" encoding="iso-8859-1"?>
<!-- Generator: Adobe Illustrator 19.0.0, SVG Export Plug-In . SVG Version: 6.00 Build 0)  -->
<svg version="1.1" id="Layer_1" xmlns="http://www.w3.org/2000/svg" xmlns:xlink="http://www.w3.org/1999/xlink" x="0px" y="0px"
	 viewBox="0 0 512 512" style="enable-background:new 0 0 512 512;" xml:space="preserve">
<path style="fill:#EA5A20;" d="M500.465,11.535L391.2,144.67l15.913,15.913c0,0,77.97-77.97,93.352-93.352
	C515.845,51.852,515.845,26.916,500.465,11.535z"/>
<path style="fill:#F77A20;" d="M500.465,11.535c-15.38-15.38-40.317-15.38-55.698,0c-15.38,15.38-93.352,93.352-93.352,93.352
	l39.784,39.784c0,0,77.97-77.97,93.352-93.352C499.932,35.939,507.056,18.127,500.465,11.535z"/>
<path style="fill:#9EF3D3;" d="M371.308,124.779L0,512l113.032-90.703c11.652,3.556,24.818,0.593,34.119-8.71l255.983-255.983
	L371.308,124.779z"/>
<path style="fill:#C7FFEA;" d="M355.394,108.866L99.411,364.848c-9.301,9.301-12.265,22.467-8.708,34.119L0,512l379.264-379.264
	L355.394,108.866z"/>
<path style="fill:#EA5A20;" d="M407.909,173.315l-69.224-69.224c-3.296-3.296-3.296-8.64,0-11.936c3.296-3.296,8.639-3.296,11.936,0
	l69.224,69.224c3.296,3.296,3.296,8.64,0,11.936C416.549,176.611,411.205,176.611,407.909,173.315z"/>
<path style="fill:#FFFFFF;" d="M118.074,393.926c-3.296-3.296-3.296-8.64,0-11.936l98.322-98.322c3.296-3.296,8.639-3.296,11.936,0
	c3.297,3.296,3.296,8.64,0,11.936l-98.322,98.322C126.712,397.222,121.369,397.222,118.074,393.926z"/>
<g>
</g>
<g>
</g>
<g>
</g>
<g>
</g>
<g>
</g>
<g>
</g>
<g>
</g>
<g>
</g>
<g>
</g>
<g>
</g>
<g>
</g>
<g>
</g>
<g>
</g>
<g>
</g>
<g>
</g>
</svg>
