<?xml version="1.0" encoding="iso-8859-1"?>
<!-- Generator: Adobe Illustrator 19.0.0, SVG Export Plug-In . SVG Version: 6.00 Build 0)  -->
<svg version="1.1" id="Layer_1" xmlns="http://www.w3.org/2000/svg" xmlns:xlink="http://www.w3.org/1999/xlink" x="0px" y="0px"
	 viewBox="0 0 512 512" style="enable-background:new 0 0 512 512;" xml:space="preserve">
<polygon style="fill:#4FC297;" points="234.309,301.565 38.559,472.218 86.301,488.131 237.674,336.758 "/>
<path style="fill:#6DDEB4;" d="M502.489,9.513c-16.455-16.455-48.562-11.02-71.724,12.142
	c-17.179,17.18-24.595,39.284-20.561,56.272L210.438,277.694l-35.193-3.366L23.872,425.701l15.914,47.742l22.645,6.731
	l159.33-159.33l12.548-19.279l199.767-199.768c16.988,4.034,39.092-3.381,56.272-20.561
	C513.509,58.074,518.944,25.968,502.489,9.513z"/>
<path style="fill:#4FC297;" d="M430.558,81.444c-8.445-8.445-5.535-30.176,12.143-47.853c17.678-17.678,39.407-20.588,47.854-12.143
	s5.535,30.176-12.143,47.853C460.733,86.98,439.004,89.89,430.558,81.444z"/>
<polygon style="fill:#6DDEB4;" points="23.871,425.701 0,449.571 46.516,496.088 66.409,492.109 70.388,472.218 "/>
<rect x="49.526" y="480.853" transform="matrix(-0.7071 0.7071 -0.7071 -0.7071 461.332 793.1216)" style="fill:#2AA175;" width="33.758" height="22.505"/>
<g>
</g>
<g>
</g>
<g>
</g>
<g>
</g>
<g>
</g>
<g>
</g>
<g>
</g>
<g>
</g>
<g>
</g>
<g>
</g>
<g>
</g>
<g>
</g>
<g>
</g>
<g>
</g>
<g>
</g>
</svg>
