<?xml version="1.0" encoding="iso-8859-1"?>
<!-- Generator: Adobe Illustrator 19.0.0, SVG Export Plug-In . SVG Version: 6.00 Build 0)  -->
<svg version="1.1" id="Layer_1" xmlns="http://www.w3.org/2000/svg" xmlns:xlink="http://www.w3.org/1999/xlink" x="0px" y="0px"
	 viewBox="0 0 512 512" style="enable-background:new 0 0 512 512;" xml:space="preserve">
<rect x="256" y="8.303" style="fill:#82C8DB;" width="49.816" height="189.778"/>
<polygon style="fill:#A3DDE9;" points="96.483,32.876 30.004,60.413 112.074,258.549 166.809,202.658 "/>
<g>
	<polygon style="fill:#82C8DB;" points="415.517,32.876 345.233,202.694 399.927,258.545 481.996,60.413 	"/>
	<path style="fill:#82C8DB;" d="M256,157.751V512c97.824,0,177.124-79.301,177.124-177.124S353.824,157.751,256,157.751z"/>
</g>
<path style="fill:#A3DDE9;" d="M256,157.751c-97.824,0-177.124,79.301-177.124,177.124S158.176,512,256,512
	c79.481,0,143.914-79.301,143.914-177.124S335.481,157.751,256,157.751z"/>
<path style="fill:#62B3CD;" d="M109.267,27.58c-1.755-4.235-6.611-6.247-10.848-4.493L21.712,54.861
	c-4.237,1.755-6.248,6.612-4.493,10.848s6.611,6.247,10.848,4.493l76.707-31.774C109.01,36.674,111.022,31.817,109.267,27.58z"/>
<rect x="206.184" y="8.303" style="fill:#A3DDE9;" width="66.422" height="189.778"/>
<path style="fill:#146A8A;" d="M381.249,290.595h-31.312L256,467.719c73.25,0,132.843-59.593,132.843-132.843
	C388.843,319.355,386.164,304.45,381.249,290.595z"/>
<path style="fill:#2089B0;" d="M349.937,290.595H130.751c-4.915,13.856-7.594,28.761-7.594,44.281
	c0,73.25,59.593,132.843,132.843,132.843c54.937,0,99.632-59.593,99.632-132.843C355.632,319.355,353.623,304.45,349.937,290.595z"
	/>
<g>
	<path style="fill:#62B3CD;" d="M308.584,16.605H203.416c-4.585,0-8.303-3.717-8.303-8.303S198.831,0,203.416,0h105.168
		c4.585,0,8.303,3.717,8.303,8.303S313.169,16.605,308.584,16.605z"/>
	<path style="fill:#62B3CD;" d="M402.733,27.58c1.755-4.235,6.611-6.247,10.848-4.493l76.707,31.774
		c4.237,1.755,6.248,6.612,4.493,10.848c-1.755,4.235-6.611,6.247-10.848,4.493l-76.707-31.774
		C402.99,36.674,400.978,31.817,402.733,27.58z"/>
</g>
<g>
</g>
<g>
</g>
<g>
</g>
<g>
</g>
<g>
</g>
<g>
</g>
<g>
</g>
<g>
</g>
<g>
</g>
<g>
</g>
<g>
</g>
<g>
</g>
<g>
</g>
<g>
</g>
<g>
</g>
</svg>
