<?xml version="1.0" encoding="iso-8859-1"?>
<!-- Generator: Adobe Illustrator 19.0.0, SVG Export Plug-In . SVG Version: 6.00 Build 0)  -->
<svg version="1.1" id="Layer_1" xmlns="http://www.w3.org/2000/svg" xmlns:xlink="http://www.w3.org/1999/xlink" x="0px" y="0px"
	 viewBox="0 0 512 512" style="enable-background:new 0 0 512 512;" xml:space="preserve">
<polygon style="fill:#9EF3D3;" points="247.325,232.862 58.866,421.321 0,500.071 5.965,506.036 271.185,256.722 "/>
<g>
	<polygon style="fill:#6DDEB4;" points="263.232,248.768 5.965,506.036 11.931,512 90.679,453.135 279.138,264.675 	"/>
	<path style="fill:#6DDEB4;" d="M493.881,105.607c24.159-24.159,24.159-63.329,0-87.488L247.325,264.675l15.907,15.907l59.651-3.977
		L493.881,105.607z"/>
</g>
<path style="fill:#9EF3D3;" d="M493.881,18.119c-24.159-24.159-63.329-24.159-87.488,0L235.395,189.118l-3.977,59.651l15.907,15.907
	l51.697-11.931l171-170.997C494.18,57.588,504.862,29.101,493.881,18.119z"/>
<g>
</g>
<g>
</g>
<g>
</g>
<g>
</g>
<g>
</g>
<g>
</g>
<g>
</g>
<g>
</g>
<g>
</g>
<g>
</g>
<g>
</g>
<g>
</g>
<g>
</g>
<g>
</g>
<g>
</g>
</svg>
