<?xml version="1.0" encoding="iso-8859-1"?>
<!-- Generator: Adobe Illustrator 19.0.0, SVG Export Plug-In . SVG Version: 6.00 Build 0)  -->
<svg version="1.1" id="Layer_1" xmlns="http://www.w3.org/2000/svg" xmlns:xlink="http://www.w3.org/1999/xlink" x="0px" y="0px"
	 viewBox="0 0 512 512" style="enable-background:new 0 0 512 512;" xml:space="preserve">
<polygon style="fill:#146A8A;" points="423.215,443.302 423.215,512 389.457,512 355.699,443.302 "/>
<rect x="88.784" y="443.302" style="fill:#2089B0;" width="300.673" height="68.698"/>
<polygon style="fill:#9EF3D3;" points="279.01,0 232.988,0 223.99,54.166 288.009,54.179 "/>
<path style="fill:#6DDEB4;" d="M255.999,40.87c-117.131,0-212.084,94.953-212.084,212.084h424.168
	C468.083,135.823,373.13,40.87,255.999,40.87z"/>
<path style="fill:#9EF3D3;" d="M258.081,57.76l159.361,195.19h33.758C451.201,146.016,364.757,58.874,258.081,57.76z"/>
<path style="fill:#C7FFEA;" d="M417.446,252.954c0-107.808-72.282-195.205-161.447-195.205c-0.702,0-1.399,0.021-2.099,0.032
	c-106.659,1.094-193.103,88.235-193.103,195.17h33.755L417.446,252.954z"/>
<path style="fill:#2089B0;" d="M434.727,253.322l-45.27,212.486h33.758c18.567,0,34.58-15.169,35.581-33.713l9.689-178.772
	L434.727,253.322L434.727,253.322z"/>
<path style="fill:#419EBE;" d="M43.514,253.322l9.689,178.772c1.001,18.545,17.014,33.713,35.581,33.713h300.673
	c18.567,0,34.58-15.169,35.581-33.713l9.689-178.772H43.514z"/>
<path style="fill:#146A8A;" d="M491.491,261.767H20.508c-4.661,0-8.44-3.778-8.44-8.44s3.779-8.44,8.44-8.44h470.985
	c4.662,0,8.44,3.778,8.44,8.44S496.153,261.767,491.491,261.767z"/>
<g>
</g>
<g>
</g>
<g>
</g>
<g>
</g>
<g>
</g>
<g>
</g>
<g>
</g>
<g>
</g>
<g>
</g>
<g>
</g>
<g>
</g>
<g>
</g>
<g>
</g>
<g>
</g>
<g>
</g>
</svg>
