<?xml version="1.0" encoding="iso-8859-1"?>
<!-- Generator: Adobe Illustrator 19.0.0, SVG Export Plug-In . SVG Version: 6.00 Build 0)  -->
<svg version="1.1" id="Layer_1" xmlns="http://www.w3.org/2000/svg" xmlns:xlink="http://www.w3.org/1999/xlink" x="0px" y="0px"
	 viewBox="0 0 512 512" style="enable-background:new 0 0 512 512;" xml:space="preserve">
<path style="fill:#82C8DB;" d="M300.281,8.303L256,512c42.798,0,77.492-34.694,77.492-77.492V8.303H300.281z"/>
<path style="fill:#A3DDE9;" d="M300.281,8.303H178.508v426.205C178.508,477.306,213.202,512,256,512
	c24.455,0,44.281-34.694,44.281-77.492l-13.284-87.178l13.284-87.178V8.303z"/>
<path style="fill:#146A8A;" d="M278.141,260.151L256,478.778c24.155-0.299,44.281-20.037,44.281-44.27V260.151H278.141z"/>
<g>
	<path style="fill:#2089B0;" d="M256,478.784c0.091,0,0.047,0,0-0.001C255.954,478.784,255.909,478.784,256,478.784z"/>
	<path style="fill:#2089B0;" d="M256,478.783c0.05-0.001,0.103-0.004,0-0.01C255.897,478.778,255.95,478.781,256,478.783z"/>
</g>
<path style="fill:#62B3CD;" d="M347.33,16.605H164.67c-4.585,0-8.303-3.717-8.303-8.303S160.085,0,164.67,0H347.33
	c4.586,0,8.303,3.717,8.303,8.303S351.916,16.605,347.33,16.605z"/>
<path style="fill:#2089B0;" d="M211.719,260.151v174.357c0,24.233,20.126,43.971,44.281,44.27
	c11.945-0.614,22.141-20.231,22.141-44.276V260.146L211.719,260.151z"/>
<g>
</g>
<g>
</g>
<g>
</g>
<g>
</g>
<g>
</g>
<g>
</g>
<g>
</g>
<g>
</g>
<g>
</g>
<g>
</g>
<g>
</g>
<g>
</g>
<g>
</g>
<g>
</g>
<g>
</g>
</svg>
