<?xml version="1.0" encoding="iso-8859-1"?>
<!-- Generator: Adobe Illustrator 19.0.0, SVG Export Plug-In . SVG Version: 6.00 Build 0)  -->
<svg version="1.1" id="Layer_1" xmlns="http://www.w3.org/2000/svg" xmlns:xlink="http://www.w3.org/1999/xlink" x="0px" y="0px"
	 viewBox="0 0 512.001 512.001" style="enable-background:new 0 0 512.001 512.001;" xml:space="preserve">
<path style="fill:#D93722;" d="M91.979,420.024c-7.067-7.067-18.527-7.067-25.594,0L5.302,481.107
	c-7.067,7.067-7.067,18.527,0,25.594s18.527,7.067,25.594,0l61.083-61.083C99.046,438.549,99.046,427.091,91.979,420.024z"/>
<path style="fill:#F79A30;" d="M441.347,117.36L122.064,436.644c-8.172,8.172-19.563,11.155-30.083,8.979l-14.756-14.756
	L416.04,92.052L441.347,117.36z"/>
<path style="fill:#F7B93F;" d="M423.868,99.879L85.053,438.694l-18.669-18.671c-2.184-10.529,0.806-21.911,8.979-30.083
	l37.506-37.506l13.7,1.956l-1.957-13.699l31.633-31.633l13.7,1.956l-1.957-13.699l31.634-31.634l13.699,1.957l-1.957-13.699
	l31.63-31.636l13.702,1.961l-1.957-13.699l31.634-31.634l13.699,1.957l-1.957-13.699l31.633-31.633l13.699,1.957l-1.957-13.699
	l53.158-53.158L423.868,99.879z"/>
<path style="fill:#D93722;" d="M384.728,127.273c-3.243-3.243-8.499-3.243-11.743,0L69.357,430.903L81.1,442.645l303.628-303.628
	C387.971,135.773,387.971,130.516,384.728,127.273z"/>
<g>
	<path style="fill:#941108;" d="M147.959,364.042l-23.352-23.352l-11.743,11.743l23.352,23.352c3.243,3.243,8.499,3.243,11.743,0
		C151.202,372.542,151.202,367.286,147.959,364.042z"/>
	<path style="fill:#941108;" d="M191.335,320.667l-23.352-23.352l-11.743,11.743l23.352,23.352c3.243,3.243,8.499,3.243,11.743,0
		C194.577,329.166,194.577,323.91,191.335,320.667z"/>
	<path style="fill:#941108;" d="M234.711,277.292l-23.352-23.352l-11.743,11.743l23.352,23.352c3.243,3.243,8.499,3.243,11.743,0
		C237.953,285.791,237.953,280.534,234.711,277.292z"/>
	<path style="fill:#941108;" d="M278.086,233.916l-23.353-23.353l-11.743,11.743l23.352,23.352c3.243,3.243,8.499,3.243,11.743,0
		C281.329,242.415,281.329,237.159,278.086,233.916z"/>
	<path style="fill:#941108;" d="M321.462,190.54l-23.352-23.352l-11.743,11.743l23.352,23.352c3.243,3.243,8.499,3.243,11.743,0
		C324.704,199.039,324.704,193.783,321.462,190.54z"/>
	<path style="fill:#941108;" d="M364.836,158.907c3.243-3.243,3.243-8.499,0-11.743l-23.352-23.352l-11.743,11.743l23.352,23.352
		C356.338,162.15,361.594,162.15,364.836,158.907z"/>
</g>
<g>
	<path style="fill:#146A8A;" d="M460.256,51.745c-11.821-11.821-11.821-31.057,0-42.879c11.822-11.822,31.057-11.822,42.879,0
		s11.821,31.057,0,42.879C491.313,63.568,472.078,63.568,460.256,51.745z M491.393,20.608c-5.347-5.347-14.047-5.347-19.395,0
		c-5.347,5.347-5.347,14.047,0,19.395s14.047,5.347,19.395,0C496.74,34.656,496.74,25.956,491.393,20.608z"/>
	<path style="fill:#146A8A;" d="M466.523,46.281l-48.706,78.86l15.656,15.656l32.65-32.65
		C483.158,91.112,483.291,63.471,466.523,46.281z"/>
</g>
<path style="fill:#2089B0;" d="M466.523,46.281c-0.125-0.141-0.258-0.273-0.392-0.407c-0.133-0.133-0.266-0.266-0.407-0.392
	c-17.198-16.775-44.839-16.642-61.874,0.392l-32.649,32.65l15.656,15.656l30.96,30.96l32.65-32.65
	C467.368,75.589,474.445,55.063,466.523,46.281z"/>
<g>
</g>
<g>
</g>
<g>
</g>
<g>
</g>
<g>
</g>
<g>
</g>
<g>
</g>
<g>
</g>
<g>
</g>
<g>
</g>
<g>
</g>
<g>
</g>
<g>
</g>
<g>
</g>
<g>
</g>
</svg>
