<svg viewBox="-28 0 512 512" xmlns="http://www.w3.org/2000/svg"><path d="m347.769531 181v150l-120 60-120-60v-150l120-60zm0 0" fill="#deecf1"/><g fill="#c6e2e7"><path d="m347.769531 181v150l-120 60v-270zm0 0"/><path d="m212.769531 421h30v91h-30zm0 0"/><path d="m212.769531 0h30v91h-30zm0 0"/></g><path d="m194.226562 120.992188 13.414063 26.835937-66.324219 33.164063-13.417968-26.835938zm0 0" fill="#a8d3d8"/><path d="m381.3125 180.441406-13.855469-26.597656 74.222657-38.644531 13.859374 26.601562zm0 0" fill="#a8d3d8"/><path d="m261.308594 120.992188 66.324218 33.164062-13.417968 26.832031-66.324219-33.160156zm0 0" fill="#8ebac5"/><path d="m13.859375 396.800781-13.859375-26.601562 74.222656-38.640625 13.859375 26.597656zm0 0" fill="#c6e2e7"/><path d="m92.769531 211h30v90h-30zm0 0" fill="#a8d3d8"/><path d="m74.222656 180.441406-74.222656-38.640625 13.859375-26.601562 74.222656 38.644531zm0 0" fill="#c6e2e7"/><path d="m141.3125 330.988281 66.328125 33.164063-13.417969 26.832031-66.324218-33.160156zm0 0" fill="#a8d3d8"/><path d="m314.230469 330.988281 13.414062 26.832031-66.324219 33.164063-13.417968-26.835937zm0 0" fill="#8ebac5"/><path d="m441.679688 396.800781-74.222657-38.644531 13.855469-26.597656 74.226562 38.640625zm0 0" fill="#a8d3d8"/><path d="m332.769531 211h30v90h-30zm0 0" fill="#8ebac5"/><path d="m227.769531 0h15v91h-15zm0 0" fill="#a8d3d8"/><path d="m227.769531 421h15v91h-15zm0 0" fill="#a8d3d8"/><path d="m227.769531 76c-24.902343 0-45 20.097656-45 45s20.097657 45 45 45c24.902344 0 45-20.097656 45-45s-20.097656-45-45-45zm0 0" fill="#00ddc1"/><path d="m227.769531 166v-90c24.902344 0 45 20.097656 45 45s-20.097656 45-45 45zm0 0" fill="#00b2ad"/><path d="m227.769531 346c-24.902343 0-45 20.097656-45 45s20.097657 45 45 45c24.902344 0 45-20.097656 45-45s-20.097656-45-45-45zm0 0" fill="#00ddc1"/><path d="m347.769531 226c-24.816406 0-45-20.1875-45-45s20.183594-45 45-45c24.8125 0 45 20.1875 45 45s-20.1875 45-45 45zm0 0" fill="#00b2ad"/><path d="m347.769531 376c-24.816406 0-45-20.1875-45-45s20.183594-45 45-45c24.8125 0 45 20.1875 45 45s-20.1875 45-45 45zm0 0" fill="#00b2ad"/><path d="m272.769531 391c0 24.902344-20.097656 45-45 45v-90c24.902344 0 45 20.097656 45 45zm0 0" fill="#00b2ad"/><path d="m107.769531 376c-24.816406 0-45-20.1875-45-45s20.183594-45 45-45c24.8125 0 45 20.1875 45 45s-20.1875 45-45 45zm0 0" fill="#00ddc1"/><path d="m107.769531 226c-24.816406 0-45-20.1875-45-45s20.183594-45 45-45c24.8125 0 45 20.1875 45 45s-20.1875 45-45 45zm0 0" fill="#00ddc1"/></svg>