<svg viewBox="-61 0 511 511.99955" xmlns="http://www.w3.org/2000/svg"><path d="m210.539062 121v76.199219h-30v-46.199219zm0 0" fill="#68544f"/><path d="m210.539062 197.199219h-15v-61.199219l15-15zm0 0" fill="#53433f"/><path d="m373.136719 202.597656c-15.898438-25.496094-41.996094-41.996094-75.597657-47.996094-25.5-4.503906-51.601562 2.097657-75.601562 19.199219-7.796875 5.699219-17.097656 8.398438-26.398438 8.398438-9.300781 0-18.601562-2.699219-26.398437-8.398438-24-17.101562-50.101563-23.703125-75.601563-19.199219-33.601562 6-59.699218 22.5-75.601562 47.996094-16.796875 27.003906-21.597656 62.402344-13.796875 105.300782 7.796875 44.402343 27 97.578124 50.699219 135.980468 27.296875 44.699219 57 68.097656 86.398437 68.097656 15.535157 0 36.109375-6.929687 54.300781-23.097656 13.5 12 28.5 19.5 44.699219 22.199219 32.402344 6 65.699219-17.402344 96-67.199219 23.699219-38.402344 42.902344-91.578125 50.699219-135.980468 7.800781-42.898438 3-78.296876-13.800781-105.300782zm0 0" fill="#f66"/><path d="m386.9375 307.898438c-7.796875 44.402343-27 97.578124-50.699219 135.980468-30.300781 49.796875-63.597656 73.199219-96 67.199219-16.199219-2.699219-31.199219-10.199219-44.699219-22.199219v-306.679687c9.300782 0 18.601563-2.699219 26.398438-8.398438 24-17.101562 50.101562-23.703125 75.601562-19.199219 33.601563 6 59.699219 22.5 75.601563 47.996094 16.796875 27.003906 21.597656 62.402344 13.796875 105.300782zm0 0" fill="#ff3e48"/><path d="m315.539062 0c-52.199218 0-97.5 30.699219-120 74.199219-9.601562 18.601562-15 39.601562-15 61.800781v15h15c74.398438 0 135-61.601562 135-136v-15zm0 0" fill="#00eed0"/><path d="m266.039062 326.5-70.5 70.800781-70.5-70.800781 21-21 34.5 34.199219v-83.699219h30v83.699219l34.5-34.199219zm0 0" fill="#68544f"/><path d="m266.039062 326.5-70.5 70.800781v-141.300781h15v83.699219l34.5-34.199219zm0 0" fill="#53433f"/><path d="m195.539062 151v-76.800781c22.5-43.5 67.800782-74.199219 120-74.199219h15v15c0 74.398438-60.601562 136-135 136zm0 0" fill="#00ddc1"/></svg>