<svg viewBox="0 0 512 512" xmlns="http://www.w3.org/2000/svg"><path d="m491.5 131.710938c-1.820312-3.972657-33.746094 22.117187-35.785156 18.273437-2.847656-5.378906 24.09375-40.625 20.824218-45.734375-6.125-9.585938-12.949218-18.644531-20.410156-27.167969-3.308594-3.777343-36.738281 22.5625-40.28125 19.019531-3.527344-3.527343 22.828125-36.9375 19.070313-40.230468-8.523438-7.460938-17.582031-14.285156-27.167969-20.410156-5.109375-3.269532-40.359375 23.671874-45.738281 20.820312-3.839844-2.035156 22.25-33.964844 18.277343-35.78125-28.460937-13.035156-59.988281-20.5-93.289062-20.5h-15v128.789062l30-8.789062-30 51.210938v47.578124l30-8.789062-8.789062 30h47.578124l47.460938-30-5.039062 30h128.789062v-15c0-33.300781-7.464844-64.828125-20.5-93.289062zm0 0" fill="#f66"/><path d="m242 270v-210h-15c-124.199219 0-227 100.800781-227 225s102.800781 227 227 227c5.097656 0 9.902344-.300781 15-.902344 117.300781-7.199218 210-107 210-226.097656v-15zm0 0" fill="#00ddc1"/><g fill="#ff3e48"><path d="m434.914062 55.871094-162.914062 162.917968v21.210938h21.210938l162.917968-162.914062c-6.601562-7.535157-13.679687-14.613282-21.214844-21.214844zm0 0"/><path d="m476.539062 104.25-135.75 135.75h42.421876l108.289062-108.289062c-4.367188-9.53125-9.355469-18.699219-14.960938-27.460938zm0 0"/><path d="m380.289062 20.5-108.289062 108.289062v42.421876l135.75-135.75c-8.761719-5.605469-17.929688-10.59375-27.460938-14.960938zm0 0"/></g><path d="m452 270v15c0 119.097656-92.699219 218.898438-210 226.097656v-241.097656zm0 0" fill="#00b2ad"/></svg>