<svg viewBox="0 0 512 512" xmlns="http://www.w3.org/2000/svg"><path d="m61 121h60v361h-60zm0 0" fill="#c6e2e7"/><path d="m91 121h30v361h-30zm0 0" fill="#8ebac5"/><g fill="#deecf1"><path d="m31 211h120v30h-120zm0 0"/><path d="m31 271h120v30h-120zm0 0"/><path d="m31 331h120v30h-120zm0 0"/></g><path d="m76 0h30v46h-30zm0 0" fill="#c6e2e7"/><path d="m376 91v30h-50.699219l-39.300781 78.601562-60-120-20.699219 41.398438h-69.300781v-30h50.699219l39.300781-79.601562 60 121 20.699219-41.398438zm0 0" fill="#00eed0"/><path d="m181 482v30h-181v-30c0-16.5 13.5-30 30-30h121c16.5 0 30 13.5 30 30zm0 0" fill="#725d57"/><path d="m91 211h60v30h-60zm0 0" fill="#a8d3d8"/><path d="m91 271h60v30h-60zm0 0" fill="#a8d3d8"/><path d="m91 331h60v30h-60zm0 0" fill="#a8d3d8"/><path d="m181 482v30h-90v-60h60c16.5 0 30 13.5 30 30zm0 0" fill="#53433f"/><path d="m91 0h15v46h-15zm0 0" fill="#8ebac5"/><path d="m151 91c0 16.5-6.597656 31.5-17.699219 42.300781-10.800781 11.097657-25.800781 17.699219-42.300781 17.699219-33 0-60-27-60-60 0-16.5 6.597656-31.5 17.699219-42.300781 10.800781-11.101563 25.800781-17.699219 42.300781-17.699219s31.5 6.597656 42.300781 17.699219c11.101563 10.800781 17.699219 25.800781 17.699219 42.300781zm0 0" fill="#deecf1"/><path d="m133.300781 133.300781c-10.800781 11.097657-25.800781 17.699219-42.300781 17.699219v-120c16.5 0 31.5 6.597656 42.300781 17.699219 11.101563 10.800781 17.699219 25.800781 17.699219 42.300781s-6.597656 31.5-17.699219 42.300781zm0 0" fill="#a8d3d8"/><path d="m376 91v30h-50.699219l-39.300781 78.601562-30-60v-67.203124l30 60 20.699219-41.398438zm0 0" fill="#00ddc1"/><path d="m391 121h60v361h-60zm0 0" fill="#c6e2e7"/><path d="m421 121h30v361h-30zm0 0" fill="#8ebac5"/><path d="m361 211h120v30h-120zm0 0" fill="#deecf1"/><path d="m361 271h120v30h-120zm0 0" fill="#deecf1"/><path d="m361 331h120v30h-120zm0 0" fill="#deecf1"/><path d="m406 0h30v46h-30zm0 0" fill="#c6e2e7"/><path d="m512 482v30h-181v-30c0-16.5 13.5-30 30-30h121c16.5 0 30 13.5 30 30zm0 0" fill="#725d57"/><path d="m421 211h60v30h-60zm0 0" fill="#a8d3d8"/><path d="m421 271h60v30h-60zm0 0" fill="#a8d3d8"/><path d="m421 331h60v30h-60zm0 0" fill="#a8d3d8"/><path d="m512 482v30h-91v-60h61c16.5 0 30 13.5 30 30zm0 0" fill="#53433f"/><path d="m421 0h15v46h-15zm0 0" fill="#8ebac5"/><path d="m481 91c0 16.5-6.597656 31.5-17.699219 42.300781-10.800781 11.097657-25.800781 17.699219-42.300781 17.699219-33 0-60-27-60-60 0-16.5 6.597656-31.5 17.699219-42.300781 10.800781-11.101563 25.800781-17.699219 42.300781-17.699219s31.5 6.597656 42.300781 17.699219c11.101563 10.800781 17.699219 25.800781 17.699219 42.300781zm0 0" fill="#deecf1"/><path d="m463.300781 133.300781c-10.800781 11.097657-25.800781 17.699219-42.300781 17.699219v-120c16.5 0 31.5 6.597656 42.300781 17.699219 11.101563 10.800781 17.699219 25.800781 17.699219 42.300781s-6.597656 31.5-17.699219 42.300781zm0 0" fill="#a8d3d8"/></svg>