<svg viewBox="0 0 512 512.00003" xmlns="http://www.w3.org/2000/svg"><path d="m240.976562 134.035156h30v362.964844h-30zm0 0" fill="#a8d3d8"/><path d="m421.960938 44.042969h29.996093v120.988281h-29.996093zm0 0" fill="#ff9f00"/><path d="m90.992188 164.03125h29.996093v120.988281h-29.996093zm0 0" fill="#fdbf00"/><path d="m20.269531 208.078125-10.542969-28.09375 212.882813-79.460937 10.546875 28.09375zm0 0" fill="#a8d3d8"/><path d="m255.976562 134.035156h15v362.964844h-15zm0 0" fill="#8ebac5"/><path d="m289.34375 107.554688-10.546875-28.09375 212.882813-79.460938 10.546874 28.09375zm0 0" fill="#8ebac5"/><path d="m255.976562 59.042969c-24.898437 0-44.996093 20.097656-44.996093 44.996093 0 24.894532 20.097656 44.996094 44.996093 44.996094 24.898438 0 44.996094-20.101562 44.996094-44.996094 0-24.898437-20.097656-44.996093-44.996094-44.996093zm0 0" fill="#deecf1"/><path d="m150.984375 482.003906h209.980469v29.996094h-209.980469zm0 0" fill="#725d57"/><path d="m466.957031 180.03125c0 16.5-13.5 29.996094-29.996093 29.996094-16.5 0-30-13.496094-30-29.996094s13.5-29.996094 30-29.996094c16.496093 0 29.996093 13.496094 29.996093 29.996094zm0 0" fill="#68544f"/><path d="m105.988281 270.023438c-24.898437 0-44.992187 20.097656-44.992187 44.996093 0 24.894531 20.09375 44.996094 44.992187 44.996094 24.902344 0 44.996094-20.101563 44.996094-44.996094 0-24.898437-20.097656-44.996093-44.996094-44.996093zm0 59.992187c-8.269531 0-14.996093-6.726563-14.996093-14.996094s6.726562-15 14.996093-15c8.273438 0 15 6.730469 15 15s-6.726562 14.996094-15 14.996094zm0 0" fill="#68544f"/><path d="m105.988281 270.023438v29.996093c8.273438 0 15 6.730469 15 15s-6.726562 14.996094-15 14.996094v30c24.902344 0 44.996094-20.101563 44.996094-44.996094 0-24.898437-20.097656-44.996093-44.996094-44.996093zm0 0" fill="#53433f"/><path d="m210.980469 450.003906h-210.980469l29.996094-119.988281h150.988281zm0 0" fill="#725d57"/><path d="m210.980469 450.003906h-104.992188v-119.988281h74.996094zm0 0" fill="#53433f"/><path d="m466.957031 180.03125c0 16.5-13.5 29.996094-29.996093 29.996094v-59.992188c16.496093 0 29.996093 13.496094 29.996093 29.996094zm0 0" fill="#53433f"/><path d="m511.953125 300.019531h-149.988281l30-119.988281h89.988281zm0 0" fill="#725d57"/><path d="m511.953125 300.019531h-74.992187v-119.988281h44.992187zm0 0" fill="#53433f"/><path d="m255.976562 149.035156v-89.992187c24.898438 0 44.996094 20.097656 44.996094 44.996093 0 24.894532-20.097656 44.996094-44.996094 44.996094zm0 0" fill="#c6e2e7"/><path d="m255.976562 482.003906h104.988282v29.996094h-104.988282zm0 0" fill="#53433f"/></svg>