<svg viewBox="0 0 512 512" xmlns="http://www.w3.org/2000/svg"><path d="m255.902344 361c0-8.402344-1.199219-16.5-3-24.300781l48.898437-30.601563-30-52.199218-48.898437 30.898437c-11.699219-11.097656-26.101563-19.199219-42-24v-49.796875h-60v49.800781c-15.902344 4.800781-30.300782 12.898438-42.003906 24l-48.898438-30.902343-30 52.203124 48.898438 30.597657c-1.796876 7.800781-2.996094 15.898437-2.996094 24.300781 0 8.398438 1.199218 16.5 2.996094 24.300781l-48.898438 30.597657 30 52.203124 48.898438-30.902343c11.703124 11.101562 26.101562 19.199219 42.003906 24v50.800781h60v-50.800781c15.898437-4.800781 30.296875-12.898438 42-24l48.898437 30.902343 30-52.203124-48.898437-30.597657c1.800781-7.800781 3-15.902343 3-24.300781zm-105 45c-24.902344 0-45-20.101562-45-45 0-24.902344 20.097656-45 45-45 24.898437 0 45 20.097656 45 45 0 24.898438-20.101563 45-45 45zm0 0" fill="#deecf1"/><path d="m465.902344 151c0-8.402344-1.199219-16.5-3-24.300781l48.898437-30.601563-30-52.199218-48.898437 30.898437c-11.699219-11.097656-26.101563-19.199219-42-24v-50.796875h-60v50.800781c-15.902344 4.800781-30.300782 12.898438-42.003906 24l-48.898438-30.902343-30 52.203124 48.898438 30.597657c-1.796876 7.800781-2.996094 15.902343-2.996094 24.300781s1.199218 16.5 2.996094 24.300781l-48.898438 30.597657 30 52.203124 48.898438-30.902343c11.703124 11.101562 26.101562 19.203125 42.003906 24v49.800781h60v-49.800781c15.898437-4.800781 30.296875-12.898438 42-24l48.898437 30.902343 30-52.203124-48.898437-30.597657c1.800781-7.800781 3-15.902343 3-24.300781zm-105 45c-24.902344 0-45-20.101562-45-45 0-24.902344 20.097656-45 45-45 24.898437 0 45 20.097656 45 45 0 24.898438-20.101563 45-45 45zm0 0" fill="#a8d3d8"/><path d="m252.902344 385.300781 48.898437 30.597657-30 52.203124-48.898437-30.902343c-11.699219 11.101562-26.101563 19.199219-42 24v50.800781h-30v-106c24.898437 0 45-20.101562 45-45 0-24.902344-20.101563-45-45-45v-105h30v49.800781c15.898437 4.800781 30.296875 12.898438 42 24l48.898437-30.902343 30 52.203124-48.898437 30.597657c1.800781 7.800781 3 15.902343 3 24.300781s-1.199219 16.5-3 24.300781zm0 0" fill="#c6e2e7"/><path d="m462.902344 175.300781 48.898437 30.597657-30 52.203124-48.898437-30.902343c-11.699219 11.101562-26.101563 19.199219-42 24v49.800781h-30v-105c24.898437 0 45-20.101562 45-45 0-24.902344-20.101563-45-45-45v-106h30v50.800781c15.898437 4.800781 30.296875 12.898438 42 24l48.898437-30.902343 30 52.203124-48.898437 30.597657c1.800781 7.800781 3 15.902343 3 24.300781s-1.199219 16.5-3 24.300781zm0 0" fill="#8ebac5"/></svg>