<svg viewBox="0 0 512 512" xmlns="http://www.w3.org/2000/svg"><path d="m512 256v-256h-256l-30 118.847656 30 137.152344 135 30zm0 0" fill="#c6e2e7"/><path d="m512 256h-256l-30 126 30 130h256zm0 0" fill="#ff3e48"/><path d="m256 512v-256l-135-30-121 30v256zm0 0" fill="#c6e2e7"/><path d="m0 0h256v256h-256zm0 0" fill="#deecf1"/><path d="m196 106h-60v-60h-30v60h-60v30h60v60h30v-60h60zm0 0" fill="#68544f"/><path d="m316 106h150v30h-150zm0 0" fill="#68544f"/><path d="m316 346h150v30h-150zm0 0" fill="#53433f"/><path d="m316 406h150v30h-150zm0 0" fill="#53433f"/><path d="m184.632812 348.578125-21.210937-21.210937-42.421875 42.421874-42.421875-42.421874-21.210937 21.210937 42.421874 42.421875-42.421874 42.421875 21.210937 21.210937 42.421875-42.421874 42.421875 42.421874 21.210937-21.210937-42.421874-42.421875zm0 0" fill="#68544f"/></svg>