<svg viewBox="0 -40 512 512" xmlns="http://www.w3.org/2000/svg"><path d="m384.992188 249.597656-17.984376-23.996094 120-90 17.984376 23.996094zm0 0" fill="#00ddc1"/><path d="m484.601562 18.605469-115.203124 173.996093-21.117188 15 38.878906 15 121.4375-186.007812zm0 0" fill="#f66"/><path d="m512 251.824219-9.492188-28.449219-82.3125 28.683594-17.867187-3.757813-17.53125 21.144531 37.898437 13.398438zm0 0" fill="#fdbf00"/><path d="m512 432.601562h-512l124.898438-210 26.101562-21.300781-9-7.800781.597656-.898438 113.402344-192.601562 113.402344 192.601562-19.800782 16.796876 37.5 13.203124 15.296876 25.796876-19.5 2.703124 39.902343 31.796876zm0 0" fill="#deecf1"/><path d="m512 432.601562h-256v-432.601562l113.402344 192.601562-19.800782 16.796876 37.5 13.203124 15.296876 25.796876-19.5 2.703124 39.902343 31.796876zm0 0" fill="#a8d3d8"/><path d="m127.007812 219.597656-120-90 17.984376-23.996094 120 90zm0 0" fill="#c6e2e7"/><path d="m422.800781 282.898438-.898437.300781-165.902344-35.101563-121.5-25.496094 82.800781-15 38.699219 9.296876 24.300781 5.703124 122.097657 25.796876zm0 0" fill="#fdbf00"/><path d="m422.800781 282.898438-.898437.300781-165.902344-35.101563v-31.199218l24.300781 5.703124 122.097657 25.796876zm0 0" fill="#ff9f00"/><path d="m387.101562 222.601562h-262.203124l12.601562-21.300781 4.5-7.800781.597656-.898438h226.804688zm0 0" fill="#f66"/><path d="m387.101562 222.601562h-131.101562v-30h113.402344zm0 0" fill="#ff3e48"/></svg>