<svg viewBox="0 -45 512 512" xmlns="http://www.w3.org/2000/svg"><path d="m242 208.5-242-192v406.199219h509.898438zm0 0" fill="#a8d3d8"/><path d="m302 240c-33.089844 0-60-26.910156-60-60s26.910156-60 60-60 60 26.910156 60 60-26.910156 60-60 60zm0 0" fill="#fdbf00"/><path d="m452 360c-33.089844 0-60-26.910156-60-60s26.910156-60 60-60 60 26.910156 60 60-26.910156 60-60 60zm0 0" fill="#fdbf00"/><path d="m152 120c-33.089844 0-60-26.910156-60-60s26.910156-60 60-60 60 26.910156 60 60-26.910156 60-60 60zm0 0" fill="#ffd400"/><path d="m509.898438 422.699219h-267.898438v-214.199219zm0 0" fill="#8ebac5"/></svg>