<svg viewBox="0 0 512 512" xmlns="http://www.w3.org/2000/svg"><path d="m512 120-15 15 15 15v30l-45 15 45 15v30l-15 15 15 15v30l-45 15 45 15v30l-15 15 15 15v30l-45 15 45 15v62h-150v-362h-362v-150h62l15 45 15-45h30l15 15 15-15h30l15 45 15-45h30l15 15 15-15h30l15 45 15-45h30l15 15 15-15h120zm0 0" fill="#ffd400"/><path d="m512 120-15 15 15 15v30l-45 15 45 15v30l-15 15 15 15v30l-45 15 45 15v30l-15 15 15 15v30l-45 15 45 15v62h-150v-362l150-150zm0 0" fill="#fdbf00"/><path d="m317 450v30h-165l-30-15 30-15zm0 0" fill="#8ebac5"/><path d="m62 195v165l-15 30-15-30v-165zm0 0" fill="#a8d3d8"/><path d="m0 180h92v30h-92zm0 0" fill="#a8d3d8"/><path d="m302 420h30v92h-30zm0 0" fill="#8ebac5"/><path d="m452 420h60v30h-60zm0 0" fill="#ff9f00"/><path d="m482 360h30v30h-30zm0 0" fill="#ff9f00"/><path d="m452 300h60v30h-60zm0 0" fill="#ff9f00"/><path d="m482 240h30v30h-30zm0 0" fill="#ff9f00"/><path d="m452 180h60v30h-60zm0 0" fill="#ff9f00"/><path d="m482 120h30v30h-30zm0 0" fill="#ff9f00"/><g fill="#fdbf00"><path d="m62 0h30v60h-30zm0 0"/><path d="m122 0h30v30h-30zm0 0"/><path d="m182 0h30v60h-30zm0 0"/><path d="m242 0h30v30h-30zm0 0"/><path d="m302 0h30v60h-30zm0 0"/><path d="m362 0h30v30h-30zm0 0"/></g><path d="m32 360h120v120h-120zm0 0" fill="#00eed0"/><path d="m152 360v120h-120zm0 0" fill="#00ddc1"/></svg>