<svg viewBox="-46 0 512 512" xmlns="http://www.w3.org/2000/svg"><path d="m150 0h120v256h-120zm0 0" fill="#c6e2e7"/><path d="m210 0h60v256h-60zm0 0" fill="#8ebac5"/><path d="m105 121h195v30h-195zm0 0" fill="#deecf1"/><path d="m105 61h195v30h-195zm0 0" fill="#deecf1"/><path d="m420 256v45h-420v-45c0-24.902344 20.097656-45 45-45h330c24.902344 0 45 20.097656 45 45zm0 0" fill="#725d57"/><path d="m420 421v46c0 24.898438-20.097656 45-45 45h-330c-24.902344 0-45-20.101562-45-45v-46zm0 0" fill="#725d57"/><path d="m330 361c0 16.5-6.597656 31.5-17.699219 42.300781-10.800781 11.097657-25.800781 17.699219-42.300781 17.699219h-120c-33 0-60-27-60-60 0-16.5 6.597656-31.5 17.699219-42.300781 10.800781-11.101563 25.800781-17.699219 42.300781-17.699219h120c33 0 60 27 60 60zm0 0" fill="#fdbf00"/><path d="m330 361c0 16.5-6.597656 31.5-17.699219 42.300781-10.800781 11.097657-25.800781 17.699219-42.300781 17.699219h-60v-120h60c33 0 60 27 60 60zm0 0" fill="#ff9f00"/><path d="m210 61h90v30h-90zm0 0" fill="#a8d3d8"/><path d="m210 121h90v30h-90zm0 0" fill="#a8d3d8"/><g fill="#53433f"><path d="m420 256v45h-210v-90h165c24.902344 0 45 20.097656 45 45zm0 0"/><path d="m210 421h210v46c0 24.898438-20.097656 45-45 45h-165zm0 0"/></g></svg>