<svg viewBox="0 0 512 512" xmlns="http://www.w3.org/2000/svg"><path d="m256 120c-74.398438 0-136 60.597656-136 135 0 74.398438 61.601562 135 136 135s135-60.601562 135-135c0-74.402344-60.601562-135-135-135zm0 0" fill="#00ddc1"/><path d="m256 390v-270c74.398438 0 135 60.597656 135 135 0 74.398438-60.601562 135-135 135zm0 0" fill="#00b2ad"/><path d="m512 255c0 140.699219-115.300781 257-256 257s-256-116.300781-256-257c0-47.101562 12.898438-93.300781 37.5-133.199219l25.5 15.597657c-21.601562 35.402343-33 75.902343-33 117.601562 0 124.199219 101.800781 227 226 227s226-102.800781 226-227-101.800781-225-226-225c-41.699219 0-83.199219 11.398438-118.597656 33l-15.601563-25.5c39.898438-24.601562 87.097657-37.5 134.199219-37.5 140.699219 0 256 114.300781 256 255zm0 0" fill="#c6e2e7"/><path d="m512 255c0 140.699219-115.300781 257-256 257v-30c124.199219 0 226-102.800781 226-227s-101.800781-225-226-225v-30c140.699219 0 256 114.300781 256 255zm0 0" fill="#a8d3d8"/><path d="m75 0c-41.398438 0-75 33.601562-75 75s33.601562 75 75 75 75-33.601562 75-75-33.601562-75-75-75zm0 0" fill="#f66"/><path d="m331 240v30h-60v60h-30v-60h-60v-30h60v-60h30v60zm0 0" fill="#deecf1"/><path d="m331 240v30h-60v60h-15v-150h15v60zm0 0" fill="#c6e2e7"/><path d="m150 75c0 41.398438-33.601562 75-75 75v-150c41.398438 0 75 33.601562 75 75zm0 0" fill="#ff3e48"/><path d="m45 60h60v30h-60zm0 0" fill="#deecf1"/><path d="m75 60h30v30h-30zm0 0" fill="#c6e2e7"/></svg>