<svg viewBox="-75 0 511 511.99777" xmlns="http://www.w3.org/2000/svg"><path d="m150.5 404.398438h30v92.597656h-30zm0 0" fill="#725d57"/><path d="m165.5 404.398438h15v92.597656h-15zm0 0" fill="#53433f"/><path d="m60.5 481.996094h210v30h-210zm0 0" fill="#725d57"/><path d="m165.5 481.996094h105v30h-105zm0 0" fill="#53433f"/><path d="m324.199219 314.996094c-19.800781 69.300781-83.097657 120-158.699219 120-91.199219 0-165-73.800782-165-165 0-57.300782 29.097656-107.699219 73.199219-137.097656 26.398437-17.703126 57.898437-27.902344 91.800781-27.902344v60c-18.902344 0-36.601562 5.101562-52.199219 13.800781-31.5 18.300781-52.800781 52.199219-52.800781 91.199219 0 57.902344 47.097656 105 105 105 41.699219 0 77.398438-24.597656 94.5-60zm0 0" fill="#a8d3d8"/><path d="m324.199219 314.996094c-19.800781 69.300781-83.097657 120-158.699219 120v-60c41.699219 0 77.398438-24.597656 94.5-60zm0 0" fill="#8ebac5"/><path d="m210.5 299.996094h150v30h-150zm0 0" fill="#00ddc1"/><path d="m100.832031 106.066406-63.640625-63.640625 42.425782-42.425781 63.640624 63.640625zm0 0" fill="#725d57"/><path d="m249.320312 169.703125 42.425782 42.425781c11.667968 11.667969 11.667968 30.761719 0 42.425782-11.664063 11.667968-30.757813 11.667968-42.425782 0l-42.425781-42.425782zm0 0" fill="#725d57"/><path d="m100.832031 106.0625-63.640625-63.636719 21.210938-21.214843 63.640625 63.640624zm0 0" fill="#68544f"/><path d="m206.894531 212.128906 21.214844-21.210937 63.640625 63.640625c-11.667969 11.664062-30.761719 11.664062-42.425781 0zm0 0" fill="#68544f"/><path d="m206.894531 254.558594-148.488281-148.492188 84.851562-84.851562 148.492188 148.492187zm0 0" fill="#deecf1"/><path d="m206.894531 254.558594-148.488281-148.492188 42.425781-42.425781 148.488281 148.492187zm0 0" fill="#c6e2e7"/></svg>