<svg viewBox="0 0 512 512" xmlns="http://www.w3.org/2000/svg"><path d="m255.300781 256.699219-255.300781-256.699219v512h60l15-15 15 15h30l15-15 15 15h30l15-15 15 15h30l15-15 15 15h30l15-15 15 15h30l15-15 15 15h122zm-165.300781 165.300781v-203.699219l101.699219 102 101.402343 101.699219zm0 0" fill="#ffd400"/><path d="m512 512h-122l-15-15-15 15h-30l-15-15-15 15h-30l-15-15-15 15h-30l-15-15-15 15h-30l-15-15-15 15h-30l-15-15-15 15h-60l90-90h203.101562l-101.402343-101.699219 63.300781-63.300781s0 0 .300781-.300781zm0 0" fill="#fdbf00"/><g fill="#ff9f00"><path d="m60 482h30v30h-30zm0 0"/><path d="m120 482h30v30h-30zm0 0"/><path d="m180 482h30v30h-30zm0 0"/><path d="m240 482h30v30h-30zm0 0"/><path d="m300 482h30v30h-30zm0 0"/><path d="m360 482h30v30h-30zm0 0"/></g></svg>