<svg viewBox="-31 0 512 512" xmlns="http://www.w3.org/2000/svg"><path d="m90 135h30v210h-30zm0 0" fill="#fdbf00"/><path d="m330 135h30v150h-30zm0 0" fill="#ff9f00"/><path d="m225 0c-74.398438 0-135 60.597656-135 135 0 74.398438 60.601562 135 135 135s135-60.601562 135-135c0-74.402344-60.601562-135-135-135zm0 0" fill="#deecf1"/><path d="m360 135c0 74.398438-60.601562 135-135 135v-270c74.398438 0 135 60.597656 135 135zm0 0" fill="#c6e2e7"/><path d="m225 60c-41.398438 0-75 33.601562-75 75s33.601562 75 75 75 75-33.601562 75-75-33.601562-75-75-75zm0 0" fill="#a8d3d8"/><path d="m210 120h30v30h-30zm0 0" fill="#a8d3d8"/><path d="m105 330c-24.898438 0-45 20.101562-45 45s20.101562 45 45 45 45-20.101562 45-45-20.101562-45-45-45zm0 60c-8.269531 0-15-6.730469-15-15s6.730469-15 15-15 15 6.730469 15 15-6.730469 15-15 15zm0 0" fill="#68544f"/><path d="m105 330v30c8.269531 0 15 6.730469 15 15s-6.730469 15-15 15v30c24.898438 0 45-20.101562 45-45s-20.101562-45-45-45zm0 0" fill="#53433f"/><path d="m210 512h-210l30-122h150zm0 0" fill="#725d57"/><path d="m210 512h-105v-122h75zm0 0" fill="#53433f"/><path d="m345 270c-24.898438 0-45 20.101562-45 45s20.101562 45 45 45 45-20.101562 45-45-20.101562-45-45-45zm0 60c-8.269531 0-15-6.730469-15-15s6.730469-15 15-15 15 6.730469 15 15-6.730469 15-15 15zm0 0" fill="#68544f"/><path d="m345 270v30c8.269531 0 15 6.730469 15 15s-6.730469 15-15 15v30c24.898438 0 45-20.101562 45-45s-20.101562-45-45-45zm0 0" fill="#53433f"/><path d="m450 450h-210l30-120h150zm0 0" fill="#725d57"/><path d="m450 450h-105v-120h75zm0 0" fill="#53433f"/><g fill="#8ebac5"><path d="m300 135c0 41.398438-33.601562 75-75 75v-150c41.398438 0 75 33.601562 75 75zm0 0"/><path d="m225 120h15v30h-15zm0 0"/></g></svg>