<?xml version="1.0" encoding="iso-8859-1"?>
<!-- Generator: Adobe Illustrator 19.0.0, SVG Export Plug-In . SVG Version: 6.00 Build 0)  -->
<svg version="1.1" id="Layer_1" xmlns="http://www.w3.org/2000/svg" xmlns:xlink="http://www.w3.org/1999/xlink" x="0px" y="0px"
	 viewBox="0 0 512 512" style="enable-background:new 0 0 512 512;" xml:space="preserve">
<g>
	<rect x="239.309" y="84.58" style="fill:#444242;" width="33.391" height="123.89"/>
	<rect x="239.309" y="303.52" style="fill:#444242;" width="33.391" height="123.89"/>
</g>
<g>
	<rect x="255.999" y="84.58" style="fill:#3A3839;" width="16.696" height="123.89"/>
	<rect x="255.999" y="303.52" style="fill:#3A3839;" width="16.696" height="123.89"/>
</g>
<rect x="144.498" y="248.795" transform="matrix(0.5 0.866 -0.866 0.5 349.7003 15.7695)" style="fill:#444242;" width="33.39" height="123.887"/>
<rect x="288.854" y="294.055" transform="matrix(0.866 0.5 -0.5 0.866 202.3788 -133.7679)" style="fill:#3A3839;" width="123.887" height="33.39"/>
<path style="fill:#F9D026;" d="M256,320.217c-35.409,0-64.217-28.808-64.217-64.217s28.808-64.217,64.217-64.217
	s64.217,28.808,64.217,64.217S291.409,320.217,256,320.217z"/>
<g>
	<path style="fill:#61A2EF;" d="M256,101.279c-27.923,0-50.64-22.717-50.64-50.639C205.36,22.717,228.077,0,256,0
		s50.64,22.717,50.64,50.64C306.64,78.562,283.923,101.279,256,101.279z"/>
	<path style="fill:#61A2EF;" d="M256,512c-27.923,0-50.64-22.717-50.64-50.64c0-27.922,22.717-50.639,50.64-50.639
		s50.64,22.717,50.64,50.639C306.64,489.283,283.923,512,256,512z"/>
	<path style="fill:#61A2EF;" d="M78.236,409.342c-4.399,0-8.826-0.579-13.19-1.747c-13.065-3.5-23.985-11.881-30.749-23.594
		s-8.559-25.361-5.059-38.426c3.502-13.066,11.88-23.986,23.594-30.749c24.182-13.96,55.215-5.645,69.175,18.535
		c6.764,11.714,8.559,25.361,5.059,38.427c-3.502,13.065-11.881,23.985-23.594,30.748C95.67,407.04,87.01,409.342,78.236,409.342z"
		/>
</g>
<path style="fill:#528ACF;" d="M433.764,409.342c-8.775,0-17.434-2.301-25.237-6.806c-11.714-6.763-20.094-17.683-23.594-30.748
	c-3.5-13.066-1.704-26.713,5.059-38.427c13.962-24.181,44.993-32.495,69.175-18.534c11.714,6.763,20.093,17.683,23.594,30.748
	c3.501,13.065,1.704,26.712-5.059,38.426s-17.683,20.094-30.748,23.594C442.591,408.763,438.163,409.342,433.764,409.342z"/>
<path style="fill:#E7C224;" d="M320.217,256c0-35.409-28.808-64.217-64.217-64.217v128.434
	C291.409,320.217,320.217,291.409,320.217,256z"/>
<g>
	<path style="fill:#528ACF;" d="M306.64,50.64C306.64,22.717,283.923,0,256,0v101.279C283.923,101.279,306.64,78.562,306.64,50.64z"
		/>
	<path style="fill:#528ACF;" d="M256,410.721V512c27.923,0,50.64-22.717,50.64-50.64C306.64,433.438,283.923,410.721,256,410.721z"
		/>
</g>
<g>
</g>
<g>
</g>
<g>
</g>
<g>
</g>
<g>
</g>
<g>
</g>
<g>
</g>
<g>
</g>
<g>
</g>
<g>
</g>
<g>
</g>
<g>
</g>
<g>
</g>
<g>
</g>
<g>
</g>
</svg>
