<?xml version="1.0" encoding="iso-8859-1"?>
<!-- Generator: Adobe Illustrator 19.0.0, SVG Export Plug-In . SVG Version: 6.00 Build 0)  -->
<svg version="1.1" id="Layer_1" xmlns="http://www.w3.org/2000/svg" xmlns:xlink="http://www.w3.org/1999/xlink" x="0px" y="0px"
	 viewBox="0 0 511.996 511.996" style="enable-background:new 0 0 511.996 511.996;" xml:space="preserve">
<g>
	<path style="fill:#444242;" d="M446.998,223.33c-23.586-13.617-49.553-19.478-74.935-18.39
		c14.15-21.709,22.387-47.606,22.387-75.396c0-37.726-14.909-72.99-41.981-99.296l-23.316,23.996
		c20.531,19.951,31.838,46.693,31.838,75.3c0,26.699-10.024,51.099-26.499,69.646c-19.716-20.86-47.626-33.898-78.527-33.898
		c-30.883,0-58.778,13.023-78.492,33.862c-16.456-18.542-26.466-42.926-26.466-69.609c0-28.608,11.308-55.349,31.838-75.3
		l-23.316-23.996c-27.071,26.306-41.981,61.57-41.981,99.296c0,27.789,8.236,53.686,22.387,75.395
		c-25.382-1.088-51.351,4.772-74.935,18.391c-32.671,18.862-55.756,49.405-65,86.002l32.438,8.195
		c7.012-27.755,24.517-50.918,49.292-65.223c22.448-12.96,47.742-16.655,71.433-12.291c-3.418,10.51-5.274,21.72-5.274,33.355
		c0,51.678,36.46,94.992,85.005,105.591c-8.122,22.485-23.897,42.334-46.172,55.195c-24.777,14.304-53.592,17.882-81.131,10.078
		l-9.123,32.19c12.576,3.564,25.348,5.328,38.036,5.328c23.95,0,47.588-6.289,68.945-18.619
		c23.029-13.296,40.787-32.258,52.549-54.115c11.762,21.857,29.52,40.82,52.549,54.115c21.359,12.333,44.994,18.619,68.945,18.619
		c12.687,0,25.462-1.764,38.036-5.328l-9.123-32.19c-27.541,7.806-56.355,4.227-81.131-10.078
		c-22.28-12.863-38.056-32.718-46.177-55.209c48.514-10.622,84.944-53.922,84.944-105.577c0-11.631-1.855-22.836-5.271-33.343
		c23.708-4.383,49.027-0.693,71.495,12.279c24.775,14.304,42.281,37.467,49.292,65.223l32.438-8.195
		C502.756,272.736,479.671,242.193,446.998,223.33z M308.504,220.437c-15.454,8.961-33.39,14.099-52.504,14.099
		c-19.131,0-37.081-5.147-52.545-14.124c13.494-13.381,32.051-21.663,52.511-21.663C276.439,198.75,295.008,207.041,308.504,220.437
		z M181.347,273.368c0-7.715,1.178-15.162,3.361-22.168c16.325,8.92,30.48,22.278,40.443,39.534
		c10.056,17.419,14.533,36.553,13.997,55.32C206.08,338.404,181.347,308.73,181.347,273.368z M330.586,273.368
		c0,35.337-24.699,64.995-57.736,72.67c-0.533-18.763,3.944-37.891,13.998-55.305c9.95-17.235,24.084-30.583,40.386-39.502
		C329.412,258.229,330.586,265.664,330.586,273.368z"/>
	<path style="fill:#444242;" d="M203.455,220.413c13.494-13.381,32.051-21.663,52.511-21.663c0.004,0,0.009,0,0.013,0v-33.458
		c-0.004,0-0.009,0-0.013,0c-30.883,0-58.778,13.023-78.492,33.862c-16.456-18.542-26.466-42.926-26.466-69.609
		c0-28.608,11.308-55.349,31.838-75.3L159.53,30.249c-27.071,26.306-41.981,61.57-41.981,99.296
		c0,27.789,8.236,53.686,22.387,75.395c-25.382-1.088-51.351,4.772-74.935,18.391C32.329,242.193,9.244,272.736,0,309.333
		l32.438,8.195c7.012-27.755,24.517-50.918,49.292-65.223c22.448-12.96,47.742-16.655,71.433-12.291
		c-3.418,10.51-5.274,21.72-5.274,33.355c0,51.678,36.46,94.992,85.005,105.591c-8.122,22.485-23.897,42.334-46.172,55.195
		c-24.777,14.304-53.592,17.882-81.131,10.078l-9.123,32.19c12.576,3.564,25.348,5.328,38.036,5.328
		c23.95,0,47.588-6.289,68.945-18.619c23.017-13.288,40.767-32.237,52.529-54.079V234.536
		C236.857,234.532,218.913,229.386,203.455,220.413z M181.347,273.368c0-7.715,1.178-15.162,3.361-22.168
		c16.325,8.92,30.48,22.278,40.443,39.534c10.056,17.419,14.533,36.553,13.997,55.32C206.08,338.404,181.347,308.73,181.347,273.368
		z"/>
</g>
<path style="fill:#3A3839;" d="M308.549,463.13c21.359,12.333,44.994,18.619,68.945,18.619c12.687,0,25.462-1.764,38.036-5.328
	l-9.123-32.19c-27.541,7.806-56.355,4.227-81.131-10.078c-22.28-12.863-38.056-32.718-46.177-55.209
	c48.514-10.622,84.943-53.922,84.943-105.577c0-11.631-1.855-22.836-5.271-33.343c23.708-4.383,49.027-0.693,71.495,12.279
	c24.775,14.304,42.281,37.467,49.292,65.223l32.438-8.195c-9.244-36.596-32.329-67.14-65.002-86.003
	c-23.586-13.617-49.553-19.478-74.935-18.39c14.15-21.709,22.387-47.606,22.387-75.396c0-37.726-14.909-72.99-41.981-99.296
	L329.15,54.243c20.531,19.951,31.838,46.693,31.838,75.3c0,26.699-10.024,51.099-26.499,69.646
	c-19.713-20.858-47.618-33.895-78.513-33.898v33.458c20.467,0.003,39.032,8.294,52.524,21.687
	c-15.454,8.961-33.39,14.099-52.504,14.099c-0.007,0-0.013,0-0.02,0v174.516c0.007-0.012,0.013-0.025,0.02-0.037
	C267.762,430.872,285.52,449.834,308.549,463.13z M286.848,290.734c9.95-17.235,24.084-30.583,40.386-39.502
	c2.178,6.997,3.352,14.433,3.352,22.138c0,35.337-24.699,64.995-57.735,72.67C272.317,327.276,276.794,308.148,286.848,290.734z"/>
<g>
</g>
<g>
</g>
<g>
</g>
<g>
</g>
<g>
</g>
<g>
</g>
<g>
</g>
<g>
</g>
<g>
</g>
<g>
</g>
<g>
</g>
<g>
</g>
<g>
</g>
<g>
</g>
<g>
</g>
</svg>
