<?xml version="1.0" encoding="iso-8859-1"?>
<!-- Generator: Adobe Illustrator 19.0.0, SVG Export Plug-In . SVG Version: 6.00 Build 0)  -->
<svg version="1.1" id="Layer_1" xmlns="http://www.w3.org/2000/svg" xmlns:xlink="http://www.w3.org/1999/xlink" x="0px" y="0px"
	 viewBox="0 0 512 512" style="enable-background:new 0 0 512 512;" xml:space="preserve">
<path style="fill:#F9D026;" d="M298.986,461.98c40.791,0,49.672-20.567,50.204-36.016c0.56-16.26-5.02-37.183-5.02-37.183
	l-15.599,15.388l-29.584-35.666l-29.584,35.666l-15.599-15.388c0,0-5.581,20.922-5.02,37.183
	C249.314,441.414,258.196,461.98,298.986,461.98"/>
<path style="fill:#E7C224;" d="M298.986,461.98c40.791,0,49.672-20.567,50.204-36.016c0.56-16.26-5.02-37.183-5.02-37.183
	l-15.599,15.388l-29.584-35.666C298.986,368.503,298.986,430.396,298.986,461.98"/>
<rect x="243.032" y="449.12" style="fill:#61A2EF;" width="111.13" height="36.92"/>
<rect x="299.132" y="449.12" style="fill:#528ACF;" width="55.04" height="36.92"/>
<g>
	<polygon style="fill:#444242;" points="446.696,512 76.207,512 76.207,0 109.598,0 109.598,478.609 446.696,478.609 	"/>
	<rect x="92.902" y="96.46" style="fill:#444242;" width="205.7" height="22.261"/>
</g>
<circle style="fill:#F9D026;" cx="92.902" cy="107.59" r="27.598"/>
<circle style="fill:#FFAC12;" cx="92.902" cy="107.59" r="14.897"/>
<g>
	<path style="fill:#EDEEF0;" d="M270.713,36.286h-16.818v79.297c-12.92,7.385-23.866,17.838-31.863,30.476
		c-9.196,14.535-14.058,31.349-14.058,48.623c0,50.216,40.853,91.069,91.069,91.069s91.069-40.853,91.069-91.069
		c0-17.274-4.861-34.088-14.058-48.623c-7.997-12.639-18.943-23.091-31.863-30.476V36.286h-16.818H270.713z"/>
	<path style="fill:#EDEEF0;" d="M376.057,146.059c-7.997-12.639-18.943-23.091-31.863-30.476V36.286h-16.818h-28.331v249.465
		c50.216,0,91.069-40.853,91.069-91.069C390.113,177.408,385.252,160.593,376.057,146.059z"/>
</g>
<path style="fill:#F74D37;" d="M227.546,174.628c-1.814,6.483-2.754,13.223-2.754,20.054c0,40.942,33.309,74.251,74.251,74.251
	s74.251-33.309,74.251-74.251c0-6.832-0.939-13.571-2.754-20.054H227.546z"/>
<path style="fill:#B03727;" d="M370.542,174.628h-71.497v94.306c40.942,0,74.251-33.309,74.251-74.251
	C373.296,187.851,372.357,181.111,370.542,174.628z"/>
<rect x="254.062" y="49.899" style="fill:#D8D9DD;" width="90.13" height="17.696"/>
<rect x="299.132" y="49.898" style="fill:#B7B9C0;" width="45.06" height="17.696"/>
<rect x="241.852" y="27.882" style="fill:#EDEEF0;" width="114.24" height="27.14"/>
<rect x="299.132" y="27.882" style="fill:#DCDEE2;" width="56.977" height="27.14"/>
<g>
	<circle style="fill:#FFFFFF;" cx="299.132" cy="197.47" r="13.342"/>
	<circle style="fill:#FFFFFF;" cx="259.092" cy="222.05" r="9.434"/>
</g>
<g>
	<circle style="fill:#EDEEF0;" cx="336.982" cy="237.21" r="9.434"/>
	<path style="fill:#EDEEF0;" d="M312.471,197.462c0,7.368-5.974,13.342-13.342,13.342c0-7.618,0-13.342,0-26.684
		C306.497,184.12,312.471,190.093,312.471,197.462z"/>
</g>
<rect x="236.582" y="86.83" style="fill:#444242;" width="124.05" height="40.727"/>
<rect x="298.592" y="86.83" style="fill:#3A3839;" width="62.02" height="40.727"/>
<g>
</g>
<g>
</g>
<g>
</g>
<g>
</g>
<g>
</g>
<g>
</g>
<g>
</g>
<g>
</g>
<g>
</g>
<g>
</g>
<g>
</g>
<g>
</g>
<g>
</g>
<g>
</g>
<g>
</g>
</svg>
