<?xml version="1.0" encoding="iso-8859-1"?>
<!-- Generator: Adobe Illustrator 19.0.0, SVG Export Plug-In . SVG Version: 6.00 Build 0)  -->
<svg version="1.1" id="Layer_1" xmlns="http://www.w3.org/2000/svg" xmlns:xlink="http://www.w3.org/1999/xlink" x="0px" y="0px"
	 viewBox="0 0 512.001 512.001" style="enable-background:new 0 0 512.001 512.001;" xml:space="preserve">
<path style="fill:#EDEEF0;" d="M300.279,152.281c-3.764,0-7.49,0.168-11.173,0.481v33.927c3.666-0.422,7.394-0.646,11.173-0.646
	c53.455,0,96.788,43.333,96.788,96.788s-43.26,97.263-96.715,97.263c-3.78,0-7.549-0.105-11.247-0.105v33.391
	c3.711,0,7.408,0,11.173,0c72.101,0,130.551-58.449,130.551-130.551C430.829,210.73,372.38,152.281,300.279,152.281z"/>
<path style="fill:#DCDEE2;" d="M300.279,169.042c-3.77,0-7.496,0.188-11.173,0.547v17.101c3.666-0.422,7.394-0.646,11.173-0.646
	c53.455,0,96.788,43.333,96.788,96.788s-43.26,97.263-96.715,97.263c-3.78,0-7.575-0.105-11.247-0.105v16.47
	c3.716,0,7.403,0.161,11.173,0.161c62.845,0,113.79-50.945,113.79-113.79S363.122,169.042,300.279,169.042z"/>
<rect x="137.342" y="271.48" width="151.76" height="64.7"/>
<rect x="155.002" style="fill:#61A2EF;" width="116.44" height="83.957"/>
<rect x="213.232" style="fill:#528ACF;" width="58.22" height="83.957"/>
<rect x="137.342" y="70.43" style="fill:#EDEEF0;" width="151.76" height="272.56"/>
<rect x="213.232" y="70.43" style="fill:#DCDEE2;" width="75.876" height="272.56"/>
<rect x="81.172" y="379.99" style="fill:#444242;" width="207.93" height="33.391"/>
<rect x="213.232" y="379.99" style="fill:#3A3839;" width="75.876" height="33.391"/>
<circle style="fill:#F9D026;" cx="272.412" cy="169.68" r="44.26"/>
<circle style="fill:#FFAC12;" cx="272.412" cy="169.68" r="13.379"/>
<rect x="196.532" y="407.27" style="fill:#444242;" width="33.391" height="84.06"/>
<rect x="213.232" y="407.27" style="fill:#3A3839;" width="16.696" height="84.06"/>
<rect x="118.452" y="478.61" style="fill:#EDEEF0;" width="189.56" height="33.391"/>
<rect x="213.232" y="478.61" style="fill:#DCDEE2;" width="94.78" height="33.391"/>
<rect x="137.342" y="238.09" style="fill:#F74D37;" width="151.76" height="33.391"/>
<rect x="213.232" y="238.09" style="fill:#B03727;" width="75.876" height="33.391"/>
<g>
</g>
<g>
</g>
<g>
</g>
<g>
</g>
<g>
</g>
<g>
</g>
<g>
</g>
<g>
</g>
<g>
</g>
<g>
</g>
<g>
</g>
<g>
</g>
<g>
</g>
<g>
</g>
<g>
</g>
</svg>
