<?xml version="1.0" encoding="iso-8859-1"?>
<!-- Generator: Adobe Illustrator 19.0.0, SVG Export Plug-In . SVG Version: 6.00 Build 0)  -->
<svg version="1.1" id="Layer_1" xmlns="http://www.w3.org/2000/svg" xmlns:xlink="http://www.w3.org/1999/xlink" x="0px" y="0px"
	 viewBox="0 0 512 512" style="enable-background:new 0 0 512 512;" xml:space="preserve">
<rect x="334.063" y="115.669" transform="matrix(0.7071 0.7071 -0.7071 0.7071 243.3884 -211.1647)" style="fill:#DCDEE2;" width="85.059" height="145.089"/>
<rect x="379.463" y="134.451" transform="matrix(0.7071 0.7071 -0.7071 0.7071 224.5727 -256.569)" style="fill:#B7B9C0;" width="85.059" height="16.695"/>
<rect x="415.762" y="149.496" transform="matrix(0.7071 0.7071 -0.7071 0.7071 239.614 -262.7932)" style="fill:#9B9DA6;" width="42.529" height="16.695"/>
<rect x="379.527" y="118.363" transform="matrix(0.7071 0.7071 -0.7071 0.7071 219.7033 -268.0624)" style="fill:#DCDEE2;" width="107.809" height="25.622"/>
<path style="fill:#EDEEF0;" d="M155.958,16.696h-33.391v157.441c-25.651,14.662-47.384,35.415-63.262,60.509
	c-18.259,28.859-27.911,62.241-27.911,96.54C31.394,430.887,112.507,512,212.209,512s180.815-81.113,180.815-180.815
	c0-34.298-9.651-67.682-27.911-96.54c-15.878-25.094-37.611-45.846-63.262-60.509V16.696H268.46H155.958z"/>
<path style="fill:#DCDEE2;" d="M365.113,234.645c-15.878-25.094-37.611-45.846-63.262-60.509V16.696H268.46h-56.251V512
	c99.702,0,180.815-81.113,180.815-180.815C393.023,296.887,383.372,263.504,365.113,234.645z"/>
<path style="fill:#F9D026;" d="M70.252,291.368c-3.602,12.871-5.467,26.252-5.467,39.817c0,81.29,66.134,147.424,147.424,147.424
	s147.424-66.134,147.424-147.424c0-13.565-1.865-26.946-5.467-39.817L70.252,291.368L70.252,291.368z"/>
<path style="fill:#E7C224;" d="M354.165,291.368H212.209v187.241c81.29,0,147.424-66.134,147.424-147.424
	C359.631,317.621,357.767,304.24,354.165,291.368z"/>
<rect x="122.9" y="43.72" style="fill:#D8D9DD;" width="178.96" height="35.14"/>
<rect x="212.38" y="43.72" style="fill:#B7B9C0;" width="89.48" height="35.14"/>
<rect x="98.67" style="fill:#EDEEF0;" width="226.83" height="53.894"/>
<rect x="212.38" style="fill:#DCDEE2;" width="113.13" height="53.894"/>
<g>
	<circle style="fill:#FFFFFF;" cx="212.38" cy="336.71" r="26.489"/>
	<circle style="fill:#FFFFFF;" cx="132.9" cy="385.51" r="18.731"/>
</g>
<g>
	<circle style="fill:#EDEEF0;" cx="287.53" cy="415.63" r="18.731"/>
	<path style="fill:#EDEEF0;" d="M238.866,336.703c0,14.63-11.859,26.489-26.489,26.489c0-15.125,0-26.489,0-52.98
		C227.005,310.213,238.866,322.074,238.866,336.703z"/>
</g>
<g>
</g>
<g>
</g>
<g>
</g>
<g>
</g>
<g>
</g>
<g>
</g>
<g>
</g>
<g>
</g>
<g>
</g>
<g>
</g>
<g>
</g>
<g>
</g>
<g>
</g>
<g>
</g>
<g>
</g>
</svg>
