<?xml version="1.0" encoding="iso-8859-1"?>
<!-- Generator: Adobe Illustrator 19.0.0, SVG Export Plug-In . SVG Version: 6.00 Build 0)  -->
<svg version="1.1" id="Layer_1" xmlns="http://www.w3.org/2000/svg" xmlns:xlink="http://www.w3.org/1999/xlink" x="0px" y="0px"
	 viewBox="0 0 512 512" style="enable-background:new 0 0 512 512;" xml:space="preserve">
<rect x="131.6" style="fill:#EDEEF0;" width="248.8" height="512"/>
<rect x="255.99" style="fill:#DCDEE2;" width="124.39" height="512"/>
<path style="fill:#61A2EF;" d="M270.881,76.36c0-9.598-7.809-17.406-17.407-17.406c-9.598,0-17.406,7.809-17.406,17.406v159.666
	h34.813V76.36z"/>
<path style="fill:#528ACF;" d="M270.881,76.36c0-9.598-7.808-17.406-17.406-17.406v177.072h17.406V76.36z"/>
<path style="fill:#F74D37;" d="M277.539,372.478l-6.657-4.379v-146.85h-34.813v146.85l-6.657,4.379
	c-12.631,8.308-20.038,22.276-19.812,37.365c0.349,23.267,19.553,42.643,42.809,43.191c11.912,0.287,23.201-4.149,31.725-12.474
	c8.527-8.328,13.223-19.477,13.223-31.395C297.356,394.354,289.948,380.639,277.539,372.478z"/>
<path style="fill:#C43D2C;" d="M297.356,409.164c0-14.81-7.408-28.524-19.817-36.686l-6.657-4.379v-146.85h-17.406v231.782
	c11.517,0.004,22.39-4.399,30.658-12.474C292.66,432.229,297.356,421.08,297.356,409.164z"/>
<g>
	<rect x="154.56" y="359.1" style="fill:#444242;" width="50.37" height="11.13"/>
	<rect x="154.56" y="327.75" style="fill:#444242;" width="69.31" height="11.13"/>
	<rect x="154.56" y="296.39" style="fill:#444242;" width="50.37" height="11.13"/>
	<rect x="154.56" y="265.04" style="fill:#444242;" width="69.31" height="11.13"/>
	<rect x="154.56" y="233.68" style="fill:#444242;" width="50.37" height="11.13"/>
	<rect x="154.56" y="202.33" style="fill:#444242;" width="69.31" height="11.13"/>
	<rect x="154.56" y="170.97" style="fill:#444242;" width="50.37" height="11.13"/>
	<rect x="154.56" y="139.62" style="fill:#444242;" width="69.31" height="11.13"/>
	<rect x="154.56" y="108.27" style="fill:#444242;" width="50.37" height="11.13"/>
	<rect x="154.56" y="76.911" style="fill:#444242;" width="69.31" height="11.13"/>
</g>
<g>
</g>
<g>
</g>
<g>
</g>
<g>
</g>
<g>
</g>
<g>
</g>
<g>
</g>
<g>
</g>
<g>
</g>
<g>
</g>
<g>
</g>
<g>
</g>
<g>
</g>
<g>
</g>
<g>
</g>
</svg>
