<?xml version="1.0" encoding="iso-8859-1"?>
<!-- Generator: Adobe Illustrator 19.0.0, SVG Export Plug-In . SVG Version: 6.00 Build 0)  -->
<svg version="1.1" id="Layer_1" xmlns="http://www.w3.org/2000/svg" xmlns:xlink="http://www.w3.org/1999/xlink" x="0px" y="0px"
	 viewBox="0 0 512 512" style="enable-background:new 0 0 512 512;" xml:space="preserve">
<path style="fill:#F7B93F;" d="M256,0c0,0-45.011,47.439-45.011,90.022c0,24.858,20.153,45.011,45.011,45.011
	s45.011-20.153,45.011-45.011C301.011,47.439,256,0,256,0z"/>
<path style="fill:#C4F5FF;" d="M182.857,495.121c-4.662,0-8.44,3.779-8.44,8.44s3.778,8.44,8.44,8.44H256v-16.879H182.857z"/>
<g>
	<path style="fill:#82C8DB;" d="M329.143,495.121H256V512h73.143c4.662,0,8.44-3.779,8.44-8.44S333.805,495.121,329.143,495.121z"/>
	<path style="fill:#82C8DB;" d="M292.571,212.618v-60.706H256V512c83.898,0,151.912-68.014,151.912-151.912
		C407.912,288.798,358.803,228.989,292.571,212.618z"/>
</g>
<g>
	<rect x="239.121" y="152.103" style="fill:#A3DDE9;" width="33.758" height="96.774"/>
	<path style="fill:#A3DDE9;" d="M256,208.176v-56.264h-36.571v60.706c-66.231,16.37-115.341,76.18-115.341,147.469
		C104.088,443.986,172.102,512,256,512c65.255,0,118.154-68.014,118.154-151.912S321.255,208.176,256,208.176z"/>
</g>
<path style="fill:#C4F5FF;" d="M352.948,315.077h-30.615L256,466.989c58.945,0,106.901-47.956,106.901-106.901
	C362.901,344.017,359.329,328.766,352.948,315.077z"/>
<path style="fill:#E2FAFF;" d="M322.333,315.077H159.052c-6.38,13.689-9.953,28.94-9.953,45.011
	c0,58.945,47.956,106.901,106.901,106.901c40.331,0,73.143-47.956,73.143-106.901C329.143,344.017,326.699,328.766,322.333,315.077z
	"/>
<path style="fill:#084B63;" d="M247.56,151.912v163.165c0,4.661,3.778,8.44,8.44,8.44c4.662,0,8.44-3.779,8.44-8.44V151.912H247.56z
	"/>
<path style="fill:#941108;" d="M264.44,90.022c0-4.661-3.778-8.44-8.44-8.44c-4.662,0-8.44,3.779-8.44,8.44v61.89h16.879V90.022z"/>
<path style="fill:#FFFFFF;" d="M247.56,315.077v118.154c0,4.661,3.778,8.44,8.44,8.44c4.662,0,8.44-3.779,8.44-8.44V315.077H247.56z
	"/>
<g>
	<path style="fill:#62B3CD;" d="M295.385,160.352h-78.769c-4.662,0-8.44-3.779-8.44-8.44s3.778-8.44,8.44-8.44h78.769
		c4.662,0,8.44,3.779,8.44,8.44S300.047,160.352,295.385,160.352z"/>
	<path style="fill:#62B3CD;" d="M295.385,188.484h-78.769c-4.662,0-8.44-3.779-8.44-8.44s3.778-8.44,8.44-8.44h78.769
		c4.662,0,8.44,3.779,8.44,8.44S300.047,188.484,295.385,188.484z"/>
</g>
<g>
</g>
<g>
</g>
<g>
</g>
<g>
</g>
<g>
</g>
<g>
</g>
<g>
</g>
<g>
</g>
<g>
</g>
<g>
</g>
<g>
</g>
<g>
</g>
<g>
</g>
<g>
</g>
<g>
</g>
</svg>
