<?xml version="1.0" encoding="iso-8859-1"?>
<!-- Generator: Adobe Illustrator 19.0.0, SVG Export Plug-In . SVG Version: 6.00 Build 0)  -->
<svg version="1.1" id="Layer_1" xmlns="http://www.w3.org/2000/svg" xmlns:xlink="http://www.w3.org/1999/xlink" x="0px" y="0px"
	 viewBox="0 0 512 512" style="enable-background:new 0 0 512 512;" xml:space="preserve">
<g>
	<polygon style="fill:#62B3CD;" points="302.913,0 256,205.419 209.087,0 	"/>
	<path style="fill:#62B3CD;" d="M368.854,137.284l5.616,163.622l-9.845,40.45l12.622,40.45l3.94,114.789
		c0,0-12.513,3.961-34.839,7.877l-45.011-389.694L368.854,137.284z"/>
</g>
<path style="fill:#82C8DB;" d="M228.993,222.298L256,512c37.719,0,68.664-3.736,90.348-7.528V137.284h22.505l46.519,49.017
	l22.505-66.087l-70.881-75.731l-64.366-28.83L228.993,222.298z"/>
<polygon style="fill:#419EBE;" points="415.373,84.148 404.12,97.708 415.373,120.213 443.088,296.915 476.846,296.915 
	476.846,149.819 "/>
<path style="fill:#62B3CD;" d="M415.373,84.148v36.065l-70.881-75.731c-2.059-2.194-4.917-4.389-8.102-6.324l-10.115-7.802
	l13.153-1.223l15.878,2.959c7.449,1.294,17.768,6.875,22.944,12.389L415.373,84.148z"/>
<polygon style="fill:#C4F5FF;" points="302.913,0 256,135.708 244.747,170.564 256,205.419 325.148,104.245 308.325,69.362 
	325.598,69.362 339.428,29.133 "/>
<path style="fill:#A3DDE9;" d="M209.369,15.653l-36.796,13.481l-15.878,2.959c-7.449,1.294-17.768,6.875-22.944,12.389
	L96.627,84.148l-22.505,36.065L96.627,186.3l46.519-49.017l-5.616,163.63l9.82,40.449l-12.597,40.449l-3.94,114.784
	c0,0,12.513,3.961,34.839,7.877C187.336,508.264,218.281,512,256,512V205.419L209.369,15.653z"/>
<polygon style="fill:#E2FAFF;" points="172.662,29.122 209.087,0 256,135.708 256,205.419 186.852,104.245 203.675,69.362 
	186.402,69.362 "/>
<polygon style="fill:#82C8DB;" points="96.627,84.148 35.154,149.819 35.154,296.915 96.627,296.915 "/>
<polygon style="fill:#62B3CD;" points="443.088,149.819 443.088,296.915 415.373,296.915 415.373,186.3 415.373,120.213 "/>
<path style="fill:#E2FAFF;" d="M137.53,300.912l-2.778,80.899h25.543c12.378,0,22.505-10.127,22.505-22.505v-58.394H137.53z"/>
<path style="fill:#C4F5FF;" d="M374.473,300.912h-45.27v58.394c0,12.378,10.127,22.505,22.505,22.505h25.543L374.473,300.912z"/>
<g>
	<circle style="fill:#FFFFFF;" cx="230.681" cy="428.752" r="8.44"/>
	<circle style="fill:#FFFFFF;" cx="230.681" cy="341.363" r="8.44"/>
	<circle style="fill:#FFFFFF;" cx="230.681" cy="253.975" r="8.44"/>
</g>
<g>
</g>
<g>
</g>
<g>
</g>
<g>
</g>
<g>
</g>
<g>
</g>
<g>
</g>
<g>
</g>
<g>
</g>
<g>
</g>
<g>
</g>
<g>
</g>
<g>
</g>
<g>
</g>
<g>
</g>
</svg>
