<?xml version="1.0" encoding="iso-8859-1"?>
<!-- Generator: Adobe Illustrator 19.0.0, SVG Export Plug-In . SVG Version: 6.00 Build 0)  -->
<svg version="1.1" id="Layer_1" xmlns="http://www.w3.org/2000/svg" xmlns:xlink="http://www.w3.org/1999/xlink" x="0px" y="0px"
	 viewBox="0 0 512 512" style="enable-background:new 0 0 512 512;" xml:space="preserve">
<path style="fill:#82C8DB;" d="M289.211,80.401V8.303H256v376.389l14.749-33.211c27.729-42.596,84.884-135.445,84.884-177.124
	C355.632,130.978,327.906,94.08,289.211,80.401z"/>
<path style="fill:#A3DDE9;" d="M267.07,76.109V8.303h-44.281v72.098c-38.695,13.678-66.422,50.576-66.422,93.956
	c0,41.68,57.154,134.528,84.884,177.124L256,384.692l9.833-33.211c18.486-42.596,56.589-135.445,56.589-177.124
	C322.422,124.99,298.483,84.016,267.07,76.109z"/>
<polygon style="fill:#82C8DB;" points="239.395,384.692 239.395,478.789 272.605,512 272.605,384.692 "/>
<g>
	<path style="fill:#146A8A;" d="M336.259,381.924H197.881c-4.585,0-8.303-3.717-8.303-8.303c0-4.585,3.717-8.303,8.303-8.303
		h138.378c4.585,0,8.303,3.717,8.303,8.303C344.562,378.207,340.845,381.924,336.259,381.924z"/>
	<path style="fill:#146A8A;" d="M278.141,174.357L256,291.797c9.448-15.56,19.408-32.748,28.401-49.839
		c26.644-50.643,26.951-66.932,26.951-67.601H278.141z"/>
</g>
<path style="fill:#2089B0;" d="M200.649,174.357c0,0.669,0.307,16.957,26.951,67.601c8.992,17.091,18.952,34.279,28.401,49.839
	c3.779-15.56,7.764-32.748,11.36-49.839c10.657-50.643,10.78-66.932,10.78-67.601H200.649z"/>
<g>
	<rect x="211.719" y="351.481" style="fill:#06384A;" width="88.562" height="44.281"/>
	<path style="fill:#06384A;" d="M325.189,415.135c-4.585,0-8.303-3.717-8.303-8.303v-66.422c0-4.585,3.717-8.303,8.303-8.303
		c4.585,0,8.303,3.717,8.303,8.303v66.422C333.492,411.418,329.775,415.135,325.189,415.135z"/>
</g>
<path style="fill:#62B3CD;" d="M291.978,16.605h-71.957c-4.585,0-8.303-3.717-8.303-8.303S215.436,0,220.022,0h71.957
	c4.585,0,8.303,3.717,8.303,8.303S296.564,16.605,291.978,16.605z"/>
<g>
</g>
<g>
</g>
<g>
</g>
<g>
</g>
<g>
</g>
<g>
</g>
<g>
</g>
<g>
</g>
<g>
</g>
<g>
</g>
<g>
</g>
<g>
</g>
<g>
</g>
<g>
</g>
<g>
</g>
</svg>
