<?xml version="1.0" encoding="iso-8859-1"?>
<!-- Generator: Adobe Illustrator 19.0.0, SVG Export Plug-In . SVG Version: 6.00 Build 0)  -->
<svg version="1.1" id="Layer_1" xmlns="http://www.w3.org/2000/svg" xmlns:xlink="http://www.w3.org/1999/xlink" x="0px" y="0px"
	 viewBox="0 0 512 512" style="enable-background:new 0 0 512 512;" xml:space="preserve">
<polygon style="fill:#06384A;" points="272.879,0 261.626,101.275 306.637,101.275 306.637,0 "/>
<rect x="205.363" style="fill:#084B63;" width="67.516" height="101.275"/>
<path style="fill:#4FC297;" d="M306.637,78.769h-33.758L312.264,512h33.758c18.567,0,33.758-15.191,33.758-33.758V191.748
	C379.78,141.427,349.751,98.123,306.637,78.769z"/>
<path style="fill:#6DDEB4;" d="M346.022,191.748c0-50.32-30.029-93.625-73.143-112.979h-67.516
	c-43.114,19.354-73.143,62.658-73.143,112.979v286.494c0,18.567,15.191,33.758,33.758,33.758h146.286
	c18.567,0,33.758-15.191,33.758-33.758v-81.582l-22.505-101.275l22.505-101.275V191.748z"/>
<polygon style="fill:#C7FFEA;" points="312.264,194.11 289.713,295.385 312.183,396.659 346.022,396.659 346.022,194.11 "/>
<polygon style="fill:#FFFFFF;" points="165.978,194.11 165.978,396.659 314.342,396.659 312.264,194.11 "/>
<g>
</g>
<g>
</g>
<g>
</g>
<g>
</g>
<g>
</g>
<g>
</g>
<g>
</g>
<g>
</g>
<g>
</g>
<g>
</g>
<g>
</g>
<g>
</g>
<g>
</g>
<g>
</g>
<g>
</g>
</svg>
