<?xml version="1.0" encoding="iso-8859-1"?>
<!-- Generator: Adobe Illustrator 19.0.0, SVG Export Plug-In . SVG Version: 6.00 Build 0)  -->
<svg version="1.1" id="Layer_1" xmlns="http://www.w3.org/2000/svg" xmlns:xlink="http://www.w3.org/1999/xlink" x="0px" y="0px"
	 viewBox="0 0 512 512" style="enable-background:new 0 0 512 512;" xml:space="preserve">
<rect x="287.141" y="8.303" style="fill:#82C8DB;" width="49.816" height="189.778"/>
<polygon style="fill:#A3DDE9;" points="127.628,32.876 61.149,60.413 143.22,258.549 197.954,202.658 "/>
<path style="fill:#82C8DB;" d="M287.145,157.751V512c97.824,0,177.124-79.301,177.124-177.124S384.969,157.751,287.145,157.751z"/>
<path style="fill:#A3DDE9;" d="M287.145,157.751c-97.824,0-177.124,79.301-177.124,177.124S189.321,512,287.145,512
	c79.481,0,143.914-79.301,143.914-177.124S366.626,157.751,287.145,157.751z"/>
<path style="fill:#62B3CD;" d="M140.412,27.58c-1.755-4.235-6.611-6.247-10.848-4.493L52.858,54.861
	c-4.237,1.755-6.248,6.612-4.493,10.848s6.611,6.247,10.848,4.493l76.707-31.774C140.155,36.674,142.167,31.817,140.412,27.58z"/>
<rect x="237.324" y="8.303" style="fill:#A3DDE9;" width="66.422" height="189.778"/>
<path style="fill:#146A8A;" d="M412.394,290.595h-31.312l-93.937,177.124c73.25,0,132.843-59.593,132.843-132.843
	C419.988,319.355,417.309,304.45,412.394,290.595z"/>
<path style="fill:#2089B0;" d="M381.082,290.595H161.896c-4.915,13.856-7.594,28.761-7.594,44.281
	c0,73.25,59.593,132.843,132.843,132.843c54.937,0,99.632-59.593,99.632-132.843C386.777,319.355,384.768,304.45,381.082,290.595z"
	/>
<path style="fill:#62B3CD;" d="M339.729,16.605H234.561c-4.585,0-8.303-3.717-8.303-8.303S229.976,0,234.561,0h105.168
	c4.585,0,8.303,3.717,8.303,8.303S344.314,16.605,339.729,16.605z"/>
<g>
</g>
<g>
</g>
<g>
</g>
<g>
</g>
<g>
</g>
<g>
</g>
<g>
</g>
<g>
</g>
<g>
</g>
<g>
</g>
<g>
</g>
<g>
</g>
<g>
</g>
<g>
</g>
<g>
</g>
</svg>
