<?xml version="1.0" encoding="iso-8859-1"?>
<!-- Generator: Adobe Illustrator 19.0.0, SVG Export Plug-In . SVG Version: 6.00 Build 0)  -->
<svg version="1.1" id="Layer_1" xmlns="http://www.w3.org/2000/svg" xmlns:xlink="http://www.w3.org/1999/xlink" x="0px" y="0px"
	 viewBox="0 0 512 512" style="enable-background:new 0 0 512 512;" xml:space="preserve">
<polygon style="fill:#EA5A20;" points="194.11,135.033 194.11,345.924 227.868,345.924 216.615,135.033 "/>
<rect x="216.615" y="135.033" style="fill:#D93722;" width="22.505" height="210.888"/>
<polygon style="fill:#BD0A13;" points="351.648,351.55 340.396,368.43 351.648,385.309 385.407,385.309 396.659,368.43 
	385.407,351.55 "/>
<rect x="239.121" y="351.547" style="fill:#D93722;" width="112.527" height="33.758"/>
<rect x="385.407" y="351.547" style="fill:#941108;" width="33.758" height="33.758"/>
<polygon style="fill:#EA5A20;" points="261.626,323.419 233.495,323.419 222.242,435.946 261.626,435.946 "/>
<rect x="171.604" y="323.415" style="fill:#F77A20;" width="61.89" height="112.527"/>
<polygon style="fill:#941108;" points="295.385,455.736 306.637,512 340.396,512 340.396,466.989 "/>
<g>
	<polygon style="fill:#BD0A13;" points="126.593,455.736 126.593,458.549 92.835,466.989 92.835,512 306.637,512 306.637,455.736 	
		"/>
	<path style="fill:#BD0A13;" d="M261.626,413.441h-28.132l73.143,53.548h33.758C320.533,441.801,293.146,422.822,261.626,413.441z"
		/>
</g>
<path style="fill:#D93722;" d="M233.495,413.441h-61.89c-31.52,9.383-58.907,28.361-78.769,53.548h213.802
	C288.194,441.801,262.763,422.822,233.495,413.441z"/>
<path style="fill:#F77A20;" d="M241.934,286.847h-50.637c-4.661,0-8.44-3.779-8.44-8.44s3.779-8.44,8.44-8.44h50.637
	c4.661,0,8.44,3.779,8.44,8.44S246.595,286.847,241.934,286.847z"/>
<path style="fill:#F7B93F;" d="M250.374,67.516c0,18.645-15.114,33.758-33.758,33.758s-33.758-15.114-33.758-33.758
	C182.857,35.58,216.615,0,216.615,0S250.374,35.58,250.374,67.516z"/>
<g>
</g>
<g>
</g>
<g>
</g>
<g>
</g>
<g>
</g>
<g>
</g>
<g>
</g>
<g>
</g>
<g>
</g>
<g>
</g>
<g>
</g>
<g>
</g>
<g>
</g>
<g>
</g>
<g>
</g>
</svg>
