<?xml version="1.0" encoding="iso-8859-1"?>
<!-- Generator: Adobe Illustrator 19.0.0, SVG Export Plug-In . SVG Version: 6.00 Build 0)  -->
<svg version="1.1" id="Layer_1" xmlns="http://www.w3.org/2000/svg" xmlns:xlink="http://www.w3.org/1999/xlink" x="0px" y="0px"
	 viewBox="0 0 512 512" style="enable-background:new 0 0 512 512;" xml:space="preserve">
<path style="fill:#E99398;" d="M311.04,46.392h-25.6v79.36h38.4v-66.56C323.84,52.152,318.08,46.392,311.04,46.392z"/>
<path style="fill:#F0AEB0;" d="M285.44,46.392h-84.48c-7.04,0-12.8,5.76-12.8,12.8v66.56h110.08v-66.56
	C298.24,52.152,292.48,46.392,285.44,46.392z"/>
<path style="fill:#E99398;" d="M150.4,446.408c-5.303,0-9.6,4.298-9.6,9.6s4.297,9.6,9.6,9.6H256v-19.2H150.4z"/>
<path style="fill:#E1777F;" d="M361.6,446.408H256v19.2h105.6c5.303,0,9.6-4.298,9.6-9.6S366.903,446.408,361.6,446.408z"/>
<path style="fill:#E99398;" d="M473.6,167.368L256,465.608c141.385,0,256-114.615,256-256v-38.4L473.6,167.368z"/>
<g>
	<path style="fill:#F0AEB0;" d="M256,145.608l-256,25.6v38.4c0,141.385,114.615,256,256,256c120.177,0,217.6-114.615,217.6-256
		v-42.24L256,145.608z"/>
	<path style="fill:#F0AEB0;" d="M460.8,100.808h-38.4l51.2,70.4H512v-25.6C512,120.968,488.96,100.808,460.8,100.808z"/>
</g>
<path style="fill:#F7CAC9;" d="M422.4,100.808H51.2c-28.16,0-51.2,20.16-51.2,44.8v25.6h473.6v-25.6
	C473.6,120.968,450.56,100.808,422.4,100.808z"/>
<g>
</g>
<g>
</g>
<g>
</g>
<g>
</g>
<g>
</g>
<g>
</g>
<g>
</g>
<g>
</g>
<g>
</g>
<g>
</g>
<g>
</g>
<g>
</g>
<g>
</g>
<g>
</g>
<g>
</g>
</svg>
