<?xml version="1.0" encoding="iso-8859-1"?>
<!-- Generator: Adobe Illustrator 19.0.0, SVG Export Plug-In . SVG Version: 6.00 Build 0)  -->
<svg version="1.1" id="Layer_1" xmlns="http://www.w3.org/2000/svg" xmlns:xlink="http://www.w3.org/1999/xlink" x="0px" y="0px"
	 viewBox="0 0 512 512" style="enable-background:new 0 0 512 512;" xml:space="preserve">
<path style="fill:#82C8DB;" d="M333.492,96.865V8.303h-33.211l-22.141,88.562L311.351,512h33.211
	c18.266,0,33.211-14.945,33.211-33.211V141.146C377.773,116.791,357.846,96.865,333.492,96.865z"/>
<path style="fill:#A3DDE9;" d="M344.562,141.146c0-24.355-19.926-44.281-44.281-44.281V8.303H178.508v88.562
	c-24.355,0-44.281,19.926-44.281,44.281v337.643c0,18.266,14.945,33.211,33.211,33.211h143.914
	c18.266,0,33.211-14.945,33.211-33.211v-11.07l-22.141-103.784l22.141-103.784V141.146z"/>
<polygon style="fill:#146A8A;" points="311.391,260.151 278.176,363.935 311.293,467.719 344.562,467.719 344.562,260.151 "/>
<polygon style="fill:#2089B0;" points="167.438,260.151 167.438,467.719 311.293,467.719 311.391,260.151 "/>
<path style="fill:#62B3CD;" d="M347.33,16.605H164.67c-4.586,0-8.303-3.717-8.303-8.303S160.084,0,164.67,0H347.33
	c4.586,0,8.303,3.717,8.303,8.303S351.916,16.605,347.33,16.605z"/>
<g>
</g>
<g>
</g>
<g>
</g>
<g>
</g>
<g>
</g>
<g>
</g>
<g>
</g>
<g>
</g>
<g>
</g>
<g>
</g>
<g>
</g>
<g>
</g>
<g>
</g>
<g>
</g>
<g>
</g>
</svg>
