<?xml version="1.0" encoding="iso-8859-1"?>
<!-- Generator: Adobe Illustrator 19.0.0, SVG Export Plug-In . SVG Version: 6.00 Build 0)  -->
<svg version="1.1" id="Layer_1" xmlns="http://www.w3.org/2000/svg" xmlns:xlink="http://www.w3.org/1999/xlink" x="0px" y="0px"
	 viewBox="0 0 511.999 511.999" style="enable-background:new 0 0 511.999 511.999;" xml:space="preserve">
<path style="fill:#82C8DB;" d="M146.778,490.06c10.121-19.486,23.464-37.578,39.658-53.772
	c16.195-16.195,34.287-29.537,53.772-39.658l7.532,14.501c-18,9.348-34.738,21.699-49.749,36.711
	c-15.011,15.011-27.362,31.749-36.711,49.749L146.778,490.06z"/>
<path style="fill:#A3DDE9;" d="M197.231,345.584c-6.966-6.966-13.239-21.716-13.424-31.567l-2.412-128.618
	c-0.182-9.686,7.084-22.317,15.549-27.028L444.34,20.659l-7.948-14.278L188.998,144.092c-13.719,7.637-24.236,25.916-23.941,41.613
	l2.413,128.617c0.264,14.063,8.261,32.871,18.206,42.816l58.221,58.221c-8.961,16.014-20.34,30.964-33.883,44.507
	c-13.541,13.541-28.492,24.92-44.507,33.883l-26.512-26.512c-3.191-3.191-8.363-3.191-11.555,0c-3.191,3.191-3.191,8.365,0,11.555
	l30.813,30.813c2.52,2.52,6.381,3.116,9.543,1.473c19.487-10.122,37.578-23.464,53.772-39.658
	c16.194-16.194,29.537-34.286,39.658-53.772c1.643-3.163,1.047-7.025-1.473-9.543L197.231,345.584z"/>
<path style="fill:#2089B0;" d="M21.942,365.224l-7.532-14.501c18-9.349,34.738-21.7,49.749-36.711
	c15.012-15.012,27.363-31.75,36.711-49.749l14.501,7.532c-10.12,19.485-23.463,37.577-39.658,53.772
	C59.519,341.76,41.427,355.103,21.942,365.224z"/>
<path style="fill:#419EBE;" d="M497.119,14.883c-19.844-19.844-52.13-19.844-71.974,0c-19.842,19.843-19.842,52.13,0,71.974
	c13.001,13.001,31.342,17.482,48.027,13.448l-119.54,214.752c-4.712,8.465-17.342,15.731-27.029,15.549l-128.616-2.413
	c-9.852-0.184-24.602-6.457-31.568-13.423l-62.522-62.522c-2.52-2.52-6.381-3.117-9.543-1.473
	c-19.486,10.121-37.578,23.464-53.772,39.658c-16.193,16.193-29.536,34.284-39.658,53.772c-1.643,3.163-1.047,7.025,1.473,9.543
	l125.046,125.046l11.555-11.555L18.251,346.494c8.963-16.014,20.341-30.965,33.883-44.507
	c13.542-13.542,28.492-24.921,44.507-33.883l58.221,58.221c9.945,9.945,28.753,17.943,42.816,18.206l128.617,2.413
	c15.698,0.294,33.977-10.221,41.613-23.94L505.621,75.609C516.358,56.239,513.54,31.302,497.119,14.883z M436.7,75.301
	c-13.472-13.472-13.472-35.392,0-48.863c13.472-13.472,35.393-13.472,48.864,0s13.472,35.393,0,48.864
	C472.093,88.773,450.173,88.773,436.7,75.301z"/>
<g>
</g>
<g>
</g>
<g>
</g>
<g>
</g>
<g>
</g>
<g>
</g>
<g>
</g>
<g>
</g>
<g>
</g>
<g>
</g>
<g>
</g>
<g>
</g>
<g>
</g>
<g>
</g>
<g>
</g>
</svg>
