<?xml version="1.0" encoding="iso-8859-1"?>
<!-- Generator: Adobe Illustrator 19.0.0, SVG Export Plug-In . SVG Version: 6.00 Build 0)  -->
<svg version="1.1" id="Layer_1" xmlns="http://www.w3.org/2000/svg" xmlns:xlink="http://www.w3.org/1999/xlink" x="0px" y="0px"
	 viewBox="0 0 512 512" style="enable-background:new 0 0 512 512;" xml:space="preserve">
<path style="fill:#82C8DB;" d="M316.887,226.035V8.303h-33.211L256,512c82.539,0,149.449-66.911,149.449-149.449
	C405.449,301.698,369.075,249.347,316.887,226.035z"/>
<path style="fill:#A3DDE9;" d="M283.676,217.377V8.303h-88.562v217.732c-52.189,23.312-88.562,75.664-88.562,136.516
	C106.551,445.089,173.461,512,256,512c64.197,0,116.238-66.911,116.238-149.449C372.238,292.277,334.509,233.341,283.676,217.377z"
	/>
<path style="fill:#62B3CD;" d="M330.724,16.605H181.276c-4.585,0-8.303-3.717-8.303-8.303S176.69,0,181.276,0h149.449
	c4.585,0,8.303,3.717,8.303,8.303S335.31,16.605,330.724,16.605z"/>
<path style="fill:#146A8A;" d="M351.376,318.27h-30.119L256,467.719c57.989,0,105.168-47.178,105.168-105.168
	C361.168,346.741,357.654,331.737,351.376,318.27z"/>
<path style="fill:#2089B0;" d="M321.257,318.27H160.624c-6.277,13.467-9.792,28.471-9.792,44.281
	c0,57.989,47.178,105.168,105.168,105.168c39.677,0,71.957-47.178,71.957-105.168C327.957,346.741,325.552,331.737,321.257,318.27z"
	/>
<g>
</g>
<g>
</g>
<g>
</g>
<g>
</g>
<g>
</g>
<g>
</g>
<g>
</g>
<g>
</g>
<g>
</g>
<g>
</g>
<g>
</g>
<g>
</g>
<g>
</g>
<g>
</g>
<g>
</g>
</svg>
