<?xml version="1.0" encoding="iso-8859-1"?>
<!-- Generator: Adobe Illustrator 19.0.0, SVG Export Plug-In . SVG Version: 6.00 Build 0)  -->
<svg version="1.1" id="Layer_1" xmlns="http://www.w3.org/2000/svg" xmlns:xlink="http://www.w3.org/1999/xlink" x="0px" y="0px"
	 viewBox="0 0 512 512" style="enable-background:new 0 0 512 512;" xml:space="preserve">
<path style="fill:#2AA175;" d="M452.923,371.341v123.78c0,9.284-7.596,16.879-16.879,16.879h-33.758
	c9.284,0,16.879-7.596,16.879-16.879v-123.78H452.923z"/>
<path style="fill:#4FC297;" d="M59.077,371.341v123.78c0,9.284,7.596,16.879,16.879,16.879h326.33
	c9.284,0,16.879-7.596,16.879-16.879v-123.78H59.077z"/>
<polygon style="fill:#82C8DB;" points="452.923,0 452.923,371.341 419.165,371.341 385.407,185.67 419.165,0 "/>
<rect x="59.077" style="fill:#A3DDE9;" width="360.088" height="371.341"/>
<circle style="fill:#FFFFFF;" cx="256" cy="185.67" r="129.407"/>
<path style="fill:#F0AEB0;" d="M256,90.022v191.297c52.742,0,95.648-42.907,95.648-95.648S308.742,90.022,256,90.022z"/>
<rect x="129.407" y="405.099" style="fill:#06384A;" width="253.187" height="39.385"/>
<g>
	<path style="fill:#FFFFFF;" d="M374.154,486.681h-33.758c-4.662,0-8.44-3.778-8.44-8.44s3.778-8.44,8.44-8.44h33.758
		c4.662,0,8.44,3.778,8.44,8.44S378.816,486.681,374.154,486.681z"/>
	<path style="fill:#FFFFFF;" d="M306.637,486.681h-33.758c-4.662,0-8.44-3.778-8.44-8.44s3.778-8.44,8.44-8.44h33.758
		c4.662,0,8.44,3.778,8.44,8.44S311.299,486.681,306.637,486.681z"/>
	<path style="fill:#FFFFFF;" d="M239.121,486.681h-33.758c-4.662,0-8.44-3.778-8.44-8.44s3.778-8.44,8.44-8.44h33.758
		c4.662,0,8.44,3.778,8.44,8.44S243.783,486.681,239.121,486.681z"/>
	<path style="fill:#FFFFFF;" d="M171.604,486.681h-33.758c-4.662,0-8.44-3.778-8.44-8.44s3.778-8.44,8.44-8.44h33.758
		c4.662,0,8.44,3.778,8.44,8.44S176.266,486.681,171.604,486.681z"/>
</g>
<path style="fill:#F7CAC9;" d="M256,90.022c-52.742,0-95.648,42.907-95.648,95.648s42.907,95.648,95.648,95.648
	c40.334,0,73.143-42.907,73.143-95.648S296.334,90.022,256,90.022z"/>
<g>
</g>
<g>
</g>
<g>
</g>
<g>
</g>
<g>
</g>
<g>
</g>
<g>
</g>
<g>
</g>
<g>
</g>
<g>
</g>
<g>
</g>
<g>
</g>
<g>
</g>
<g>
</g>
<g>
</g>
</svg>
