<?xml version="1.0" encoding="iso-8859-1"?>
<!-- Generator: Adobe Illustrator 19.0.0, SVG Export Plug-In . SVG Version: 6.00 Build 0)  -->
<svg version="1.1" id="Layer_1" xmlns="http://www.w3.org/2000/svg" xmlns:xlink="http://www.w3.org/1999/xlink" x="0px" y="0px"
	 viewBox="0 0 512 512" style="enable-background:new 0 0 512 512;" xml:space="preserve">
<path style="fill:#A3DDE9;" d="M486.476,0l-27.531,27.531c0.008,0.008-88.679,148.371-88.679,148.371l23.87,23.87
	c0,0,20.927-20.927,50.828-50.828C488.934,104.975,503.902,45.163,486.476,0z"/>
<g>
	<path style="fill:#419EBE;" d="M193.489,317.222L27.526,502.903c12.134,12.134,31.811,12.126,43.945-0.008l137.932-137.932
		L193.489,317.222z"/>
	<polygon style="fill:#419EBE;" points="338.527,207.642 352.627,221.741 304.885,269.482 257.144,253.568 336.713,205.827 	"/>
</g>
<g>
	<path style="fill:#62B3CD;" d="M209.404,333.136L55.559,486.982c-12.135,12.134-24.691,19.263-28.033,15.921
		c-12.134-12.134-12.134-31.819,0-43.954l137.932-137.932L209.404,333.136z"/>
	<polygon style="fill:#62B3CD;" points="336.713,205.827 273.058,269.482 260.94,225.536 308.68,177.795 	"/>
</g>
<polygon style="fill:#2089B0;" points="304.885,269.482 281.015,293.352 249.188,277.439 288.971,253.568 "/>
<polygon style="fill:#419EBE;" points="288.971,253.568 257.144,285.395 237.07,249.407 260.94,225.536 "/>
<path style="fill:#82C8DB;" d="M338.527,207.642l-1.814-1.814l-28.031-28.031L458.945,27.531
	c4.544,31.422-9.731,69.423-37.851,97.542L338.527,207.642z"/>
<polygon style="fill:#146A8A;" points="281.015,293.352 257.144,317.222 225.317,301.309 265.101,277.439 "/>
<g>
	<polygon style="fill:#2089B0;" points="257.144,317.222 233.274,341.094 201.447,325.179 241.231,301.309 	"/>
	<polygon style="fill:#2089B0;" points="265.101,277.439 233.274,309.266 213.199,273.277 237.07,249.407 	"/>
</g>
<polygon style="fill:#419EBE;" points="241.231,301.309 209.404,333.136 189.328,297.148 213.199,273.277 "/>
<polygon style="fill:#146A8A;" points="233.274,341.094 209.404,364.964 193.49,349.05 197.468,329.158 217.361,325.179 "/>
<rect x="174.53" y="303.282" transform="matrix(-0.7071 0.7071 -0.7071 -0.7071 555.2234 416.2258)" style="fill:#2089B0;" width="33.758" height="39.643"/>
<g>
</g>
<g>
</g>
<g>
</g>
<g>
</g>
<g>
</g>
<g>
</g>
<g>
</g>
<g>
</g>
<g>
</g>
<g>
</g>
<g>
</g>
<g>
</g>
<g>
</g>
<g>
</g>
<g>
</g>
</svg>
