<?xml version="1.0" encoding="iso-8859-1"?>
<!-- Generator: Adobe Illustrator 19.0.0, SVG Export Plug-In . SVG Version: 6.00 Build 0)  -->
<svg version="1.1" id="Layer_1" xmlns="http://www.w3.org/2000/svg" xmlns:xlink="http://www.w3.org/1999/xlink" x="0px" y="0px"
	 viewBox="0 0 512 512" style="enable-background:new 0 0 512 512;" xml:space="preserve">
<path style="fill:#62B3CD;" d="M355.26,0h-33.758v512h33.758c26.692,0,48.409-21.718,48.409-48.409V48.409
	C403.67,21.718,381.952,0,355.26,0z"/>
<path style="fill:#82C8DB;" d="M369.912,48.409C369.912,21.718,348.194,0,321.502,0H62.216C35.514,0,13.796,21.718,13.796,48.409
	v415.181c0,26.692,21.718,48.409,48.421,48.409h259.286c26.692,0,48.409-21.718,48.409-48.409L347.406,256L369.912,48.409z"/>
<rect x="64.129" y="50.334" style="fill:#E2FAFF;" width="289.218" height="411.333"/>
<g>
	<path style="fill:#C4F5FF;" d="M365.602,473.932c-2.644,2.656-6.313,4.31-10.341,4.31H62.216c-4.04,0-7.697-1.643-10.353-4.299
		l12.265-34.782h289.218L365.602,473.932z"/>
	<path style="fill:#C4F5FF;" d="M365.613,38.068l-12.266,34.771H64.129L51.864,38.057c2.656-2.656,6.313-4.299,10.353-4.299h293.044
		C359.289,33.758,362.957,35.412,365.613,38.068z"/>
</g>
<path style="fill:#FFFFFF;" d="M86.635,72.839v366.322l-34.771,34.782c-2.656-2.656-4.299-6.324-4.299-10.353V48.409
	c0-4.028,1.643-7.697,4.299-10.353L86.635,72.839z"/>
<path style="fill:#A3DDE9;" d="M448.685,122.126c0,27.565,0,46.849,0,46.849l13.819,0.25v62.766l35.694-33.759V34.351
	C469.357,47.133,448.685,81.596,448.685,122.126z"/>
<path style="fill:#82C8DB;" d="M498.204,231.987V457.39c0,11.185-9.07,20.255-20.255,20.255c-11.185,0-20.255-9.07-20.255-20.255
	V231.987l20.255-14.629L498.204,231.987z"/>
<rect x="457.694" y="198.228" style="fill:#62B3CD;" width="40.51" height="33.757"/>
<path style="fill:#82C8DB;" d="M369.912,48.409v415.181c0,4.028-1.654,7.686-4.31,10.341l-34.76-34.771V72.839l34.771-34.771
	C368.257,40.724,369.912,44.381,369.912,48.409z"/>
<g>
</g>
<g>
</g>
<g>
</g>
<g>
</g>
<g>
</g>
<g>
</g>
<g>
</g>
<g>
</g>
<g>
</g>
<g>
</g>
<g>
</g>
<g>
</g>
<g>
</g>
<g>
</g>
<g>
</g>
</svg>
