<svg viewBox="0 0 512 512" xmlns="http://www.w3.org/2000/svg"><path d="m330.699219 494-74.699219.300781h-75.699219l18.597657-105.402343 57.101562-15.300782 48.898438-13.199218zm0 0" fill="#a8d3d8"/><path d="m330.699219 494-74.699219.300781v-120.703125l48.898438-13.199218zm0 0" fill="#8ebac5"/><path d="m512 299.199219-256 92.699219-245.5 89.101562-10.5-28.199219 256-92.703125 245.5-89.097656zm0 0" fill="#deecf1"/><path d="m391 150h30v91h-30zm0 0" fill="#00eed0"/><path d="m331 120h30v91h-30zm0 0" fill="#00eed0"/><path d="m451 120h30v91h-30zm0 0" fill="#00ddc1"/><path d="m150 482h211v30h-211zm0 0" fill="#725d57"/><path d="m256 482h105v30h-105zm0 0" fill="#53433f"/><path d="m512 299.199219-256 92.699219v-31.800782l245.5-89.097656zm0 0" fill="#c6e2e7"/><path d="m150 356.5c0 33-27 60-60 60s-60-27-60-60 27-60 60-60 60 27 60 60zm0 0" fill="#ffd400"/><path d="m150 356.5c0 33-27 60-60 60v-120c33 0 60 27 60 60zm0 0" fill="#fdbf00"/><path d="m466 60c0 33-27 60-60 60s-60-27-60-60 27-60 60-60 60 27 60 60zm0 0" fill="#ffd400"/><path d="m406 150h15v91h-15zm0 0" fill="#00ddc1"/><path d="m466 60c0 33-27 60-60 60v-120c33 0 60 27 60 60zm0 0" fill="#fdbf00"/></svg>