<svg viewBox="-16 0 512 512" xmlns="http://www.w3.org/2000/svg"><path d="m360 285v167l-120 60-120-60v-167l51.597656-55.800781 68.402344-4.199219h60zm0 0" fill="#f66"/><path d="m360 285v167l-120 60v-287h60zm0 0" fill="#ff3e48"/><path d="m480 225-120 60-120-60-30-90 30-75 120-60 120 60zm0 0" fill="#ffd400"/><path d="m240 225-120 60-120-60v-165l120-60 120 60zm0 0" fill="#00ddc1"/><path d="m353.289062 38.648438 13.414063 26.832031-59.996094 30-13.417969-26.832031zm0 0" fill="#fdbf00"/><path d="m420 97.074219h30v75.851562h-30zm0 0" fill="#fdbf00"/><g fill="#00b2ad"><path d="m30 97.074219h30v75.851562h-30zm0 0"/><path d="m126.707031 38.652344 59.996094 30-13.417969 26.835937-59.996094-30zm0 0"/></g></svg>