<svg viewBox="0 0 512.00063 512.00063" xmlns="http://www.w3.org/2000/svg"><path d="m512 275.773438-63.640625-63.640626-63.636719 63.640626 10.605469 53.03125 53.03125 10.605468zm0 0" fill="#c6e2e7"/><path d="m299.867188 63.640625-63.636719-63.640625-63.640625 63.640625 10.605468 53.03125 53.035157 10.605469zm0 0" fill="#deecf1"/><path d="m452.390625 131.308594-103.519531 51.761718-6.578125-13.363281-6.574219-13.367187 39.882812-19.9375 26.300782-13.152344-42.425782-42.429688 103.523438-51.757812 6.574219 13.363281 6.578125 13.363281-66.1875 33.09375zm0 0" fill="#00eed0"/><path d="m476.152344 55.789062-39.882813 19.941407 33.304688-33.304688zm0 0" fill="#00ddc1"/><path d="m452.390625 131.308594-103.519531 51.761718-6.578125-13.363281 33.308593-33.304687 26.300782-13.152344-6.574219-6.578125 21.214844-21.210937zm0 0" fill="#00ddc1"/><path d="m448.359375 339.410156-115.472656 115.472656c-76.152344 76.15625-199.613281 76.15625-275.769531 0s-76.15625-199.617187 0-275.769531l115.472656-115.472656 63.640625 63.640625-115.472657 115.46875c-40.941406 40.941406-40.941406 107.550781 0 148.492188 40.941407 40.941406 107.550782 40.941406 148.492188 0l115.46875-115.472657zm0 0" fill="#f66"/><path d="m448.359375 339.410156-115.472656 115.472656c-76.152344 76.15625-199.613281 76.15625-275.769531 0l63.640624-63.640624c40.941407 40.941406 107.550782 40.941406 148.492188 0l115.46875-115.46875zm0 0" fill="#ff3e48"/></svg>