<svg viewBox="0 -46 511.99966 511" xmlns="http://www.w3.org/2000/svg"><path d="m347.402344 367.527344c-76.171875 40.484375-168.839844 25.1875-227.917969-32.988282-7.796875-7.496093-14.996094-15.894531-21.59375-25.191406-5.097656-6.898437-9.894531-14.394531-14.09375-22.492187-4.199219-7.796875-7.796875-15.894531-10.796875-24.292969-2.699219-7.496094-36.085938 15.296875-37.886719 7.796875 0-3.898437 29.191407-35.6875 29.191407-39.585937-14.996094-81.269532 23.089843-166.738282 100.164062-207.523438 76.773438-40.789062 168.839844-24.894531 227.917969 32.988281 3.597656 3.296875 36.886719 7.195313 40.484375 10.792969 3.902344 4.5-22.488282 9.296875-18.890625 14.398438 5.097656 7.195312 9.894531 14.695312 14.09375 22.492187 4.199219 7.792969 7.796875 15.890625 10.496093 24.289063 4.199219 10.496093 7.199219 20.992187 8.996094 31.789062v.296875c14.996094 81.273437-23.390625 166.445313-100.164062 207.230469zm0 0" fill="#00b2ad"/><path d="m347.402344 367.527344c-76.171875 40.484375-168.839844 25.1875-227.917969-32.988282-7.796875-7.496093-14.996094-15.894531-21.59375-25.191406-5.097656-6.898437-9.894531-14.394531-14.09375-22.492187-4.199219-7.796875-7.796875-15.894531-10.796875-24.292969-2.699219-7.496094-36.085938 15.296875-37.886719 7.796875 0-3.898437 29.191407-35.6875 29.191407-39.585937-14.996094-81.269532 23.089843-166.738282 100.164062-207.523438zm0 0" fill="#00ddc1"/><path d="m180.960938 180.394531c-16.53125 0-29.988282-13.457031-29.988282-29.992187 0-16.53125 13.457032-29.988282 29.988282-29.988282s29.988281 13.457032 29.988281 29.988282c0 16.535156-13.457031 29.992187-29.988281 29.992187zm0 0" fill="#00b2ad"/><path d="m240.941406 90.425781h29.988282v29.988281h-29.988282zm0 0" fill="#04909b"/><path d="m447.566406 160v.296875c-40.183594 32.992187-95.066406 68.679687-156.542968 101.367187-47.382813 25.191407-135.851563 65.675782-179.636719 75.273438-32.988281 8.996094-91.867188 22.191406-108.0625-7.800781-11.996094-23.089844 8.496093-55.179688 60.980469-98.363281 1.796874 10.796874 4.796874 21.292968 8.695312 31.789062-36.289062 31.789062-43.886719 48.882812-42.984375 52.78125 5.097656 5.398438 29.789063 4.496094 67.875-5.996094 42.882813-11.398437 104.664063-34.789062 179.035156-74.375 74.375-39.585937 128.054688-77.371094 161.644531-106.761718 29.988282-25.789063 45.082032-45.28125 43.285157-52.78125-2.402344-2.398438-21.394531-6.296876-67.875 6-6.601563-9.296876-13.796875-17.695313-21.59375-25.191407 65.074219-19.496093 103.863281-17.695312 116.160156 5.394531 17.09375 31.789063-33.390625 74.976563-60.980469 98.367188zm0 0" fill="#a8d3d8"/><path d="m291.023438 261.664062c-47.382813 25.191407-135.851563 65.675782-179.636719 75.273438-32.988281 8.996094-91.867188 22.191406-108.0625-7.800781-11.996094-23.089844 8.496093-55.179688 60.980469-98.363281 1.796874 10.796874 4.796874 21.292968 8.695312 31.789062-36.289062 31.789062-43.886719 48.882812-42.984375 52.78125 5.097656 5.398438 29.789063 4.496094 67.875-5.996094 42.882813-11.398437 104.664063-34.789062 179.035156-74.375zm0 0" fill="#deecf1"/><path d="m466.859375 330.339844c-24.890625 0-44.984375 20.09375-44.984375 44.984375s20.09375 44.984375 44.984375 44.984375c24.894531 0 44.984375-20.09375 44.984375-44.984375s-20.089844-44.984375-44.984375-44.984375zm0 0" fill="#fdbf00"/><path d="m511.84375 375.324219c0 24.890625-20.089844 44.984375-44.984375 44.984375v-89.96875c24.894531 0 44.984375 20.09375 44.984375 44.984375zm0 0" fill="#ff9f00"/></svg>