<svg viewBox="0 0 512 512" xmlns="http://www.w3.org/2000/svg"><g fill="#a8d3d8"><path d="m195 332h242v30h-242zm0 0"/><path d="m150 75h30v242h-30zm0 0"/><path d="m195 30h242v30h-242zm0 0"/><path d="m452 75h30v242h-30zm0 0"/></g><path d="m435.179688 55.601562 21.210937 21.210938-77.574219 77.578125-21.210937-21.210937zm0 0" fill="#c6e2e7"/><path d="m435.183594 357.601562 21.210937 21.210938-77.578125 77.578125-21.210937-21.210937zm0 0" fill="#c6e2e7"/><path d="m133.1875 357.601562 21.207031 21.210938-77.574219 77.578125-21.210937-21.210937zm0 0" fill="#c6e2e7"/><path d="m133.183594 55.605469 21.210937 21.210937-77.578125 77.578125-21.210937-21.210937zm0 0" fill="#c6e2e7"/><path d="m165 90c-24.8125 0-45-20.1875-45-45s20.1875-45 45-45 45 20.1875 45 45-20.1875 45-45 45zm0 0" fill="#ff9f00"/><path d="m467 90c-24.8125 0-45-20.1875-45-45s20.1875-45 45-45 45 20.1875 45 45-20.1875 45-45 45zm0 0" fill="#ff9f00"/><path d="m467 392c-24.8125 0-45-20.1875-45-45s20.1875-45 45-45 45 20.1875 45 45-20.1875 45-45 45zm0 0" fill="#ff9f00"/><path d="m165 392c-24.8125 0-45-20.1875-45-45s20.1875-45 45-45 45 20.1875 45 45-20.1875 45-45 45zm0 0" fill="#ff9f00"/><path d="m75 452h242v30h-242zm0 0" fill="#deecf1"/><path d="m30 195h30v242h-30zm0 0" fill="#deecf1"/><path d="m75 150h242v30h-242zm0 0" fill="#deecf1"/><path d="m332 195h30v242h-30zm0 0" fill="#deecf1"/><path d="m45 210c-24.8125 0-45-20.1875-45-45s20.1875-45 45-45 45 20.1875 45 45-20.1875 45-45 45zm0 0" fill="#fdbf00"/><path d="m347 210c-24.8125 0-45-20.1875-45-45s20.1875-45 45-45 45 20.1875 45 45-20.1875 45-45 45zm0 0" fill="#fdbf00"/><path d="m347 512c-24.8125 0-45-20.1875-45-45s20.1875-45 45-45 45 20.1875 45 45-20.1875 45-45 45zm0 0" fill="#fdbf00"/><path d="m45 512c-24.8125 0-45-20.1875-45-45s20.1875-45 45-45 45 20.1875 45 45-20.1875 45-45 45zm0 0" fill="#fdbf00"/></svg>