<svg viewBox="0 -31 512 512" xmlns="http://www.w3.org/2000/svg"><path d="m512 261.300781v76.796875h-512v-76.796875l6.597656-4.5c73.203125-50.101562 160.003906-76.5 249.402344-76.5s176.199219 26.398438 249.402344 76.5zm0 0" fill="#deecf1"/><path d="m346 90c0 49.800781-40.199219 90-90 90s-90-40.199219-90-90 40.199219-90 90-90 90 40.199219 90 90zm0 0" fill="#ffd400"/><path d="m256 180v-180c49.800781 0 90 40.199219 90 90s-40.199219 90-90 90zm0 0" fill="#fdbf00"/><path d="m512 261.300781v76.796875h-256v-157.796875c89.398438 0 176.199219 26.398438 249.402344 76.5zm0 0" fill="#c6e2e7"/><path d="m512 338.097656v111.902344h-512v-111.902344l5.097656-4.496094c71.101563-62.402343 161.503906-93.300781 250.902344-93.300781s179.800781 30.898438 250.902344 93.300781zm0 0" fill="#a8d3d8"/><path d="m512 338.097656v111.902344h-256v-209.699219c89.398438 0 179.800781 30.898438 250.902344 93.300781zm0 0" fill="#8ebac5"/></svg>