<?xml version="1.0" encoding="iso-8859-1"?>
<!-- Generator: Adobe Illustrator 19.0.0, SVG Export Plug-In . SVG Version: 6.00 Build 0)  -->
<svg version="1.1" id="Layer_1" xmlns="http://www.w3.org/2000/svg" xmlns:xlink="http://www.w3.org/1999/xlink" x="0px" y="0px"
	 viewBox="0 0 512 512" style="enable-background:new 0 0 512 512;" xml:space="preserve">
<polygon style="fill:#EDEEF0;" points="256,324.314 87.269,32.062 424.731,32.062 "/>
<polygon style="fill:#DCDEE2;" points="256,32.062 256,324.314 424.731,32.062 "/>
<polygon style="fill:#D8D9DD;" points="256,32.062 87.269,32.062 94.997,45.448 256,45.448 417.003,45.448 424.731,32.062 "/>
<polygon style="fill:#EDEEF0;" points="272.965,512 239.035,481.144 239.035,277.099 272.965,277.099 "/>
<polygon style="fill:#DCDEE2;" points="272.965,277.099 256,277.099 256,496.572 272.965,512 "/>
<rect x="224.41" y="294.85" style="fill:#69351D;" width="63.18" height="33.19"/>
<rect x="256" y="294.85" style="fill:#592D19;" width="31.589" height="33.19"/>
<polygon style="fill:#B7B9C0;" points="256,32.062 256,45.448 417.003,45.448 424.731,32.062 "/>
<rect x="79.56" style="fill:#EDEEF0;" width="352.88" height="33.18"/>
<rect x="256" style="fill:#DCDEE2;" width="176.44" height="33.18"/>
<g>
</g>
<g>
</g>
<g>
</g>
<g>
</g>
<g>
</g>
<g>
</g>
<g>
</g>
<g>
</g>
<g>
</g>
<g>
</g>
<g>
</g>
<g>
</g>
<g>
</g>
<g>
</g>
<g>
</g>
</svg>
