<?xml version="1.0" encoding="iso-8859-1"?>
<!-- Generator: Adobe Illustrator 19.0.0, SVG Export Plug-In . SVG Version: 6.00 Build 0)  -->
<svg version="1.1" id="Layer_1" xmlns="http://www.w3.org/2000/svg" xmlns:xlink="http://www.w3.org/1999/xlink" x="0px" y="0px"
	 viewBox="0 0 512 512" style="enable-background:new 0 0 512 512;" xml:space="preserve">
<rect x="80.43" y="53.66" style="fill:#EDEEF0;" width="351.11" height="458.34"/>
<rect x="255.99" y="53.66" style="fill:#DCDEE2;" width="175.56" height="458.34"/>
<rect x="80" y="8.617" style="fill:#D8D9DD;" width="351.54" height="52.04"/>
<rect x="255.77" y="8.617" style="fill:#B7B9C0;" width="175.77" height="52.04"/>
<rect x="49.36" style="fill:#EDEEF0;" width="413.28" height="33.391"/>
<polygon style="fill:#DCDEE2;" points="462.635,0 255.994,0 255.994,33.391 462.635,33.391 462.635,33.391 "/>
<rect x="113.91" y="220.84" style="fill:#AC2C62;" width="284.17" height="257.68"/>
<rect x="255.99" y="220.84" style="fill:#922555;" width="142.08" height="257.68"/>
<g>
	<circle style="fill:#FFFFFF;" cx="194.91" cy="440.24" r="18.731"/>
	<circle style="fill:#FFFFFF;" cx="170.38" cy="343.36" r="18.731"/>
</g>
<g>
	<circle style="fill:#EDEEF0;" cx="333.91" cy="422.96" r="18.731"/>
	<circle style="fill:#EDEEF0;" cx="359.32" cy="267.13" r="18.731"/>
</g>
<circle style="fill:#FFFFFF;" cx="256.16" cy="306.09" r="26.489"/>
<path style="fill:#EDEEF0;" d="M282.652,306.087c0,14.63-11.859,26.489-26.489,26.489c0-15.125,0-26.489,0-52.98
	C270.791,279.598,282.652,291.457,282.652,306.087z"/>
<g>
	<rect x="81.59" y="61.11" style="fill:#444242;" width="126.2" height="33.391"/>
	<rect x="81.59" y="119.66" style="fill:#444242;" width="126.2" height="33.391"/>
	<rect x="81.59" y="179.11" style="fill:#444242;" width="126.2" height="33.391"/>
</g>
<g>
</g>
<g>
</g>
<g>
</g>
<g>
</g>
<g>
</g>
<g>
</g>
<g>
</g>
<g>
</g>
<g>
</g>
<g>
</g>
<g>
</g>
<g>
</g>
<g>
</g>
<g>
</g>
<g>
</g>
</svg>
