<?xml version="1.0" encoding="iso-8859-1"?>
<!-- Generator: Adobe Illustrator 19.0.0, SVG Export Plug-In . SVG Version: 6.00 Build 0)  -->
<svg version="1.1" id="Layer_1" xmlns="http://www.w3.org/2000/svg" xmlns:xlink="http://www.w3.org/1999/xlink" x="0px" y="0px"
	 viewBox="0 0 512 512" style="enable-background:new 0 0 512 512;" xml:space="preserve">
<path style="fill:#EDEEF0;" d="M204.914,207.772l99.313,99.313L125.545,485.77L0,511.999l26.231-125.544L204.914,207.772z"/>
<polygon style="fill:#DCDEE2;" points="304.229,307.086 254.571,257.429 0.001,511.999 125.545,485.77 "/>
<path style="fill:#444242;" d="M202.605,210.081L392.15,20.536c27.381-27.381,71.933-27.381,99.313,0
	c27.381,27.381,27.381,71.934,0,99.314L301.919,309.396L202.605,210.081z"/>
<g>
	<path style="fill:#3A3839;" d="M491.464,119.851c27.381-27.381,27.381-71.933,0-99.314L252.262,259.739l49.657,49.657
		L491.464,119.851z"/>
	
		<rect x="194.007" y="225.742" transform="matrix(0.7071 0.7071 -0.7071 0.7071 252.5997 -114.2665)" style="fill:#3A3839;" width="140.449" height="44.08"/>
</g>
<rect x="253.949" y="250.568" transform="matrix(0.7071 0.7071 -0.7071 0.7071 277.4258 -124.5501)" style="fill:#262626;" width="70.219" height="44.08"/>
<rect x="162.834" y="256.896" transform="matrix(0.7071 0.7071 -0.7071 0.7071 265.4985 -83.0987)" style="fill:#DCDEE2;" width="140.449" height="44.08"/>
<rect x="222.782" y="281.731" transform="matrix(0.7071 0.7071 -0.7071 0.7071 290.3329 -93.3847)" style="fill:#B7B9C0;" width="70.219" height="44.08"/>
<path style="fill:#444242;" d="M281.406,328.881l-98.286-98.286c-9.046-9.046-9.046-23.71,0-32.756l0,0
	c9.046-9.046,23.71-9.046,32.756,0l98.286,98.286c9.045,9.046,9.045,23.71,0,32.756l0,0
	C305.116,337.925,290.451,337.925,281.406,328.881z"/>
<path style="fill:#3A3839;" d="M314.161,296.125l-49.143-49.143l-32.756,32.756l49.143,49.143c9.046,9.046,23.71,9.046,32.756,0l0,0
	C323.206,319.835,323.206,305.171,314.161,296.125z"/>
<g>
</g>
<g>
</g>
<g>
</g>
<g>
</g>
<g>
</g>
<g>
</g>
<g>
</g>
<g>
</g>
<g>
</g>
<g>
</g>
<g>
</g>
<g>
</g>
<g>
</g>
<g>
</g>
<g>
</g>
</svg>
