<?xml version="1.0" encoding="iso-8859-1"?>
<!-- Generator: Adobe Illustrator 19.0.0, SVG Export Plug-In . SVG Version: 6.00 Build 0)  -->
<svg version="1.1" id="Layer_1" xmlns="http://www.w3.org/2000/svg" xmlns:xlink="http://www.w3.org/1999/xlink" x="0px" y="0px"
	 viewBox="0 0 511.995 511.995" style="enable-background:new 0 0 511.995 511.995;" xml:space="preserve">
<rect x="106.438" y="121.535" style="fill:#EDEEF0;" width="299.11" height="390.46"/>
<rect x="255.998" y="121.535" style="fill:#DCDEE2;" width="149.56" height="390.46"/>
<rect x="106.068" y="112.685" style="fill:#D8D9DD;" width="299.49" height="42.21"/>
<rect x="255.808" y="112.685" style="fill:#B7B9C0;" width="149.74" height="42.21"/>
<rect x="79.958" y="75.824" style="fill:#EDEEF0;" width="352.08" height="54.918"/>
<polygon style="fill:#DCDEE2;" points="432.033,75.82 255.996,75.82 255.996,130.733 432.033,130.733 432.033,130.733 "/>
<rect x="134.948" y="263.965" style="fill:#AC2C62;" width="242.09" height="219.51"/>
<rect x="255.998" y="263.965" style="fill:#922555;" width="121.04" height="219.51"/>
<circle style="fill:#FFFFFF;" cx="203.958" cy="450.855" r="15.957"/>
<g>
	<circle style="fill:#EDEEF0;" cx="322.368" cy="436.135" r="15.957"/>
	<circle style="fill:#EDEEF0;" cx="330.768" cy="322.625" r="15.957"/>
</g>
<circle style="fill:#FFFFFF;" cx="256.138" cy="381.715" r="22.567"/>
<path style="fill:#EDEEF0;" d="M278.705,381.709c0,12.463-10.103,22.567-22.567,22.567c0-12.886,0-22.567,0-45.133
	C268.602,359.142,278.705,369.245,278.705,381.709z"/>
<rect x="245.504" y="-6.052" transform="matrix(-0.9416 -0.3368 0.3368 -0.9416 443.8144 464.7004)" style="fill:#B7B9C0;" width="33.415" height="399.819"/>
<polygon style="fill:#922555;" points="179.16,376.442 210.624,387.697 254.889,263.957 219.399,263.957 "/>
<polygon style="fill:#9B9DA6;" points="293.904,154.896 302.548,130.733 267.057,130.733 258.413,154.896 "/>
<g>
</g>
<g>
</g>
<g>
</g>
<g>
</g>
<g>
</g>
<g>
</g>
<g>
</g>
<g>
</g>
<g>
</g>
<g>
</g>
<g>
</g>
<g>
</g>
<g>
</g>
<g>
</g>
<g>
</g>
</svg>
