<?xml version="1.0" encoding="iso-8859-1"?>
<!-- Generator: Adobe Illustrator 19.0.0, SVG Export Plug-In . SVG Version: 6.00 Build 0)  -->
<svg version="1.1" id="Layer_1" xmlns="http://www.w3.org/2000/svg" xmlns:xlink="http://www.w3.org/1999/xlink" x="0px" y="0px"
	 viewBox="0 0 512 512" style="enable-background:new 0 0 512 512;" xml:space="preserve">
<path style="fill:#D8D9DD;" d="M489.166,394.775c-4.088-22.023-36.784-200.51-46.108-251.42
	c14.099-6.79,24.036-16.134,24.036-29.552c0-26.13-37.64-36.834-70.432-43.241C358.923,63.191,308.967,59.13,256,59.13
	s-102.923,4.06-140.662,11.432c-32.792,6.407-70.432,17.111-70.432,43.241c0,13.419,9.937,22.763,24.036,29.552
	c-9.324,50.909-42.02,229.397-46.108,251.419C20.513,407.274,16.838,419.478,0,419.478v33.391c15.692,0,28.592-5.035,38.347-14.967
	c8.664-8.823,14.329-20.936,17.318-37.033c3.979-21.436,34.981-190.669,45.282-246.909c4.813,1.139,9.652,2.158,14.392,3.084
	c33.746,6.593,77.264,10.535,123.966,11.295v258.525h33.391V168.339c46.702-0.761,90.22-4.703,123.966-11.295
	c4.739-0.926,9.578-1.946,14.392-3.084c10.301,56.24,41.303,225.473,45.282,246.91c2.989,16.097,8.653,28.21,17.318,37.032
	c9.755,9.932,22.655,14.967,38.347,14.967v-33.391C502.767,419.478,493.399,417.57,489.166,394.775z M132.809,126.267
	c-26.285-4.371-40.574-9.102-48.1-12.464c7.526-3.361,21.816-8.093,48.1-12.463c29.972-4.984,67.279-8.004,106.495-8.675v42.277
	C200.088,134.272,162.781,131.251,132.809,126.267z M379.19,126.267c-29.972,4.984-67.279,8.004-106.495,8.675V92.665
	c39.216,0.671,76.522,3.691,106.495,8.675c26.285,4.37,40.574,9.102,48.1,12.463C419.764,117.166,405.475,121.897,379.19,126.267z"
	/>
<path style="fill:#B7B9C0;" d="M396.662,70.563C358.923,63.191,308.967,59.13,256,59.13s-102.923,4.06-140.662,11.432
	c-32.792,6.407-70.432,17.111-70.432,43.241c0,13.419,9.937,22.763,24.036,29.552c0,0,13.357,6.811,46.396,13.688
	c33.663,7.008,77.264,10.535,123.966,11.295h33.391c46.702-0.761,90.22-4.703,123.966-11.295c0,0,23.534-5.129,46.396-13.688
	c14.099-6.79,24.036-16.134,24.036-29.552C467.094,87.674,429.454,76.969,396.662,70.563z M239.304,134.942
	c-39.216-0.671-76.523-3.691-106.495-8.675c-26.285-4.371-40.574-9.102-48.1-12.464c7.526-3.361,21.816-8.093,48.1-12.463
	c29.972-4.984,67.279-8.004,106.495-8.675h33.391c39.216,0.671,76.522,3.691,106.495,8.675c26.284,4.37,40.574,9.102,48.1,12.463
	c-7.526,3.363-21.816,8.093-48.1,12.464c-29.972,4.984-67.279,8.004-106.495,8.675H239.304z"/>
<g>
</g>
<g>
</g>
<g>
</g>
<g>
</g>
<g>
</g>
<g>
</g>
<g>
</g>
<g>
</g>
<g>
</g>
<g>
</g>
<g>
</g>
<g>
</g>
<g>
</g>
<g>
</g>
<g>
</g>
</svg>
