<?xml version="1.0" encoding="iso-8859-1"?>
<!-- Generator: Adobe Illustrator 19.0.0, SVG Export Plug-In . SVG Version: 6.00 Build 0)  -->
<svg version="1.1" id="Layer_1" xmlns="http://www.w3.org/2000/svg" xmlns:xlink="http://www.w3.org/1999/xlink" x="0px" y="0px"
	 viewBox="0 0 512 512" style="enable-background:new 0 0 512 512;" xml:space="preserve">
<polygon style="fill:#82C8DB;" points="301.011,0 278.505,450.11 334.769,450.11 334.769,0 "/>
<polygon style="fill:#A3DDE9;" points="143.473,0 177.231,78.769 177.231,450.11 301.011,450.11 301.011,0 "/>
<path style="fill:#FFFFFF;" d="M264.44,120.967c4.662,0,8.44-3.779,8.44-8.44c0-4.661-3.778-8.44-8.44-8.44h-36.571V53.451h36.571
	c4.662,0,8.44-3.779,8.44-8.44s-3.778-8.44-8.44-8.44h-45.011c-4.662,0-8.44,3.779-8.44,8.44v337.582c0,4.661,3.778,8.44,8.44,8.44
	h45.011c4.662,0,8.44-3.779,8.44-8.44s-3.778-8.44-8.44-8.44h-36.571v-50.637h36.571c4.662,0,8.44-3.779,8.44-8.44
	s-3.778-8.44-8.44-8.44h-36.571V256h36.571c4.662,0,8.44-3.779,8.44-8.44s-3.778-8.44-8.44-8.44h-36.571v-50.637h36.571
	c4.662,0,8.44-3.779,8.44-8.44s-3.778-8.44-8.44-8.44h-36.571v-50.637H264.44z"/>
<polygon style="fill:#62B3CD;" points="334.769,427.604 301.011,427.604 301.011,461.363 320.302,512 368.527,512 "/>
<polygon style="fill:#82C8DB;" points="301.011,427.604 177.231,427.604 143.473,512 320.302,512 "/>
<g>
</g>
<g>
</g>
<g>
</g>
<g>
</g>
<g>
</g>
<g>
</g>
<g>
</g>
<g>
</g>
<g>
</g>
<g>
</g>
<g>
</g>
<g>
</g>
<g>
</g>
<g>
</g>
<g>
</g>
</svg>
