<?xml version="1.0" encoding="iso-8859-1"?>
<!-- Generator: Adobe Illustrator 19.0.0, SVG Export Plug-In . SVG Version: 6.00 Build 0)  -->
<svg version="1.1" id="Layer_1" xmlns="http://www.w3.org/2000/svg" xmlns:xlink="http://www.w3.org/1999/xlink" x="0px" y="0px"
	 viewBox="0 0 512 512" style="enable-background:new 0 0 512 512;" xml:space="preserve">
<path style="fill:#C7FFEA;" d="M421.219,264.17v-16.34H346.78v-66.269h52.332v-16.34H346.78v-52.331h-16.34v52.331H264.17V90.78
	h-16.34v74.44h-66.269v-52.331h-16.34v52.331h-52.332v16.34h52.332v66.269H90.78v16.34h74.44v66.269h-52.331v16.34h52.331v52.331
	h16.34V346.78h66.269v74.439h16.34V346.78h66.269v52.332h16.34V346.78h52.331v-16.34H346.78V264.17H421.219z M330.439,181.561
	v66.269H264.17v-66.269L330.439,181.561L330.439,181.561z M181.561,181.561h66.269v66.269h-66.269L181.561,181.561L181.561,181.561z
	 M181.561,330.439V264.17h66.269v66.269H181.561z M330.439,330.439H264.17V264.17h66.269V330.439z"/>
<path style="fill:#9EF3D3;" d="M256,429.389c-95.608,0-173.389-77.782-173.389-173.389S160.392,82.611,256,82.611
	S429.389,160.392,429.389,256S351.608,429.389,256,429.389z M256,98.951c-86.597,0-157.049,70.452-157.049,157.049
	S169.403,413.049,256,413.049S413.049,342.597,413.049,256S342.597,98.951,256,98.951z"/>
<path style="fill:#6DDEB4;" d="M512,8.17v495.66c0,4.51-3.66,8.17-8.17,8.17h-24.511l-10.894-8.17l10.894-8.17h16.34v-66.266h-16.34
	l-10.894-8.17l10.894-8.17h16.34v-66.277h-16.34l-10.894-8.17l10.894-8.17h16.34V264.17h-16.34L468.426,256l10.894-8.17h16.34
	v-66.266h-16.34l-10.894-8.17l10.894-8.17h16.34V98.947h-16.34l-10.894-8.17l10.894-8.17h16.34V16.34h-16.34l-10.894-8.17L479.319,0
	h24.511C508.34,0,512,3.66,512,8.17z"/>
<path style="fill:#9EF3D3;" d="M479.319,16.34V0H8.17C3.66,0,0,3.66,0,8.17v495.66c0,4.51,3.66,8.17,8.17,8.17h471.149v-16.34
	h-49.925v-66.266h49.925v-16.34h-49.925v-66.277h49.925v-16.34h-49.925V264.17h49.925v-16.34h-49.925v-66.266h49.925v-16.34h-49.925
	V98.947h49.925v-16.34h-49.925V16.34H479.319z M264.17,16.34h66.266v66.266H264.17V16.34z M181.564,16.34h66.266v66.266h-66.266
	V16.34z M98.947,16.34h66.277v66.266H98.947V16.34z M82.606,495.66H16.34v-66.266h66.266V495.66z M82.606,413.053H16.34v-66.277
	h66.266V413.053z M82.606,330.436H16.34V264.17h66.266V330.436z M82.606,247.83H16.34v-66.266h66.266V247.83z M82.606,165.223H16.34
	V98.947h66.266V165.223z M82.606,82.606H16.34V16.34h66.266V82.606z M165.223,495.66H98.947v-66.266h66.277V495.66z M247.83,495.66
	h-66.266v-66.266h66.266V495.66z M330.436,495.66H264.17v-66.266h66.266L330.436,495.66L330.436,495.66z M413.053,495.66h-66.277
	v-66.266h66.277V495.66z M413.053,165.223h-13.944v16.34h13.944v148.872h-13.944v16.34h13.944v66.277h-66.277v-13.944h-16.34v13.944
	H181.564v-13.944h-16.34v13.944H98.947v-66.277h13.944v-16.34H98.947V181.564h13.944v-16.34H98.947V98.947h66.277v13.944h16.34
	V98.947h148.872v13.944h16.34V98.947h66.277V165.223z M413.053,82.606h-66.277V16.34h66.277V82.606z"/>
<g>
</g>
<g>
</g>
<g>
</g>
<g>
</g>
<g>
</g>
<g>
</g>
<g>
</g>
<g>
</g>
<g>
</g>
<g>
</g>
<g>
</g>
<g>
</g>
<g>
</g>
<g>
</g>
<g>
</g>
</svg>
