<?xml version="1.0" encoding="iso-8859-1"?>
<!-- Generator: Adobe Illustrator 19.0.0, SVG Export Plug-In . SVG Version: 6.00 Build 0)  -->
<svg version="1.1" id="Layer_1" xmlns="http://www.w3.org/2000/svg" xmlns:xlink="http://www.w3.org/1999/xlink" x="0px" y="0px"
	 viewBox="0 0 512 512" style="enable-background:new 0 0 512 512;" xml:space="preserve">
<polygon style="fill:#2AA175;" points="475.429,393.846 475.429,512 441.67,512 362.901,371.341 "/>
<polygon style="fill:#4FC297;" points="70.33,371.341 70.33,387.095 36.571,393.846 36.571,512 441.67,512 441.67,371.341 "/>
<polygon style="fill:#82C8DB;" points="475.429,0 475.429,393.846 441.67,393.846 317.89,196.923 441.67,0 "/>
<rect x="36.571" style="fill:#A3DDE9;" width="405.099" height="393.846"/>
<circle style="fill:#C7FFEA;" cx="256" cy="196.923" r="151.912"/>
<path style="fill:#FFFFFF;" d="M256,331.956c-74.457,0-135.033-60.576-135.033-135.033S181.543,61.89,256,61.89
	s135.033,60.576,135.033,135.033S330.457,331.956,256,331.956z"/>
<g>
	<circle style="fill:#06384A;" cx="365.714" cy="452.923" r="25.319"/>
	<circle style="fill:#06384A;" cx="146.286" cy="452.923" r="25.319"/>
</g>
<path style="fill:#FFFFFF;" d="M312.264,461.363H199.736c-4.661,0-8.44-3.778-8.44-8.44s3.779-8.44,8.44-8.44h112.527
	c4.661,0,8.44,3.778,8.44,8.44S316.925,461.363,312.264,461.363z"/>
<g>
	<circle style="fill:#4FC297;" cx="256" cy="112.527" r="22.505"/>
	<circle style="fill:#4FC297;" cx="182.913" cy="154.725" r="22.505"/>
	<circle style="fill:#4FC297;" cx="182.913" cy="239.121" r="22.505"/>
	<circle style="fill:#4FC297;" cx="256" cy="281.319" r="22.505"/>
	<circle style="fill:#4FC297;" cx="329.087" cy="239.121" r="22.505"/>
	<circle style="fill:#4FC297;" cx="329.087" cy="154.725" r="22.505"/>
</g>
<g>
</g>
<g>
</g>
<g>
</g>
<g>
</g>
<g>
</g>
<g>
</g>
<g>
</g>
<g>
</g>
<g>
</g>
<g>
</g>
<g>
</g>
<g>
</g>
<g>
</g>
<g>
</g>
<g>
</g>
</svg>
