<?xml version="1.0" encoding="iso-8859-1"?>
<!-- Generator: Adobe Illustrator 19.0.0, SVG Export Plug-In . SVG Version: 6.00 Build 0)  -->
<svg version="1.1" id="Layer_1" xmlns="http://www.w3.org/2000/svg" xmlns:xlink="http://www.w3.org/1999/xlink" x="0px" y="0px"
	 viewBox="0 0 512 512" style="enable-background:new 0 0 512 512;" xml:space="preserve">
<rect x="466.989" y="256" style="fill:#941108;" width="45.011" height="256"/>
<path style="fill:#D93722;" d="M256,0l-22.505,61.89L256,123.78c73.022,0,132.22,59.197,132.22,132.22S329.022,388.22,256,388.22
	S123.78,329.022,123.78,256l-61.89-22.505L0,256c0,141.385,114.615,256,256,256s256-114.615,256-256S397.385,0,256,0z"/>
<g>
	<polygon style="fill:#EA5A20;" points="0,256 0,512 45.011,512 45.011,233.495 	"/>
	<path style="fill:#EA5A20;" d="M256,123.78V0C114.615,0,0,114.615,0,256h123.78C123.78,182.978,182.978,123.78,256,123.78z"/>
</g>
<path style="fill:#BD0A13;" d="M256,45.011C139.474,45.011,45.011,139.474,45.011,256S139.474,466.989,256,466.989
	S466.989,372.526,466.989,256S372.526,45.011,256,45.011z M256,388.22c-73.022,0-132.22-59.197-132.22-132.22
	S182.978,123.78,256,123.78S388.22,182.978,388.22,256S329.022,388.22,256,388.22z"/>
<path style="fill:#941108;" d="M256,90.022c-91.667,0-165.978,74.311-165.978,165.978S164.333,421.978,256,421.978
	S421.978,347.667,421.978,256S347.667,90.022,256,90.022z M256,376.967c-66.809,0-120.967-54.158-120.967-120.967
	S189.191,135.033,256,135.033S376.967,189.191,376.967,256S322.809,376.967,256,376.967z"/>
<g>
</g>
<g>
</g>
<g>
</g>
<g>
</g>
<g>
</g>
<g>
</g>
<g>
</g>
<g>
</g>
<g>
</g>
<g>
</g>
<g>
</g>
<g>
</g>
<g>
</g>
<g>
</g>
<g>
</g>
</svg>
