<?xml version="1.0" encoding="iso-8859-1"?>
<!-- Generator: Adobe Illustrator 19.0.0, SVG Export Plug-In . SVG Version: 6.00 Build 0)  -->
<svg version="1.1" id="Layer_1" xmlns="http://www.w3.org/2000/svg" xmlns:xlink="http://www.w3.org/1999/xlink" x="0px" y="0px"
	 viewBox="0 0 512 512" style="enable-background:new 0 0 512 512;" xml:space="preserve">
<path style="fill:#82C8DB;" d="M356.068,212.954V93.717h-33.346v190.938l78.193-21.179
	C393.915,240.889,377.406,222.484,356.068,212.954z"/>
<path style="fill:#A3DDE9;" d="M343.128,212.954V93.717h-53.752v119.237c-21.338,9.531-37.847,27.935-44.846,50.522l78.193,21.179
	l47.833-21.179C366.287,240.889,356.185,222.484,343.128,212.954z"/>
<path style="fill:#146A8A;" d="M400.915,263.476h-30.36l-47.833,106.096c45.206,0,81.846-36.65,81.846-81.846
	C404.568,279.276,403.287,271.132,400.915,263.476z"/>
<path style="fill:#2089B0;" d="M370.555,263.476H244.529c-2.372,7.656-3.653,15.799-3.653,24.25
	c0,45.196,36.639,81.846,81.846,81.846c27.66,0,50.078-36.65,50.078-81.846C372.8,279.276,372.016,271.132,370.555,263.476z"/>
<rect x="136.953" style="fill:#6DDEB4;" width="27.533" height="490.821"/>
<path style="fill:#4FC297;" d="M366.656,169.96H87.185c-4.387,0-7.942-3.555-7.942-7.942c0-4.387,3.555-7.942,7.942-7.942h279.47
	c4.387,0,7.942,3.555,7.942,7.942C374.598,166.405,371.043,169.96,366.656,169.96z"/>
<path style="fill:#9EF3D3;" d="M398.048,345.745H87.185c-4.387,0-7.942-3.555-7.942-7.942c0-4.387,3.555-7.942,7.942-7.942h310.863
	c4.387,0,7.942,3.555,7.942,7.942C405.99,342.19,402.434,345.745,398.048,345.745z"/>
<g>
	<circle style="fill:#06384A;" cx="150.72" cy="162.019" r="21.179"/>
	<circle style="fill:#06384A;" cx="150.72" cy="337.803" r="21.178"/>
</g>
<polygon style="fill:#084B63;" points="390.399,469.642 417.361,490.821 400.989,512 140.128,512 124.244,490.821 150.718,469.642 
	"/>
<path style="fill:#82C8DB;" d="M357.602,101.658h-69.762c-4.387,0-7.942-3.555-7.942-7.942s3.555-7.942,7.942-7.942h69.762
	c4.387,0,7.942,3.555,7.942,7.942S361.989,101.658,357.602,101.658z"/>
<polygon style="fill:#146A8A;" points="150.718,469.642 140.128,512 108.36,512 118.949,469.642 "/>
<polygon style="fill:#06384A;" points="422.168,469.642 432.757,512 400.989,512 390.399,469.642 "/>
<g>
</g>
<g>
</g>
<g>
</g>
<g>
</g>
<g>
</g>
<g>
</g>
<g>
</g>
<g>
</g>
<g>
</g>
<g>
</g>
<g>
</g>
<g>
</g>
<g>
</g>
<g>
</g>
<g>
</g>
</svg>
