<?xml version="1.0" encoding="iso-8859-1"?>
<!-- Generator: Adobe Illustrator 19.0.0, SVG Export Plug-In . SVG Version: 6.00 Build 0)  -->
<svg version="1.1" id="Layer_1" xmlns="http://www.w3.org/2000/svg" xmlns:xlink="http://www.w3.org/1999/xlink" x="0px" y="0px"
	 viewBox="0 0 512.001 512.001" style="enable-background:new 0 0 512.001 512.001;" xml:space="preserve">
<path style="fill:#146A8A;" d="M136.185,504.843l68.276-97.508l53.081-25.583l138.983-198.488c5.103-7.289,7.766-15.551,8.18-23.827
	l69.082-98.66l-151.95,70.19L182.853,329.455l-5.886,58.63l-68.276,97.508c-5.315,7.592-3.471,18.055,4.122,23.372
	C120.404,514.28,130.868,512.435,136.185,504.843z"/>
<path style="fill:#82C8DB;" d="M120.312,336.728l-84.169,84.171c-6.553,6.553-6.553,17.178,0,23.732
	c6.553,6.553,17.178,6.553,23.732,0l84.171-84.171l56.718-15.978l-24.295-40.177l-40.177-24.295L120.312,336.728z"/>
<g>
	<polygon style="fill:#419EBE;" points="160.113,256.187 184.408,296.364 224.586,320.659 248.409,296.836 224.114,256.658 
		183.937,232.363 	"/>
	<polygon style="fill:#419EBE;" points="207.761,208.54 232.055,248.717 272.232,273.011 296.057,249.188 271.762,209.011 
		231.585,184.716 	"/>
</g>
<rect x="182.49" y="235.846" transform="matrix(0.7071 0.7071 -0.7071 0.7071 245.483 -87.2648)" style="fill:#62B3CD;" width="91.18" height="33.691"/>
<path style="fill:#82C8DB;" d="M384.295,151.099l85.165-85.165c15.084-15.084,15.084-39.538,0-54.622
	c-15.084-15.084-39.538-15.084-54.621,0l-85.165,85.164c-8.078,1.845-15.753,5.902-22.044,12.193l-52.222,52.222l24.295,40.177
	l40.177,24.295l52.222-52.222C378.392,166.851,382.45,159.177,384.295,151.099z"/>
<g>
	
		<rect x="230.136" y="188.195" transform="matrix(0.7071 0.7071 -0.7071 0.7071 225.7438 -134.9124)" style="fill:#62B3CD;" width="91.18" height="33.691"/>
	
		<rect x="134.855" y="283.486" transform="matrix(0.7071 0.7071 -0.7071 0.7071 265.2176 -39.6285)" style="fill:#62B3CD;" width="91.18" height="33.691"/>
</g>
<g>
</g>
<g>
</g>
<g>
</g>
<g>
</g>
<g>
</g>
<g>
</g>
<g>
</g>
<g>
</g>
<g>
</g>
<g>
</g>
<g>
</g>
<g>
</g>
<g>
</g>
<g>
</g>
<g>
</g>
</svg>
