<?xml version="1.0" encoding="iso-8859-1"?>
<!-- Generator: Adobe Illustrator 19.0.0, SVG Export Plug-In . SVG Version: 6.00 Build 0)  -->
<svg version="1.1" id="Layer_1" xmlns="http://www.w3.org/2000/svg" xmlns:xlink="http://www.w3.org/1999/xlink" x="0px" y="0px"
	 viewBox="0 0 512 512" style="enable-background:new 0 0 512 512;" xml:space="preserve">
<polygon style="fill:#06384A;" points="419.165,326.33 419.165,512 385.407,512 351.648,303.824 "/>
<polygon style="fill:#084B63;" points="126.593,303.824 92.835,326.33 92.835,512 385.407,512 385.407,303.824 "/>
<g>
	<circle style="fill:#419EBE;" cx="334.769" cy="419.165" r="25.319"/>
	<circle style="fill:#419EBE;" cx="258.813" cy="419.165" r="25.319"/>
</g>
<polygon style="fill:#2089B0;" points="419.165,0 419.165,326.33 385.407,326.33 306.637,163.165 385.407,0 "/>
<polygon style="fill:#419EBE;" points="385.407,0 92.835,0 92.835,326.33 385.407,326.33 385.407,258.815 362.901,163.166 
	385.407,67.516 "/>
<path style="fill:#FFFFFF;" d="M199.736,427.604h-39.385c-4.661,0-8.44-3.778-8.44-8.44s3.779-8.44,8.44-8.44h39.385
	c4.661,0,8.44,3.778,8.44,8.44S204.397,427.604,199.736,427.604z"/>
<path style="fill:#A3DDE9;" d="M351.648,33.758H317.89v258.813h33.758c18.567,0,33.758-15.191,33.758-33.758V67.516
	C385.407,48.949,370.215,33.758,351.648,33.758z"/>
<path style="fill:#C4F5FF;" d="M317.89,33.758H160.352c-18.567,0-33.758,15.191-33.758,33.758v191.297
	c0,18.567,15.191,33.758,33.758,33.758H317.89c18.567,0,33.758-15.191,33.758-33.758V67.516
	C351.648,48.949,336.457,33.758,317.89,33.758z"/>
<g>
</g>
<g>
</g>
<g>
</g>
<g>
</g>
<g>
</g>
<g>
</g>
<g>
</g>
<g>
</g>
<g>
</g>
<g>
</g>
<g>
</g>
<g>
</g>
<g>
</g>
<g>
</g>
<g>
</g>
</svg>
