<?xml version="1.0" encoding="iso-8859-1"?>
<!-- Generator: Adobe Illustrator 19.0.0, SVG Export Plug-In . SVG Version: 6.00 Build 0)  -->
<svg version="1.1" id="Layer_1" xmlns="http://www.w3.org/2000/svg" xmlns:xlink="http://www.w3.org/1999/xlink" x="0px" y="0px"
	 viewBox="0 0 512 512" style="enable-background:new 0 0 512 512;" xml:space="preserve">
<g>
	<polygon style="fill:#C7FFEA;" points="374.998,249.305 271.124,353.179 101.849,410.241 158.821,240.876 262.695,137.002 
		357.275,154.944 	"/>
	<polygon style="fill:#C7FFEA;" points="271.124,353.179 79.343,432.747 79.253,432.747 79.253,512 418.028,512 474.292,432.589 
		418.028,353.179 	"/>
	<polygon style="fill:#C7FFEA;" points="0,93.972 0,432.747 79.253,432.747 79.253,432.657 158.821,240.876 158.821,93.972 
		79.411,37.708 	"/>
</g>
<polygon style="fill:#9EF3D3;" points="271.124,353.179 158.821,353.179 158.821,240.876 23.147,376.551 135.449,488.853 "/>
<polygon style="fill:#6DDEB4;" points="158.821,353.179 158.821,432.747 79.343,432.747 79.253,432.657 79.253,353.179 "/>
<polygon style="fill:#F77A20;" points="125.064,0 158.822,0 158.822,93.972 125.064,93.972 91.306,46.986 "/>
<rect x="0" style="fill:#F79A30;" width="125.063" height="93.972"/>
<polygon style="fill:#2AA175;" points="417.579,158.983 441.45,182.855 375.002,249.302 351.131,225.432 360.484,168.337 "/>
<rect x="293.153" y="85.461" transform="matrix(-0.7071 0.7071 -0.7071 -0.7071 685.2991 12.1238)" style="fill:#4FC297;" width="93.971" height="125.062"/>
<polygon style="fill:#941108;" points="512,478.242 512,512 418.028,512 418.028,478.242 465.014,444.484 "/>
<rect x="418.028" y="353.179" style="fill:#BD0A13;" width="93.972" height="125.063"/>
<g>
</g>
<g>
</g>
<g>
</g>
<g>
</g>
<g>
</g>
<g>
</g>
<g>
</g>
<g>
</g>
<g>
</g>
<g>
</g>
<g>
</g>
<g>
</g>
<g>
</g>
<g>
</g>
<g>
</g>
</svg>
