<?xml version="1.0" encoding="iso-8859-1"?>
<!-- Generator: Adobe Illustrator 19.0.0, SVG Export Plug-In . SVG Version: 6.00 Build 0)  -->
<svg version="1.1" id="Layer_1" xmlns="http://www.w3.org/2000/svg" xmlns:xlink="http://www.w3.org/1999/xlink" x="0px" y="0px"
	 viewBox="0 0 512 512" style="enable-background:new 0 0 512 512;" xml:space="preserve">
<path style="fill:#06384A;" d="M490.605,278.048l12.452-19.249l-30.024-133.723c-8.071-35.993-44.869-65.448-81.756-65.448H374.51
	l70.578,65.448L490.605,278.048z"/>
<path style="fill:#084B63;" d="M456.266,125.076c-8.071-35.993-44.869-65.448-81.756-65.448H120.723
	c-36.888,0-73.686,29.454-81.756,65.448L8.942,258.798l12.452,19.249l21.328,32.964l39.548-176.144h0.313
	c3.532-15.694,22.054-30.527,38.14-30.527h270.554c16.085,0,34.607,14.833,38.14,30.527h0.313l39.548,176.144l21.328-32.964
	L456.266,125.076z"/>
<path style="fill:#146A8A;" d="M16.767,247.62C7.545,247.62,0,255.165,0,264.387v74.424c0,9.222,7.545,16.767,16.767,16.767h60.507
	V247.62H16.767z"/>
<path style="fill:#084B63;" d="M495.233,247.621c9.222,0,16.767,7.545,16.767,16.767v74.424c0,9.222-7.545,16.767-16.767,16.767
	h-16.767V247.621H495.233z"/>
<path style="fill:#146A8A;" d="M478.466,247.621c9.222,0,16.767,7.545,16.767,16.767v74.424c0,9.222-7.545,16.767-16.767,16.767
	h-43.74V247.621H478.466z"/>
<path style="fill:#419EBE;" d="M416.618,229.377l0.168,216.642c34.529-2.56,62.776-32.998,62.776-67.616v-86.071
	C479.561,257.703,451.236,229.377,416.618,229.377z"/>
<path style="fill:#62B3CD;" d="M416.618,229.377H95.382c-34.618,0-62.944,28.325-62.944,62.955v86.071
	c0,34.618,28.247,65.056,62.776,67.627l83.78,6.249c14.084,1.051,30.818-6.93,37.178-17.74c0,0,0,0,14.129-24.022
	c12.296-20.903,39.101-20.903,51.397,0c14.129,24.022,14.129,24.022,14.129,24.022c6.36,10.809,23.094,18.79,37.178,17.74
	c0,0,83.78-6.249,83.78-6.26c16.085-2.672,29.242-33.065,29.242-67.616v-86.071C446.027,257.703,432.792,229.377,416.618,229.377z"
	/>
<path style="fill:#9EF3D3;" d="M446.027,292.333v86.071c0,16.946-14.833,32.931-31.734,34.182c0,0-83.78,6.26-83.824,6.26
	c-1.844,0-4.93-1.241-6.327-2.303l-13.548-23.027c-4.672-7.948-10.675-14.621-17.594-19.808l34.988-59.793l75.797-51.004h12.832
	C432.837,262.912,446.027,276.114,446.027,292.333z"/>
<path style="fill:#C7FFEA;" d="M354.4,262.912l-26.413,51.004L256,361.313c-22.334,0-42.734,12.039-54.594,32.204l-13.548,23.027
	c-1.397,1.062-4.482,2.303-6.327,2.303l-83.824-6.26c-8.764-0.648-16.968-5.254-22.826-11.905l11.178-115.73l126.58-22.04h21.35
	c3.532,8.697,12.05,14.844,22.01,14.844s18.477-6.148,22.01-14.844L354.4,262.912L354.4,262.912z"/>
<path style="fill:#9EF3D3;" d="M212.64,262.912L74.882,400.682c-5.466-6.181-8.909-14.118-8.909-22.278v-86.071
	c0-16.219,13.19-29.421,29.409-29.421H212.64L212.64,262.912z"/>
<path style="fill:#FFFFFF;" d="M403.785,262.912L292.999,373.709c-10.642-7.97-23.474-12.396-36.999-12.396l98.4-98.4H403.785
	L403.785,262.912z"/>
<g>
</g>
<g>
</g>
<g>
</g>
<g>
</g>
<g>
</g>
<g>
</g>
<g>
</g>
<g>
</g>
<g>
</g>
<g>
</g>
<g>
</g>
<g>
</g>
<g>
</g>
<g>
</g>
<g>
</g>
</svg>
