<svg viewBox="0 0 512.00011 512" xmlns="http://www.w3.org/2000/svg"><path d="m374.109375 116.675781 42.425781-42.425781 21.214844 21.210938-42.425781 42.425781zm0 0" fill="#53433f"/><path d="m427.144531 84.847656 10.605469 10.609375-42.425781 42.425781-10.605469-10.609374zm0 0" fill="#3e322e"/><path d="m57.878906 253.84375-37.765625-37.765625 21.214844-21.214844 58.976563 58.980469zm0 0" fill="#a8d3d8"/><path d="m295.886719 491.847656-37.765625-37.765625v-42.425781l58.976562 58.980469zm0 0" fill="#8ebac5"/><path d="m81.839844 277.804688 21.214844-21.210938 152.3125 152.308594-21.214844 21.214844zm0 0" fill="#a8d3d8"/><path d="m157.996094 353.960938 21.214844-21.210938 76.15625 76.15625-21.214844 21.210938zm0 0" fill="#8ebac5"/><path d="m291.386719 140.007812-256.75 109.109376c-30.054688 14.03125-42.96875 49.796874-29.023438 79.738281l297.074219-128.257813zm0 0" fill="#f66"/><path d="m262.585938 477.894531 109.398437-257.285156-58.132813-17.070313-130.742187 302.8125c30.804687 14.335938 66.117187.128907 79.476563-28.457031zm0 0" fill="#ff3e48"/><path d="m126.175781 364.566406 63.640625-63.636718 21.214844 21.210937-63.640625 63.640625zm0 0" fill="#deecf1"/><path d="m448.359375 0-63.640625 63.640625 63.640625 63.640625 63.640625-63.640625zm0 0" fill="#725d57"/><path d="m147.394531 385.785156-10.609375-10.605468 63.640625-63.640626 10.605469 10.609376zm0 0" fill="#c6e2e7"/><path d="m480.175781 31.816406 31.820313 31.820313-63.636719 63.636719-31.820313-31.816407zm0 0" fill="#53433f"/><path d="m395.328125 116.671875c-29.273437-29.273437-76.792969-29.273437-106.066406 0-29.273438 29.273437-29.273438 76.792969 0 106.066406 29.273437 29.273438 76.792969 29.273438 106.066406 0 29.273437-29.273437 29.273437-76.792969 0-106.066406zm0 0" fill="#deecf1"/><path d="m395.328125 222.738281c-29.273437 29.273438-76.792969 29.273438-106.066406 0l106.066406-106.066406c29.273437 29.273437 29.273437 76.792969 0 106.066406zm0 0" fill="#c6e2e7"/><path d="m374.113281 137.886719c-17.605469-17.609375-46.03125-17.609375-63.640625 0-17.605468 17.605469-17.605468 46.03125 0 63.640625 17.609375 17.605468 46.035156 17.605468 63.640625 0 17.609375-17.609375 17.609375-46.035156 0-63.640625zm0 0" fill="#a8d3d8"/><path d="m310.476562 201.523438 63.636719-63.636719c17.609375 17.605469 17.609375 46.03125 0 63.636719-17.605469 17.609374-46.03125 17.609374-63.636719 0zm0 0" fill="#8ebac5"/><path d="m321.078125 169.707031 21.210937-21.210937 21.214844 21.210937-21.214844 21.214844zm0 0" fill="#deecf1"/><path d="m331.683594 180.3125 21.214844-21.210938 10.605468 10.605469-21.210937 21.210938zm0 0" fill="#c6e2e7"/></svg>