<svg viewBox="-31 0 512 512" xmlns="http://www.w3.org/2000/svg"><path d="m210 346h30v91h-30zm0 0" fill="#a8d3d8"/><path d="m225 346h15v91h-15zm0 0" fill="#8ebac5"/><path d="m225 422c-24.902344 0-45 20.097656-45 45 0 24.898438 20.097656 45 45 45s45-20.101562 45-45c0-24.902344-20.097656-45-45-45zm0 0" fill="#c6e2e7"/><path d="m17.019531 252.148438c-11.292969-27.277344-17.019531-56.265626-17.019531-86.148438s5.726562-58.871094 17.019531-86.148438l27.714844 11.484376c-9.785156 23.613281-14.734375 48.734374-14.734375 74.664062s4.949219 51.050781 14.734375 74.664062zm0 0" fill="#00eed0"/><path d="m432.980469 252.148438-27.714844-11.484376c9.785156-23.613281 14.734375-48.734374 14.734375-74.664062s-4.949219-51.050781-14.734375-74.664062l27.714844-11.484376c11.292969 27.277344 17.019531 56.265626 17.019531 86.148438s-5.726562 58.871094-17.019531 86.148438zm0 0" fill="#00ddc1"/><path d="m72.449219 229.179688c-8.261719-19.964844-12.449219-41.222657-12.449219-63.179688s4.1875-43.214844 12.449219-63.179688l27.714843 11.457032c-6.734374 16.316406-10.164062 33.71875-10.164062 51.722656s3.429688 35.40625 10.164062 51.722656zm0 0" fill="#00eed0"/><path d="m377.550781 229.179688-27.714843-11.457032c6.734374-16.316406 10.164062-33.71875 10.164062-51.722656s-3.429688-35.40625-10.164062-51.722656l27.714843-11.457032c8.261719 19.964844 12.449219 41.222657 12.449219 63.179688s-4.1875 43.214844-12.449219 63.179688zm0 0" fill="#00ddc1"/><path d="m330 0v256c0 57.898438-47.101562 105-105 105s-105-47.101562-105-105v-256h60v256c0 24.898438 20.097656 45 45 45s45-20.101562 45-45v-256zm0 0" fill="#c6e2e7"/><g fill="#a8d3d8"><path d="m270 467c0 24.898438-20.097656 45-45 45v-90c24.902344 0 45 20.097656 45 45zm0 0"/><path d="m330 0v256c0 57.898438-47.101562 105-105 105v-60c24.902344 0 45-20.101562 45-45v-256zm0 0"/></g></svg>