<svg viewBox="0 0 512 512" xmlns="http://www.w3.org/2000/svg"><path d="m0 61h362v451h-362zm0 0" fill="#68544f"/><path d="m181 61h181v451h-181zm0 0" fill="#53433f"/><path d="m30 91h302v391h-302zm0 0" fill="#deecf1"/><path d="m181 91h151v391h-151zm0 0" fill="#c6e2e7"/><path d="m512 452v60h-90v-60l45-30zm0 0" fill="#68544f"/><path d="m467 422 45 30v60h-45zm0 0" fill="#53433f"/><path d="m512 151v301h-90v-301l45-30zm0 0" fill="#f66"/><path d="m512 151v301h-45v-331zm0 0" fill="#ff3e48"/><path d="m91 422h180v30h-180zm0 0" fill="#a8d3d8"/><path d="m512 151h-90l45-108.601562zm0 0" fill="#ffe470"/><path d="m512 151h-45v-108.601562zm0 0" fill="#fdbf00"/><path d="m241 30v61h-120v-61h30c0-16.5 13.5-30 30-30s30 13.5 30 30zm0 0" fill="#a8d3d8"/><path d="m241 91h-60v-91c16.5 0 30 13.5 30 30h30zm0 0" fill="#8ebac5"/><path d="m181 422h90v30h-90zm0 0" fill="#8ebac5"/><path d="m284.800781 211c-15.902343-27.898438-60-24.902344-103.800781-6.601562-10.199219 3.902343-20.398438 9-30 14.699218-51.597656 29.703125-93.601562 77.703125-73.800781 111.902344 8.101562 14.398438 24.300781 20.699219 43.800781 20.699219 18 0 39-5.101563 60-14.101563 10.199219-3.898437 20.398438-9 30-14.699218 51.597656-29.699219 93.601562-77.699219 73.800781-111.898438zm-88.800781 86.101562c-5.097656 2.996094-10.199219 5.699219-15 7.796876-41.398438 20.101562-73.199219 19.5-78 11.101562-.601562-.902344-.898438-2.101562-.898438-3.601562 0-12.597657 20.398438-42.300782 63.898438-67.5 5.097656-3 10.199219-5.699219 15-7.796876 24.601562-12.003906 45.902344-16.5 60-16.5 9.601562 0 15.902344 2.097657 18 5.398438 5.101562 9.300781-14.699219 43.199219-63 71.101562zm0 0" fill="#ff8f97"/><path d="m211 322.898438c-9.601562 5.699218-19.800781 10.800781-30 14.699218v-32.699218c4.800781-2.097657 9.902344-4.800782 15-7.796876 48.300781-27.902343 68.101562-61.800781 63-71.101562-2.097656-3.300781-8.398438-5.398438-18-5.398438-14.097656 0-35.398438 4.496094-60 16.5v-32.703124c43.800781-18.300782 87.898438-21.296876 103.800781 6.601562 19.800781 34.199219-22.203125 82.199219-73.800781 111.898438zm0 0" fill="#f66"/><path d="m211 219.097656c-9.601562-5.699218-19.800781-10.796875-30-14.699218-43.800781-18.300782-87.898438-21.296876-103.800781 6.601562-19.800781 34.199219 22.203125 82.199219 73.800781 111.898438 9.601562 5.699218 19.800781 10.800781 30 14.699218 21 9 42 14.101563 60 14.101563 19.5 0 35.699219-6.300781 43.800781-20.699219 3.300781-6 5.097657-12.300781 5.097657-18.898438 0-31.203124-36.300782-68.402343-78.898438-93.003906zm48 96.902344c-4.800781 8.398438-36.601562 9-78-11.101562-4.800781-2.097657-9.902344-4.800782-15-7.796876-48.300781-27.902343-68.101562-61.800781-63-71.101562 2.097656-3.300781 8.398438-5.398438 18-5.398438 14.097656 0 35.398438 4.496094 60 16.5 4.800781 2.097657 9.902344 4.796876 15 7.796876 48.300781 27.902343 68.101562 61.800781 63 71.101562zm0 0" fill="#00eed0"/><path d="m289.898438 312.101562c0 6.597657-1.796876 12.898438-5.097657 18.898438-8.101562 14.398438-24.300781 20.699219-43.800781 20.699219-18 0-39-5.101563-60-14.101563v-32.699218c41.398438 20.101562 73.199219 19.5 78 11.101562 5.101562-9.300781-14.699219-43.199219-63-71.101562-5.097656-3-10.199219-5.699219-15-7.796876v-32.703124c10.199219 3.902343 20.398438 9 30 14.699218 42.597656 24.601563 78.898438 61.800782 78.898438 93.003906zm0 0" fill="#00b2ad"/><path d="m181 151c-39.300781 0-60 60.300781-60 120s20.699219 120 60 120 60-60.300781 60-120-20.699219-120-60-120zm0 210c-10.5 0-30-34.199219-30-90s19.5-90 30-90 30 34.199219 30 90-19.5 90-30 90zm0 0" fill="#ffd400"/><path d="m241 271c0 59.699219-20.699219 120-60 120v-30c10.5 0 30-34.199219 30-90s-19.5-90-30-90v-30c39.300781 0 60 60.300781 60 120zm0 0" fill="#fdbf00"/></svg>