<svg viewBox="0 0 512 512" xmlns="http://www.w3.org/2000/svg"><path d="m512 256c0 97.5-55.601562 182.101562-136 225h-240c-80.398438-42.898438-136-127.5-136-225 0-140.699219 115.300781-256 256-256s256 115.300781 256 256zm0 0" fill="#deecf1"/><path d="m512 256c0 97.5-55.601562 182.101562-136 225h-120v-481c140.699219 0 256 115.300781 256 256zm0 0" fill="#c6e2e7"/><path d="m241 316h30v150h-30zm0 0" fill="#00b2ad"/><path d="m312.980469 232.007812 27.324219-20.492187 29.484374 29.484375h66.210938v-30h-53.789062l-17.664063-17.664062 39.871094-29.898438-68.289063-34.148438 23.289063-46.578124-26.835938-13.421876-36.710937 73.421876 51.710937 25.851562-52.589843 39.449219zm0 0" fill="#00ddc1"/><path d="m211 121h-54.273438l-30 60h-50.726562v30h69.273438l22.066406-44.132812 33.464844 54.5625 25.578124-15.671876-33.585937-54.757812h48.203125v-75h-30zm0 0" fill="#00eed0"/><path d="m170.117188 320.671875-27.40625-54.800781-73.421876 36.710937 13.421876 26.835938 46.578124-23.289063 18.453126 36.917969-22.347657 22.347656 21.210938 21.210938 77.59375-77.59375-21.210938-21.210938zm0 0" fill="#00eed0"/><path d="m387.183594 327.183594 55.527344-27.765625-13.421876-26.835938-53.292968 26.648438-59.628906-29.8125-13.417969 26.835937 52.921875 26.457032-34.144532 68.289062h84.273438v-30h-35.726562zm0 0" fill="#00ddc1"/><path d="m256 316h15v150h-15zm0 0" fill="#04909b"/><path d="m481 481v31h-450v-31c0-16.5 13.5-30 30-30h390c16.5 0 30 13.5 30 30zm0 0" fill="#725d57"/><path d="m481 481v31h-225v-61h195c16.5 0 30 13.5 30 30zm0 0" fill="#68544f"/><path d="m256 181c-41.398438 0-75 33.601562-75 75s33.601562 75 75 75 75-33.601562 75-75-33.601562-75-75-75zm0 0" fill="#00ddc1"/><path d="m256 331v-150c41.398438 0 75 33.601562 75 75s-33.601562 75-75 75zm0 0" fill="#00b2ad"/></svg>