<svg viewBox="0 0 512 512" xmlns="http://www.w3.org/2000/svg"><path d="m256 0c-140.699219 0-256 115.300781-256 256s115.300781 256 256 256 256-115.300781 256-256-115.300781-256-256-256zm0 0" fill="#68544f"/><path d="m512 256c0 140.699219-115.300781 256-256 256v-512c140.699219 0 256 115.300781 256 256zm0 0" fill="#53433f"/><path d="m256 31c-124.199219 0-225 100.800781-225 225s100.800781 225 225 225 225-100.800781 225-225-100.800781-225-225-225zm0 0" fill="#ffd400"/><path d="m481 256c0 124.199219-100.800781 225-225 225v-450c124.199219 0 225 100.800781 225 225zm0 0" fill="#fdbf00"/><path d="m364 93.699219c-31.800781-21.300781-69.898438-32.101563-108-32.101563s-76.199219 10.800782-108 32.101563l-12.601562 8.402343 66.601562 99.898438 12.300781-8.402344c12.300781-8.398437 27-12.296875 41.699219-12.296875s29.398438 3.898438 41.699219 12.296875l12.300781 8.402344 66.601562-99.902344zm0 0" fill="#68544f"/><path d="m183.007812 437.449219c-3-2.628907-130.710937-50.429688-121.613281-194.003907l.96875-14.96875 119.839844 7.734376-1.042969 15.042968c-4.425781 58.644532 52.035156 75.996094 55.035156 78.632813zm0 0" fill="#68544f"/><path d="m328.992188 437.449219-53.1875-107.5625c3.125-2.558594 55.195312-18.121094 55.195312-73.886719 0-3.988281-.191406-4.496094-1.199219-19.789062l119.835938-7.734376.96875 14.96875c9.128906 144.0625-118.613281 191.277344-121.613281 194.003907zm0 0" fill="#53433f"/><path d="m256 211c-24.902344 0-45 20.097656-45 45 0 24.898438 20.097656 45 45 45s45-20.101562 45-45c0-24.902344-20.097656-45-45-45zm0 0" fill="#68544f"/><g fill="#53433f"><path d="m301 256c0 24.898438-20.097656 45-45 45v-90c24.902344 0 45 20.097656 45 45zm0 0"/><path d="m376.601562 102.101562-66.601562 99.898438-12.300781-8.402344c-12.300781-8.398437-27-12.296875-41.699219-12.296875v-119.703125c38.101562 0 76.199219 10.800782 108 32.101563zm0 0"/></g></svg>