<svg viewBox="0 0 512 512" xmlns="http://www.w3.org/2000/svg"><path d="m512 256-70.5 70.5-21.300781-21 49.5-49.5-49.5-49.5 21.300781-21zm0 0" fill="#ffd400"/><path d="m286 241h211v30h-211zm0 0" fill="#ffd400"/><path d="m425.382812 35.386719 21.238282 21.210937-147.886719 148.097656-21.238281-21.210937zm0 0" fill="#f66"/><path d="m451 121h-30v-60h-60v-30h90zm0 0" fill="#ff8f97"/><path d="m296.605469 305.390625 150 150-21.210938 21.210937-150-150zm0 0" fill="#00b2ad"/><path d="m451 481h-90v-30h60v-60h30zm0 0" fill="#00ddc1"/><path d="m0 301h224.023438v30h-224.023438zm0 0" fill="#00ddc1"/><path d="m0 181h224.023438v30h-224.023438zm0 0" fill="#ff8f97"/><path d="m0 241h226v30h-226zm0 0" fill="#ffd400"/><g fill="#fdbf00"><path d="m0 256h226v15h-226zm0 0"/><path d="m286 256h211v15h-211zm0 0"/><path d="m512 256-70.5 70.5-21.300781-21 49.5-49.5zm0 0"/></g><path d="m301 256c0-58.800781 5.699219-117.601562 17.402344-175.199219l15.898437-80.800781h-156.601562l15.898437 80.800781c11.703125 57.597657 17.402344 116.398438 17.402344 175.199219s-5.699219 117.597656-17.402344 175.199219l-15.898437 80.800781h156.601562l-15.898437-80.800781c-11.703125-57.601563-17.402344-116.398438-17.402344-175.199219zm0 0" fill="#c6e2e7"/><path d="m318.402344 431.199219 15.898437 80.800781h-156.601562l15.898437-80.800781c11.703125-57.601563 17.402344-116.398438 17.402344-175.199219h90c0 58.800781 5.699219 117.597656 17.402344 175.199219zm0 0" fill="#a8d3d8"/></svg>