<svg viewBox="0 0 512 512" xmlns="http://www.w3.org/2000/svg"><path d="m76 62h60v30h-60zm0 0" fill="#c6e2e7"/><path d="m166 62h90v30h-90zm0 0" fill="#c6e2e7"/><path d="m496 422v15h-480v-15c60.300781 0 95.699219-101.699219 126.597656-191.398438 31.503906-90.300781 58.800782-168.601562 113.402344-168.601562s81.898438 78.300781 113.402344 168.898438c31.5 89.703124 66.898437 191.101562 126.597656 191.101562zm0 0" fill="#ffe470"/><path d="m496 422v15h-240v-375c54.601562 0 81.898438 78.300781 113.402344 168.898438 31.5 89.703124 66.898437 191.101562 126.597656 191.101562zm0 0" fill="#ffd400"/><path d="m241 242h30v90h-30zm0 0" fill="#fdbf00"/><path d="m241 362h30v75h-30zm0 0" fill="#fdbf00"/><path d="m241 137h30v75h-30zm0 0" fill="#fdbf00"/><g fill="#53433f"><path d="m331 437h30v45h-30zm0 0"/><path d="m421 437h30v45h-30zm0 0"/><path d="m151 437h30v45h-30zm0 0"/><path d="m241 437h30v45h-30zm0 0"/></g><path d="m31 332h45v30h-45zm0 0" fill="#68544f"/><path d="m31 242h45v30h-45zm0 0" fill="#68544f"/><path d="m31 152h45v30h-45zm0 0" fill="#68544f"/><path d="m31 62h45v30h-45zm0 0" fill="#68544f"/><path d="m256 137h15v75h-15zm0 0" fill="#ff9f00"/><path d="m256 242h15v90h-15zm0 0" fill="#ff9f00"/><path d="m256 362h15v75h-15zm0 0" fill="#ff9f00"/><path d="m256 437h15v45h-15zm0 0" fill="#53433f"/><path d="m512 422v30h-421v60h-30v-60h-61v-30h61v-422h30v422zm0 0" fill="#68544f"/><path d="m256 422h256v30h-256zm0 0" fill="#53433f"/></svg>