<svg viewBox="-16 0 512 512" xmlns="http://www.w3.org/2000/svg"><g fill="#ff9f00"><path d="m90 105h30v182h-30zm0 0"/><path d="m270 105h30v302h-30zm0 0"/><path d="m450 0h30v407h-30zm0 0"/></g><path d="m195 0c-57.898438 0-105 47.101562-105 105s47.101562 105 105 105 105-47.101562 105-105-47.101562-105-105-105zm0 0" fill="#c6e2e7"/><path d="m300 105c0 57.898438-47.101562 105-105 105v-210c57.898438 0 105 47.101562 105 105zm0 0" fill="#a8d3d8"/><path d="m195 60c-24.902344 0-45 20.097656-45 45 0 24.898438 20.097656 45 45 45s45-20.101562 45-45c0-24.902344-20.097656-45-45-45zm0 0" fill="#a8d3d8"/><path d="m240 105c0 24.898438-20.097656 45-45 45v-90c24.902344 0 45 20.097656 45 45zm0 0" fill="#8ebac5"/><path d="m375 302c-57.898438 0-105 47.101562-105 105s47.101562 105 105 105 105-47.101562 105-105-47.101562-105-105-105zm0 0" fill="#c6e2e7"/><path d="m480 407c0 57.898438-47.101562 105-105 105v-210c57.898438 0 105 47.101562 105 105zm0 0" fill="#a8d3d8"/><path d="m375 362c-24.902344 0-45 20.097656-45 45 0 24.898438 20.097656 45 45 45s45-20.101562 45-45c0-24.902344-20.097656-45-45-45zm0 0" fill="#a8d3d8"/><path d="m420 407c0 24.898438-20.097656 45-45 45v-90c24.902344 0 45 20.097656 45 45zm0 0" fill="#8ebac5"/><path d="m105 272c-24.902344 0-45 20.101562-45 45s20.097656 45 45 45c24.898438 0 45-20.101562 45-45s-20.101562-45-45-45zm0 60c-8.269531 0-15-6.730469-15-15s6.730469-15 15-15 15 6.730469 15 15-6.730469 15-15 15zm0 0" fill="#68544f"/><path d="m105 272v30c8.269531 0 15 6.730469 15 15s-6.730469 15-15 15v30c24.898438 0 45-20.101562 45-45s-20.101562-45-45-45zm0 0" fill="#53433f"/><path d="m210 452h-210l30-120h150zm0 0" fill="#725d57"/><path d="m210 452h-105v-120h75zm0 0" fill="#53433f"/></svg>