<svg viewBox="0 -20 512 512" xmlns="http://www.w3.org/2000/svg"><path d="m151 325.605469v105h-135v-30h105v-75zm0 0" fill="#c6e2e7"/><path d="m136 325.605469h15v105h-15zm0 0" fill="#a8d3d8"/><path d="m151 40.605469v105h-30v-75h-105v-30zm0 0" fill="#c6e2e7"/><path d="m56.605469 111.210938-56.605469-55.605469 56.605469-55.605469 21.210937 21.210938-34.394531 34.394531 34.394531 34.394531zm0 0" fill="#c6e2e7"/><path d="m136 40.605469h15v105h-15zm0 0" fill="#a8d3d8"/><path d="m497 400.605469v30h-136v-105h30v75zm0 0" fill="#c6e2e7"/><path d="m391 400.605469h106v30h-121v-105h15zm0 0" fill="#a8d3d8"/><path d="m497 40.605469v30h-106v75h-30v-105zm0 0" fill="#c6e2e7"/><path d="m497 40.605469v30h-106v75h-15v-105zm0 0" fill="#a8d3d8"/><path d="m376 130.605469c-57.898438 0-105 47.097656-105 105 0 57.898437 47.101562 105 105 105s105-47.101563 105-105c0-57.902344-47.101562-105-105-105zm0 0" fill="#00ddc1"/><path d="m481 235.605469c0 57.898437-47.101562 105-105 105v-210c57.898438 0 105 47.097656 105 105zm0 0" fill="#00b2ad"/><path d="m56.605469 471.210938-56.605469-55.605469 56.605469-55.605469 21.210937 21.210938-34.394531 34.394531 34.394531 34.394531zm0 0" fill="#c6e2e7"/><path d="m455.394531 111.210938-21.210937-21.210938 34.394531-34.394531-34.394531-34.394531 21.210937-21.210938 56.605469 55.605469zm0 0" fill="#a8d3d8"/><path d="m455.394531 471.210938-21.210937-21.210938 34.394531-34.394531-34.394531-34.394531 21.210937-21.210938 56.605469 55.605469zm0 0" fill="#a8d3d8"/><path d="m136 130.605469c-57.898438 0-105 47.097656-105 105 0 57.898437 47.101562 105 105 105s105-47.101563 105-105c0-57.902344-47.101562-105-105-105zm0 0" fill="#00ddc1"/><path d="m421 220.605469v30h-30v30h-30v-30h-30v-30h30v-30h30v30zm0 0" fill="#deecf1"/><path d="m421 220.605469v30h-30v30h-15v-90h15v30zm0 0" fill="#c6e2e7"/><path d="m241 235.605469c0 57.898437-47.101562 105-105 105v-210c57.898438 0 105 47.097656 105 105zm0 0" fill="#00b2ad"/><path d="m181 220.605469v30h-30v30h-30v-30h-30v-30h30v-30h30v30zm0 0" fill="#deecf1"/><path d="m181 220.605469v30h-30v30h-15v-90h15v30zm0 0" fill="#c6e2e7"/></svg>