<svg viewBox="0 -5 512 511" xmlns="http://www.w3.org/2000/svg"><path d="m512 366.5c0 75.597656-112.898438 135-256 135s-256-59.402344-256-135c0-57 64.601562-106.199219 163-125.699219l6 29.398438c-82.5 16.199219-139 54.902343-139 96.300781 0 57 103.898438 105 226 105s226-48 226-105c0-41.398438-56.5-80.101562-139-96.300781l6-29.398438c98.398438 19.5 163 68.699219 163 125.699219zm0 0" fill="#a8d3d8"/><path d="m512 366.5c0 75.597656-112.898438 135-256 135v-30c122.101562 0 226-48 226-105 0-41.398438-56.5-80.101562-139-96.300781l6-29.398438c98.398438 19.5 163 68.699219 163 125.699219zm0 0" fill="#8ebac5"/><path d="m512 135.5c0 57-64.601562 106.199219-163 125.699219l-6-29.398438c82.5-16.203125 139-54.902343 139-96.300781 0-57-103.898438-105-226-105s-226 48-226 105c0 41.398438 56.5 80.097656 139 96.300781l-6 29.398438c-98.398438-19.5-163-68.699219-163-125.699219 0-75.601562 112.898438-135 256-135s256 59.398438 256 135zm0 0" fill="#a8d3d8"/><path d="m512 135.5c0 57-64.601562 106.199219-163 125.699219l-6-29.398438c82.5-16.203125 139-54.902343 139-96.300781 0-57-103.898438-105-226-105v-30c143.101562 0 256 59.398438 256 135zm0 0" fill="#8ebac5"/><path d="m451 165.5c0 38.398438-35.699219 72.300781-95.097656 90.597656l-5.101563 1.503906-9.597656-28.203124 5.398437-1.796876c45.300782-14.101562 74.398438-38.402343 74.398438-62.101562 0-35.398438-67.800781-75-165-75s-165 39.601562-165 75c0 23.699219 29.101562 48 74.101562 61.800781l5.699219 2.097657-9.597656 28.203124-5.402344-1.800781c-59.101562-18-94.800781-51.902343-94.800781-90.300781 0-58.800781 85.5-105 195-105s195 46.199219 195 105zm0 0" fill="#c6e2e7"/><path d="m451 165.5c0 38.398438-35.699219 72.300781-95.097656 90.597656l-5.101563 1.503906-9.597656-28.203124 5.398437-1.796876c45.300782-14.101562 74.398438-38.402343 74.398438-62.101562 0-35.398438-67.800781-75-165-75v-30c109.5 0 195 46.199219 195 105zm0 0" fill="#a8d3d8"/><path d="m451 336.5c0 58.800781-85.5 105-195 105s-195-46.199219-195-105c0-38.402344 35.699219-72.300781 95.097656-90.601562l5.101563-1.5 9.597656 28.199218-5.398437 1.800782c-45.300782 14.101562-74.398438 38.402343-74.398438 62.101562 0 35.398438 67.800781 75 165 75s165-39.601562 165-75c0-23.699219-29.097656-48-74.097656-61.800781l-5.703125-2.097657 9.601562-28.203124 5.398438 1.800781c59.101562 18 94.800781 51.898437 94.800781 90.300781zm0 0" fill="#c6e2e7"/><path d="m451 336.5c0 58.800781-85.5 105-195 105v-30c97.199219 0 165-39.601562 165-75 0-23.699219-29.097656-48-74.097656-61.800781l-5.703125-2.097657 9.601562-28.203124 5.398438 1.800781c59.101562 18 94.800781 51.898437 94.800781 90.300781zm0 0" fill="#a8d3d8"/><path d="m421 306.5c0 48.601562-84.902344 75-165 75s-165-26.398438-165-75c0-24.902344 23.101562-46.5 64.800781-60.300781l5.398438-1.800781 9.601562 28.203124-5.402343 1.796876c-30.597657 10.5-44.398438 23.699218-44.398438 32.101562 0 18.300781 52.5 45 135 45s135-26.699219 135-45c0-8.402344-13.800781-21.601562-44.398438-32.101562l-5.402343-1.796876 9.601562-28.203124 5.398438 1.800781c41.699219 13.800781 64.800781 35.402343 64.800781 60.300781zm0 0" fill="#deecf1"/><path d="m421 306.5c0 48.601562-84.902344 75-165 75v-30c82.5 0 135-26.699219 135-45 0-8.402344-13.800781-21.601562-44.398438-32.101562l-5.402343-1.796876 9.601562-28.203124 5.398438 1.800781c41.699219 13.800781 64.800781 35.402343 64.800781 60.300781zm0 0" fill="#c6e2e7"/><path d="m421 195.5c0 24.898438-23.101562 46.5-64.800781 60.300781l-5.398438 1.800781-9.601562-28.203124 5.402343-1.796876c30.597657-10.203124 44.398438-23.402343 44.398438-32.101562 0-18.300781-52.5-45-135-45s-135 26.699219-135 45c0 8.699219 13.800781 21.898438 44.398438 32.101562l5.402343 1.796876-9.601562 28.203124-5.398438-1.800781c-41.699219-13.800781-64.800781-35.402343-64.800781-60.300781 0-48.601562 84.902344-75 165-75s165 26.398438 165 75zm0 0" fill="#deecf1"/><path d="m421 195.5c0 24.898438-23.101562 46.5-64.800781 60.300781l-5.398438 1.800781-9.601562-28.203124 5.402343-1.796876c30.597657-10.203124 44.398438-23.402343 44.398438-32.101562 0-18.300781-52.5-45-135-45v-30c80.097656 0 165 26.398438 165 75zm0 0" fill="#c6e2e7"/><path d="m151 210.5v90h105l30-45-30-45zm0 0" fill="#f66"/><path d="m256 210.5h105v90h-105zm0 0" fill="#00b2ad"/></svg>