<svg viewBox="0 0 512 512" xmlns="http://www.w3.org/2000/svg"><g fill="#deecf1"><path d="m121 0h30v61h-30zm0 0"/><path d="m121 91h30v60h-30zm0 0"/><path d="m196 0h30v61h-30zm0 0"/><path d="m196 91h30v90h-30zm0 0"/><path d="m121 181h30v120h-30zm0 0"/></g><path d="m361 181h30v120h-30zm0 0" fill="#c6e2e7"/><path d="m389.199219 268.597656-133.199219 30-133.199219-30c8.699219-66.296875 64.796875-117.597656 133.199219-117.597656s124.5 51.300781 133.199219 117.597656zm0 0" fill="#ffd400"/><path d="m497 243.101562v223.898438c0 16.570312-13.429688 30-30 30h-422c-16.570312 0-30-13.429688-30-30v-223.898438c9.902344-.902343 5.097656-.902343 15 0 17.699219 1.796876 36.398438 6.296876 52.597656 14.398438 12.601563 6.300781 26.402344 9.597656 40.203125 11.097656l133.199219 122.402344 133.199219-122.402344c13.800781-1.5 27.601562-4.796875 40.203125-11.097656 16.199218-8.101562 19.898437-12.601562 37.597656-14.398438 9.902344-.902343 20.097656-.902343 30 0zm0 0" fill="#00ddc1"/><path d="m467 497c16.570312 0 30-13.433594 30-30v-223.898438c-9.898438-.902343-20.101562-.902343-30 0-17.699219 1.796876-21.398438 6.296876-37.597656 14.398438-12.601563 6.300781-26.402344 9.597656-40.203125 11.097656l-133.199219 122.402344v106zm0 0" fill="#00b2ad"/><path d="m482 211v256c0 8.269531-6.730469 15-15 15h-422c-8.269531 0-15-6.730469-15-15v-256h-30v256c0 24.898438 20.101562 45 45 45h422c24.898438 0 45-20.101562 45-45v-256c-9.898438-.902344-20.101562-.902344-30 0zm0 0" fill="#725d57"/><path d="m482 211v256c0 8.269531-6.730469 15-15 15h-211v30h211c24.898438 0 45-20.101562 45-45v-256zm0 0" fill="#68544f"/><path d="m361 0h30v61h-30zm0 0" fill="#c6e2e7"/><path d="m361 91h30v60h-30zm0 0" fill="#c6e2e7"/><path d="m286 0h30v61h-30zm0 0" fill="#c6e2e7"/><path d="m286 91h30v90h-30zm0 0" fill="#c6e2e7"/><path d="m391 286c0 74.398438-60.601562 135-135 135s-135-60.601562-135-135c0-6 .902344-11.699219 1.800781-17.402344 22.5 2.402344 45.898438-.601562 66.601563-11.097656 20.996094-10.5 43.796875-15.601562 66.597656-15.601562s45.601562 5.101562 66.597656 15.601562c20.703125 10.5 44.101563 13.5 66.601563 11.101562.898437 5.699219 1.800781 11.398438 1.800781 17.398438zm0 0" fill="#00ffe7"/><path d="m389.199219 268.597656-133.199219 30v-147.597656c68.402344 0 124.5 51.300781 133.199219 117.597656zm0 0" fill="#fdbf00"/><path d="m391 286c0 74.398438-60.601562 135-135 135v-179.101562c22.800781 0 45.601562 5.101562 66.597656 15.601562 20.703125 10.5 44.101563 13.5 66.601563 11.101562.898437 5.699219 1.800781 11.398438 1.800781 17.398438zm0 0" fill="#00eed0"/></svg>