<?xml version="1.0" encoding="iso-8859-1"?>
<!-- Generator: Adobe Illustrator 19.0.0, SVG Export Plug-In . SVG Version: 6.00 Build 0)  -->
<svg version="1.1" id="Layer_1" xmlns="http://www.w3.org/2000/svg" xmlns:xlink="http://www.w3.org/1999/xlink" x="0px" y="0px"
	 viewBox="0 0 512 512" style="enable-background:new 0 0 512 512;" xml:space="preserve">
<path style="fill:#EDEEF0;" d="M191.01,141.325v119.041l-66.479,177.799c-6.276,16.785-3.925,35.596,6.289,50.321
	C141.035,503.209,157.832,512,175.752,512h160.496c17.93,0,34.731-8.797,44.945-23.534c10.213-14.737,12.553-33.558,6.259-50.346
	l-66.645-177.759V141.325H191.01z"/>
<path style="fill:#DCDEE2;" d="M387.452,438.119L320.807,260.36V141.325h-64.682V512h80.124c17.93,0,34.731-8.797,44.945-23.534
	C391.406,473.729,393.746,454.908,387.452,438.119z"/>
<path style="fill:#9ED04D;" d="M327.494,347.06h-143.09l-37.23,99.572c-3.554,9.504-2.275,19.738,3.509,28.074
	c5.783,8.338,14.92,13.119,25.068,13.119h160.496c10.152,0,19.292-4.786,25.076-13.131c5.783-8.345,7.056-18.583,3.492-28.09
	L327.494,347.06z"/>
<path style="fill:#86B143;" d="M364.816,446.605l-37.321-99.546h-71.369v140.765h80.124c10.152,0,19.292-4.786,25.076-13.131
	C367.108,466.351,368.38,456.112,364.816,446.605z"/>
<rect x="191.44" y="161.93" style="fill:#D8D9DD;" width="129.36" height="26.27"/>
<rect x="256.12" y="161.93" style="fill:#B7B9C0;" width="64.68" height="26.27"/>
<rect x="171.12" y="129.24" style="fill:#EDEEF0;" width="169.57" height="40.29"/>
<rect x="256.12" y="129.24" style="fill:#DCDEE2;" width="84.57" height="40.29"/>
<g>
	<circle style="fill:#FFFFFF;" cx="231.85" cy="395.15" r="19.803"/>
	<circle style="fill:#FFFFFF;" cx="196.71" cy="453.95" r="14"/>
</g>
<circle style="fill:#9ED04D;" cx="224.71" cy="312.87" r="14"/>
<circle style="fill:#86B143;" cx="288.47" cy="292.82" r="14"/>
<g>
	<circle style="fill:#9ED04D;" cx="256.12" cy="226.58" r="14"/>
	<circle style="fill:#9ED04D;" cx="231.85" cy="90.89" r="14"/>
</g>
<circle style="fill:#86B143;" cx="281.34" cy="53.86" r="14"/>
<circle style="fill:#9ED04D;" cx="236.99" cy="14" r="14"/>
<circle style="fill:#FFFFFF;" cx="312.32" cy="431.45" r="14"/>
<circle style="fill:#EDEEF0;" cx="312.32" cy="431.45" r="14"/>
<path style="fill:#86B143;" d="M270.128,226.578c0,7.733-6.27,14.003-14.003,14.003v-28.006
	C263.86,212.575,270.128,218.843,270.128,226.578z"/>
<g>
</g>
<g>
</g>
<g>
</g>
<g>
</g>
<g>
</g>
<g>
</g>
<g>
</g>
<g>
</g>
<g>
</g>
<g>
</g>
<g>
</g>
<g>
</g>
<g>
</g>
<g>
</g>
<g>
</g>
</svg>
