<?xml version="1.0" encoding="iso-8859-1"?>
<!-- Generator: Adobe Illustrator 19.0.0, SVG Export Plug-In . SVG Version: 6.00 Build 0)  -->
<svg version="1.1" id="Layer_1" xmlns="http://www.w3.org/2000/svg" xmlns:xlink="http://www.w3.org/1999/xlink" x="0px" y="0px"
	 viewBox="0 0 512 512" style="enable-background:new 0 0 512 512;" xml:space="preserve">
<path style="fill:#EDEEF0;" d="M215.805,11.931h-23.861v112.506c-18.331,10.478-33.861,25.307-45.206,43.24
	c-13.048,20.622-19.945,44.477-19.945,68.986c0,71.246,57.963,129.209,129.209,129.209s129.209-57.963,129.209-129.209
	c0-24.509-6.896-48.365-19.945-68.986c-11.345-17.932-26.876-32.761-45.206-43.24V11.931h-23.861H215.805z"/>
<path style="fill:#DCDEE2;" d="M365.264,167.676c-11.345-17.932-26.876-32.761-45.206-43.24V11.931h-23.861H256v353.941
	c71.246,0,129.209-57.963,129.209-129.209C385.21,212.153,378.313,188.298,365.264,167.676z"/>
<path style="fill:#F74D37;" d="M154.559,208.209c-2.573,9.198-3.907,18.76-3.907,28.453c0,58.089,47.259,105.347,105.347,105.347
	s105.347-47.259,105.347-105.347c0-9.692-1.333-19.255-3.907-28.453H154.559z"/>
<path style="fill:#B03727;" d="M357.442,208.209H256v133.8c58.089,0,105.347-47.259,105.347-105.347
	C361.347,226.97,360.016,217.407,357.442,208.209z"/>
<rect x="192.18" y="31.24" style="fill:#D8D9DD;" width="127.88" height="25.11"/>
<rect x="256.12" y="31.24" style="fill:#B7B9C0;" width="63.933" height="25.11"/>
<rect x="174.87" style="fill:#EDEEF0;" width="162.09" height="38.512"/>
<rect x="256.12" style="fill:#DCDEE2;" width="80.84" height="38.512"/>
<circle style="fill:#FFFFFF;" cx="199.321" cy="275.49" r="13.39"/>
<circle style="fill:#EDEEF0;" cx="309.83" cy="297" r="13.39"/>
<path style="fill:#444242;" d="M126.792,236.663c0,7.329,0.623,14.516,1.801,21.516h254.815c1.179-7,1.801-14.187,1.801-21.516
	c0-4.36-0.228-8.697-0.661-13H127.451C127.02,227.966,126.792,232.303,126.792,236.663z"/>
<g>
	<rect x="244.491" y="240.92" style="fill:#3A3839;" width="23.01" height="271.08"/>
	<polygon style="fill:#3A3839;" points="86.029,491.078 63.827,485.022 129.32,244.962 152.561,247.201 	"/>
	<polygon style="fill:#3A3839;" points="425.972,491.078 448.172,485.022 382.681,244.962 359.44,247.201 	"/>
	<path style="fill:#3A3839;" d="M126.882,240.92c0.194,5.857,0.762,11.621,1.711,17.259h254.815
		c0.949-5.638,1.518-11.401,1.711-17.259L126.882,240.92L126.882,240.92z"/>
</g>
<g>
</g>
<g>
</g>
<g>
</g>
<g>
</g>
<g>
</g>
<g>
</g>
<g>
</g>
<g>
</g>
<g>
</g>
<g>
</g>
<g>
</g>
<g>
</g>
<g>
</g>
<g>
</g>
<g>
</g>
</svg>
