<?xml version="1.0" encoding="iso-8859-1"?>
<!-- Generator: Adobe Illustrator 19.0.0, SVG Export Plug-In . SVG Version: 6.00 Build 0)  -->
<svg version="1.1" id="Layer_1" xmlns="http://www.w3.org/2000/svg" xmlns:xlink="http://www.w3.org/1999/xlink" x="0px" y="0px"
	 viewBox="0 0 512 512" style="enable-background:new 0 0 512 512;" xml:space="preserve">
<path style="fill:#EDEEF0;" d="M472.265,488.427H110.502V23.573H512l-39.735,111.944V488.427z"/>
<polygon style="fill:#DCDEE2;" points="291.384,23.573 291.384,488.427 472.265,488.427 472.265,135.518 512,23.573 "/>
<path style="fill:#EDEEF0;" d="M126.974,289.863h-44.29C37.092,289.863,0,252.771,0,207.178V106.257
	c0-45.593,37.092-82.684,82.684-82.684h44.29v32.944h-44.29c-27.426,0-49.739,22.313-49.739,49.739v100.922
	c0,27.427,22.313,49.739,49.739,49.739h44.29V289.863z"/>
<rect x="143.45" y="190.781" style="fill:#BCE8F7;" width="295.87" height="264.7"/>
<rect x="291.38" y="190.781" style="fill:#AFD9E8;" width="147.94" height="264.7"/>
<g>
	<rect x="110.51" y="78.561" style="fill:#444242;" width="97.19" height="32.944"/>
	<rect x="110.51" y="148.111" style="fill:#444242;" width="97.19" height="32.944"/>
	<rect x="110.51" y="217.561" style="fill:#444242;" width="97.19" height="32.944"/>
</g>
<g>
</g>
<g>
</g>
<g>
</g>
<g>
</g>
<g>
</g>
<g>
</g>
<g>
</g>
<g>
</g>
<g>
</g>
<g>
</g>
<g>
</g>
<g>
</g>
<g>
</g>
<g>
</g>
<g>
</g>
</svg>
