<?xml version="1.0" encoding="iso-8859-1"?>
<!-- Generator: Adobe Illustrator 19.0.0, SVG Export Plug-In . SVG Version: 6.00 Build 0)  -->
<svg version="1.1" id="Layer_1" xmlns="http://www.w3.org/2000/svg" xmlns:xlink="http://www.w3.org/1999/xlink" x="0px" y="0px"
	 viewBox="0 0 512 512" style="enable-background:new 0 0 512 512;" xml:space="preserve">
<polygon style="fill:#69351D;" points="201.847,81.889 193.52,0 318.48,0 310.153,81.889 "/>
<polygon style="fill:#592D19;" points="318.48,0 256,0 256,81.889 310.153,81.889 "/>
<path style="fill:#EDEEF0;" d="M413.545,512H98.455V295.978c0-59.351,33.158-113.175,85.363-140.069V63.505h144.363v92.406
	c52.205,26.893,85.363,80.718,85.363,140.069V512H413.545z"/>
<path style="fill:#DCDEE2;" d="M413.545,295.978c0-59.351-33.158-113.175-85.363-140.069V63.505H256V512h157.545L413.545,295.978
	L413.545,295.978z"/>
<rect x="131.85" y="353.27" style="fill:#BCE8F7;" width="248.31" height="125.34"/>
<rect x="256" y="353.27" style="fill:#AFD9E8;" width="124.15" height="125.34"/>
<path style="fill:#FFFFFF;" d="M334.446,418.785H177.554V276.621h156.892L334.446,418.785L334.446,418.785z"/>
<path style="fill:#EDEEF0;" d="M334.446,418.785H256V276.621h78.446L334.446,418.785L334.446,418.785z"/>
<g>
	<rect x="210.89" y="308.75" style="fill:#444242;" width="90.22" height="11.13"/>
	<rect x="210.89" y="342.14" style="fill:#444242;" width="90.22" height="11.13"/>
	<rect x="210.89" y="375.53" style="fill:#444242;" width="90.22" height="11.13"/>
</g>
<g>
	<rect x="256" y="308.75" style="fill:#3A3839;" width="45.12" height="11.13"/>
	<rect x="256" y="342.14" style="fill:#3A3839;" width="45.12" height="11.13"/>
	<rect x="256" y="375.53" style="fill:#3A3839;" width="45.12" height="11.13"/>
</g>
<g>
</g>
<g>
</g>
<g>
</g>
<g>
</g>
<g>
</g>
<g>
</g>
<g>
</g>
<g>
</g>
<g>
</g>
<g>
</g>
<g>
</g>
<g>
</g>
<g>
</g>
<g>
</g>
<g>
</g>
</svg>
