<?xml version="1.0" encoding="iso-8859-1"?>
<!-- Generator: Adobe Illustrator 19.0.0, SVG Export Plug-In . SVG Version: 6.00 Build 0)  -->
<svg version="1.1" id="Layer_1" xmlns="http://www.w3.org/2000/svg" xmlns:xlink="http://www.w3.org/1999/xlink" x="0px" y="0px"
	 viewBox="0 0 512 512" style="enable-background:new 0 0 512 512;" xml:space="preserve">
<polygon style="fill:#69351D;" points="201.848,81.889 193.521,0 318.48,0 310.153,81.889 "/>
<polygon style="fill:#592D19;" points="318.48,0 256,0 256,81.889 310.153,81.889 "/>
<path style="fill:#EDEEF0;" d="M393.393,512H118.607l-18.491-242.707l77.767-103.546l-6.112-102.242h168.458l-6.112,102.242
	l77.767,103.546L393.393,512z"/>
<polygon style="fill:#D8D9DD;" points="411.884,269.293 334.117,165.747 340.229,63.505 256,63.505 256,512 393.393,512 "/>
<polygon style="fill:#F9D026;" points="325.592,209.999 186.409,209.999 134.366,279.294 149.552,478.609 362.449,478.609 
	377.635,279.294 "/>
<polygon style="fill:#E7C224;" points="377.635,279.294 325.592,209.999 256,209.999 256,478.609 362.449,478.609 "/>
<path style="fill:#FFFFFF;" d="M334.447,418.785H177.554V276.621h156.892v142.164H334.447z"/>
<path style="fill:#EDEEF0;" d="M334.447,418.785h-78.446V276.621h78.446L334.447,418.785L334.447,418.785z"/>
<g>
	<rect x="210.891" y="308.75" style="fill:#444242;" width="90.22" height="11.13"/>
	<rect x="210.891" y="342.14" style="fill:#444242;" width="90.22" height="11.13"/>
	<rect x="210.891" y="375.53" style="fill:#444242;" width="90.22" height="11.13"/>
</g>
<g>
	<rect x="256.001" y="308.75" style="fill:#3A3839;" width="45.12" height="11.13"/>
	<rect x="256.001" y="342.14" style="fill:#3A3839;" width="45.12" height="11.13"/>
	<rect x="256.001" y="375.53" style="fill:#3A3839;" width="45.12" height="11.13"/>
</g>
<g>
</g>
<g>
</g>
<g>
</g>
<g>
</g>
<g>
</g>
<g>
</g>
<g>
</g>
<g>
</g>
<g>
</g>
<g>
</g>
<g>
</g>
<g>
</g>
<g>
</g>
<g>
</g>
<g>
</g>
</svg>
