<?xml version="1.0" encoding="iso-8859-1"?>
<!-- Generator: Adobe Illustrator 19.0.0, SVG Export Plug-In . SVG Version: 6.00 Build 0)  -->
<svg version="1.1" id="Layer_1" xmlns="http://www.w3.org/2000/svg" xmlns:xlink="http://www.w3.org/1999/xlink" x="0px" y="0px"
	 viewBox="0 0 512 512" style="enable-background:new 0 0 512 512;" xml:space="preserve">
<path style="fill:#A3DDE9;" d="M512,0v33.211L194.726,44.115l-11.07,84.82c0,0.011-33.211,0-33.211,0v-92.57
	C150.445,16.362,166.818,0,186.811,0h235.138l8.303,11.07L438.554,0H512z"/>
<path style="fill:#82C8DB;" d="M512,33.211v17.358H201.014v78.378h-17.358c0-0.011,0-92.581,0-92.581
	c0-1.649,1.506-3.155,3.155-3.155C186.811,33.211,512,33.211,512,33.211z"/>
<path style="fill:#419EBE;" d="M508.942,485.166l-63.198-109.463c-1.933-3.348-4.4-5.941-7.19-7.663V0h-16.605v368.04
	c-2.79,1.721-5.257,4.315-7.19,7.663L351.56,485.166c-3.7,6.407-4.059,13.136-0.986,18.459c3.073,5.324,9.079,8.376,16.479,8.376
	H493.45c7.4,0,13.405-3.053,16.479-8.376C513.002,498.302,512.642,491.573,508.942,485.166z M493.45,495.395H367.053
	c-0.859,0-1.472-0.102-1.865-0.208c0.104-0.393,0.323-0.975,0.753-1.719l63.199-109.463c0.43-0.744,0.824-1.223,1.113-1.511
	c0.289,0.288,0.683,0.767,1.113,1.511l63.198,109.463c0.43,0.744,0.649,1.325,0.753,1.719
	C494.922,495.293,494.309,495.395,493.45,495.395z"/>
<polygon style="fill:#F77A20;" points="206.748,106.795 214.808,148.464 175.735,181.674 136.662,148.464 144.711,106.795 "/>
<path style="fill:#D93722;" d="M326.385,206.261l-42.598,22.141l-68.979-79.938C261.192,156.18,300.901,177.335,326.385,206.261z"/>
<g>
	<path style="fill:#EA5A20;" d="M294.857,206.261c-18.277-28.927-46.772-50.082-80.049-57.798h-78.145
		c-46.396,7.716-86.105,28.871-111.577,57.798l53.669,22.141L294.857,206.261z"/>
	<polygon style="fill:#EA5A20;" points="326.385,206.261 332.33,250.875 276.978,250.875 294.857,206.261 	"/>
</g>
<polygon style="fill:#F77A20;" points="294.857,206.261 25.085,206.261 19.129,250.875 299.119,250.875 "/>
<g>
	<path style="fill:#A3DDE9;" d="M65.029,322.384c-4.586,0-8.303-3.716-8.303-8.303v-22.141c0-4.586,3.716-8.303,8.303-8.303
		s8.303,3.716,8.303,8.303v22.141C73.332,318.667,69.615,322.384,65.029,322.384z"/>
	<path style="fill:#A3DDE9;" d="M65.029,512c-4.586,0-8.303-3.716-8.303-8.303v-22.141c0-4.586,3.716-8.303,8.303-8.303
		s8.303,3.716,8.303,8.303v22.141C73.332,508.284,69.615,512,65.029,512z"/>
	<path style="fill:#A3DDE9;" d="M65.029,448.794c-4.586,0-8.303-3.716-8.303-8.303v-22.141c0-4.586,3.716-8.303,8.303-8.303
		s8.303,3.716,8.303,8.303v22.141C73.332,445.078,69.615,448.794,65.029,448.794z"/>
	<path style="fill:#A3DDE9;" d="M65.029,385.59c-4.586,0-8.303-3.716-8.303-8.303v-22.141c0-4.586,3.716-8.303,8.303-8.303
		s8.303,3.716,8.303,8.303v22.141C73.332,381.872,69.615,385.59,65.029,385.59z"/>
	<path style="fill:#A3DDE9;" d="M109.31,322.384c-4.586,0-8.303-3.716-8.303-8.303v-22.141c0-4.586,3.716-8.303,8.303-8.303
		s8.303,3.716,8.303,8.303v22.141C117.613,318.667,113.896,322.384,109.31,322.384z"/>
	<path style="fill:#A3DDE9;" d="M109.31,512c-4.586,0-8.303-3.716-8.303-8.303v-22.141c0-4.586,3.716-8.303,8.303-8.303
		s8.303,3.716,8.303,8.303v22.141C117.613,508.284,113.896,512,109.31,512z"/>
	<path style="fill:#A3DDE9;" d="M109.31,448.794c-4.586,0-8.303-3.716-8.303-8.303v-22.141c0-4.586,3.716-8.303,8.303-8.303
		s8.303,3.716,8.303,8.303v22.141C117.613,445.078,113.896,448.794,109.31,448.794z"/>
	<path style="fill:#A3DDE9;" d="M109.31,385.59c-4.586,0-8.303-3.716-8.303-8.303v-22.141c0-4.586,3.716-8.303,8.303-8.303
		s8.303,3.716,8.303,8.303v22.141C117.613,381.872,113.896,385.59,109.31,385.59z"/>
	<path style="fill:#A3DDE9;" d="M153.591,322.384c-4.586,0-8.303-3.716-8.303-8.303v-22.141c0-4.586,3.716-8.303,8.303-8.303
		c4.586,0,8.303,3.716,8.303,8.303v22.141C161.894,318.667,158.178,322.384,153.591,322.384z"/>
	<path style="fill:#A3DDE9;" d="M153.591,512c-4.586,0-8.303-3.716-8.303-8.303v-22.141c0-4.586,3.716-8.303,8.303-8.303
		c4.586,0,8.303,3.716,8.303,8.303v22.141C161.894,508.284,158.178,512,153.591,512z"/>
	<path style="fill:#A3DDE9;" d="M153.591,448.794c-4.586,0-8.303-3.716-8.303-8.303v-22.141c0-4.586,3.716-8.303,8.303-8.303
		c4.586,0,8.303,3.716,8.303,8.303v22.141C161.894,445.078,158.178,448.794,153.591,448.794z"/>
	<path style="fill:#A3DDE9;" d="M153.591,385.59c-4.586,0-8.303-3.716-8.303-8.303v-22.141c0-4.586,3.716-8.303,8.303-8.303
		c4.586,0,8.303,3.716,8.303,8.303v22.141C161.894,381.872,158.178,385.59,153.591,385.59z"/>
	<path style="fill:#A3DDE9;" d="M197.872,322.384c-4.586,0-8.303-3.716-8.303-8.303v-22.141c0-4.586,3.716-8.303,8.303-8.303
		c4.586,0,8.303,3.716,8.303,8.303v22.141C206.175,318.667,202.459,322.384,197.872,322.384z"/>
	<path style="fill:#A3DDE9;" d="M197.872,512c-4.586,0-8.303-3.716-8.303-8.303v-22.141c0-4.586,3.716-8.303,8.303-8.303
		c4.586,0,8.303,3.716,8.303,8.303v22.141C206.175,508.284,202.459,512,197.872,512z"/>
	<path style="fill:#A3DDE9;" d="M197.872,448.794c-4.586,0-8.303-3.716-8.303-8.303v-22.141c0-4.586,3.716-8.303,8.303-8.303
		c4.586,0,8.303,3.716,8.303,8.303v22.141C206.175,445.078,202.459,448.794,197.872,448.794z"/>
	<path style="fill:#A3DDE9;" d="M197.872,385.59c-4.586,0-8.303-3.716-8.303-8.303v-22.141c0-4.586,3.716-8.303,8.303-8.303
		c4.586,0,8.303,3.716,8.303,8.303v22.141C206.175,381.872,202.459,385.59,197.872,385.59z"/>
	<path style="fill:#A3DDE9;" d="M242.153,322.384c-4.586,0-8.303-3.716-8.303-8.303v-22.141c0-4.586,3.716-8.303,8.303-8.303
		c4.586,0,8.303,3.716,8.303,8.303v22.141C250.456,318.667,246.74,322.384,242.153,322.384z"/>
	<path style="fill:#A3DDE9;" d="M242.153,512c-4.586,0-8.303-3.716-8.303-8.303v-22.141c0-4.586,3.716-8.303,8.303-8.303
		c4.586,0,8.303,3.716,8.303,8.303v22.141C250.456,508.284,246.74,512,242.153,512z"/>
	<path style="fill:#A3DDE9;" d="M242.153,448.794c-4.586,0-8.303-3.716-8.303-8.303v-22.141c0-4.586,3.716-8.303,8.303-8.303
		c4.586,0,8.303,3.716,8.303,8.303v22.141C250.456,445.078,246.74,448.794,242.153,448.794z"/>
	<path style="fill:#A3DDE9;" d="M242.153,385.59c-4.586,0-8.303-3.716-8.303-8.303v-22.141c0-4.586,3.716-8.303,8.303-8.303
		c4.586,0,8.303,3.716,8.303,8.303v22.141C250.456,381.872,246.74,385.59,242.153,385.59z"/>
</g>
<g>
	<path style="fill:#82C8DB;" d="M286.434,322.384c-4.586,0-8.303-3.716-8.303-8.303v-22.141c0-4.586,3.716-8.303,8.303-8.303
		c4.586,0,8.303,3.716,8.303,8.303v22.141C294.737,318.667,291.021,322.384,286.434,322.384z"/>
	<path style="fill:#82C8DB;" d="M286.434,512c-4.586,0-8.303-3.716-8.303-8.303v-22.141c0-4.586,3.716-8.303,8.303-8.303
		c4.586,0,8.303,3.716,8.303,8.303v22.141C294.737,508.284,291.021,512,286.434,512z"/>
	<path style="fill:#82C8DB;" d="M286.434,448.794c-4.586,0-8.303-3.716-8.303-8.303v-22.141c0-4.586,3.716-8.303,8.303-8.303
		c4.586,0,8.303,3.716,8.303,8.303v22.141C294.737,445.078,291.021,448.794,286.434,448.794z"/>
	<path style="fill:#82C8DB;" d="M286.434,385.59c-4.586,0-8.303-3.716-8.303-8.303v-22.141c0-4.586,3.716-8.303,8.303-8.303
		c4.586,0,8.303,3.716,8.303,8.303v22.141C294.737,381.872,291.021,385.59,286.434,385.59z"/>
</g>
<path style="fill:#D93722;" d="M343.162,259.177H8.303c-4.586,0-8.303-3.716-8.303-8.303c0-4.586,3.716-8.303,8.303-8.303h334.859
	c4.586,0,8.303,3.716,8.303,8.303C351.464,255.461,347.748,259.177,343.162,259.177z"/>
<g>
</g>
<g>
</g>
<g>
</g>
<g>
</g>
<g>
</g>
<g>
</g>
<g>
</g>
<g>
</g>
<g>
</g>
<g>
</g>
<g>
</g>
<g>
</g>
<g>
</g>
<g>
</g>
<g>
</g>
</svg>
