<?xml version="1.0" encoding="iso-8859-1"?>
<!-- Generator: Adobe Illustrator 19.0.0, SVG Export Plug-In . SVG Version: 6.00 Build 0)  -->
<svg version="1.1" id="Layer_1" xmlns="http://www.w3.org/2000/svg" xmlns:xlink="http://www.w3.org/1999/xlink" x="0px" y="0px"
	 viewBox="0 0 512 512" style="enable-background:new 0 0 512 512;" xml:space="preserve">
<polygon style="fill:#82C8DB;" points="231.092,374.492 231.092,512 256,506.849 267.07,374.492 "/>
<polygon style="fill:#62B3CD;" points="280.908,374.492 256,374.492 256,506.849 280.908,501.699 "/>
<polygon style="fill:#82C8DB;" points="269.838,8.303 258.768,86.582 291.978,86.582 291.978,8.303 "/>
<rect x="220.022" y="8.303" style="fill:#A3DDE9;" width="49.816" height="78.278"/>
<path style="fill:#62B3CD;" d="M375.005,309.97h-17.384l-10.293,16.604l10.293,16.604h17.384c9.171,0,16.605-7.434,16.605-16.604
	C391.611,317.403,384.176,309.97,375.005,309.97z"/>
<path style="fill:#A3DDE9;" d="M136.993,110.703c-9.171,0-16.604,7.434-16.604,16.604s7.434,16.604,16.604,16.604H153.6
	l11.069-16.604L153.6,110.703H136.993z"/>
<rect x="220.022" y="426.205" style="fill:#06384A;" width="71.957" height="49.816"/>
<path style="fill:#C4F5FF;" d="M214.486,60.886c-9.133,0-16.605,7.472-16.605,16.605v33.211H153.6v33.209h44.281v232.478
	c0,9.133,7.472,16.605,16.605,16.605H256V60.886H214.486z"/>
<path style="fill:#82C8DB;" d="M357.622,309.97h-43.503V77.492c0-9.133-7.472-16.605-16.605-16.605H256v332.108h41.514
	c9.133,0,16.605-7.472,16.605-16.605v-33.211h43.503V309.97z"/>
<g>
	<path style="fill:#62B3CD;" d="M294.746,16.605h-77.492c-4.586,0-8.303-3.717-8.303-8.303S212.668,0,217.254,0h77.492
		c4.586,0,8.303,3.717,8.303,8.303S299.332,16.605,294.746,16.605z"/>
	<rect x="231.092" y="60.886" style="fill:#62B3CD;" width="49.816" height="332.108"/>
</g>
<g>
</g>
<g>
</g>
<g>
</g>
<g>
</g>
<g>
</g>
<g>
</g>
<g>
</g>
<g>
</g>
<g>
</g>
<g>
</g>
<g>
</g>
<g>
</g>
<g>
</g>
<g>
</g>
<g>
</g>
</svg>
