<?xml version="1.0" encoding="iso-8859-1"?>
<!-- Generator: Adobe Illustrator 19.0.0, SVG Export Plug-In . SVG Version: 6.00 Build 0)  -->
<svg version="1.1" id="Layer_1" xmlns="http://www.w3.org/2000/svg" xmlns:xlink="http://www.w3.org/1999/xlink" x="0px" y="0px"
	 viewBox="0 0 512 512" style="enable-background:new 0 0 512 512;" xml:space="preserve">
<path style="fill:#6DDEB4;" d="M245.381,196.924l-33.758-22.506L222.876,512h33.758c18.567,0,33.758-15.191,33.758-33.758V241.935
	C290.392,217.178,270.137,196.924,245.381,196.924z"/>
<path style="fill:#9EF3D3;" d="M211.623,196.924l-33.758-22.506l-33.758,22.506c-24.756,0-45.011,20.255-45.011,45.011v236.308
	c0,18.567,15.191,33.758,33.758,33.758h45.011l16.879-11.253L211.623,512h11.253c18.567,0,33.758-15.191,33.758-33.758V241.935
	C256.634,217.178,236.379,196.924,211.623,196.924z"/>
<path style="fill:#6DDEB4;" d="M242.002,0.913c-16.551-2.919-32.982,1.236-45.086,11.395
	c-12.107,10.158-19.051,25.621-19.051,42.423v108.435h33.758V54.73c0-6.897,2.483-12.779,6.991-16.563
	c4.509-3.782,10.729-5.204,17.526-4.009l173.835,22.082l2.93-16.623L242.002,0.913z"/>
<rect x="177.861" y="185.671" style="fill:#FFFFFF;" width="33.758" height="326.33"/>
<polygon style="fill:#084B63;" points="211.623,140.66 200.37,168.792 211.623,196.924 245.381,196.924 245.381,140.66 "/>
<rect x="144.103" y="140.66" style="fill:#146A8A;" width="67.516" height="56.264"/>
<path style="fill:#06384A;" d="M248.194,160.352h-25.319l-11.253,8.44l11.253,8.44h25.319c4.661,0,8.44-3.779,8.44-8.44
	C256.634,164.131,252.855,160.352,248.194,160.352z"/>
<path style="fill:#084B63;" d="M141.293,160.352c-4.661,0-8.44,3.779-8.44,8.44c0,4.661,3.779,8.44,8.44,8.44h81.582v-16.879
	H141.293z"/>
<g>
</g>
<g>
</g>
<g>
</g>
<g>
</g>
<g>
</g>
<g>
</g>
<g>
</g>
<g>
</g>
<g>
</g>
<g>
</g>
<g>
</g>
<g>
</g>
<g>
</g>
<g>
</g>
<g>
</g>
</svg>
