<?xml version="1.0" encoding="iso-8859-1"?>
<!-- Generator: Adobe Illustrator 19.0.0, SVG Export Plug-In . SVG Version: 6.00 Build 0)  -->
<svg version="1.1" id="Layer_1" xmlns="http://www.w3.org/2000/svg" xmlns:xlink="http://www.w3.org/1999/xlink" x="0px" y="0px"
	 viewBox="0 0 512 512" style="enable-background:new 0 0 512 512;" xml:space="preserve">
<polygon style="fill:#4FC297;" points="407.912,0 407.912,45.011 340.396,45.011 374.154,0 "/>
<g>
	<rect x="306.637" style="fill:#6DDEB4;" width="67.516" height="45.011"/>
	<path style="fill:#6DDEB4;" d="M227.868,45.011l-61.89,461.835c4.816,3.263,10.634,5.154,16.879,5.154
		c14.1,0,25.938-9.644,29.291-22.697l49.478-192.85V45.011H227.868z"/>
</g>
<path style="fill:#9EF3D3;" d="M227.868,45.011l-45.07,427.107l-4.409,17.185c-1.868,7.269-6.358,13.47-12.412,17.543
	c-6.054-4.073-10.544-10.274-12.412-17.543l-49.478-192.85V45.011H227.868z"/>
<polygon style="fill:#FFFFFF;" points="227.868,45.011 137.846,45.011 137.846,191.297 182.857,236.308 227.868,191.297 "/>
<polygon style="fill:#C7FFEA;" points="137.846,191.297 137.846,296.454 182.857,472.132 227.868,296.454 227.868,191.297 "/>
<path style="fill:#9EF3D3;" d="M419.165,53.451H92.835c-4.662,0-8.44-3.778-8.44-8.44s3.778-8.44,8.44-8.44h326.33
	c4.662,0,8.44,3.778,8.44,8.44S423.827,53.451,419.165,53.451z"/>
<g>
</g>
<g>
</g>
<g>
</g>
<g>
</g>
<g>
</g>
<g>
</g>
<g>
</g>
<g>
</g>
<g>
</g>
<g>
</g>
<g>
</g>
<g>
</g>
<g>
</g>
<g>
</g>
<g>
</g>
</svg>
