<?xml version="1.0" encoding="iso-8859-1"?>
<!-- Generator: Adobe Illustrator 19.0.0, SVG Export Plug-In . SVG Version: 6.00 Build 0)  -->
<svg version="1.1" id="Layer_1" xmlns="http://www.w3.org/2000/svg" xmlns:xlink="http://www.w3.org/1999/xlink" x="0px" y="0px"
	 viewBox="0 0 511.999 511.999" style="enable-background:new 0 0 511.999 511.999;" xml:space="preserve">
<polygon style="fill:#F0AEB0;" points="35.004,452.296 0,494.703 15.462,510.041 58.197,475.304 70.127,440.273 "/>
<polygon style="fill:#E99398;" points="169.834,318.379 35.004,452.296 58.197,475.304 193.027,341.385 "/>
<polygon style="fill:#F0AEB0;" points="495.121,70.733 448.577,117.119 417.22,85.824 479.371,55.046 "/>
<polygon style="fill:#F7CAC9;" points="479.371,55.046 432.906,101.511 396.387,65.149 442.93,18.762 "/>
<path style="fill:#E99398;" d="M432.465,16.16c-3.243-3.243-3.25-8.501-0.012-11.752c3.241-3.256,8.509-3.267,11.766-0.024
	l65.334,65.059c3.256,3.256,3.262,8.513,0.024,11.766c-3.241,3.256-8.509,3.267-11.766,0.024
	C497.812,81.231,432.478,16.172,432.465,16.16z"/>
<polygon style="fill:#F0AEB0;" points="266.79,299.127 192.929,372.534 177.179,356.909 177.242,356.847 235.353,267.816 "/>
<polygon style="fill:#F7CAC9;" points="251.04,283.502 177.242,356.847 177.179,356.909 138.675,318.719 212.544,245.305 "/>
<path style="fill:#941108;" d="M403.635,40.348c0.008-0.008-31.202-30.966-31.202-30.966L173.453,237.775l15.6,15.475l46.237,45.877
	l0.094-0.094l122.287-90.914l91.361-122.734C449.032,85.385,403.643,40.34,403.635,40.348z"/>
<polygon style="fill:#370408;" points="504.706,140.618 481.174,163.96 449.346,132.131 258.916,322.563 235.291,299.127 
	235.384,299.033 449.032,85.385 "/>
<path style="fill:#EA5A20;" d="M326.704,161.42c-3.259-3.286-3.239-8.553,0.022-11.789l60.493-60.02
	c3.253-3.228,8.503-3.216,11.742,0.022c3.259,3.286,3.239,8.553-0.022,11.789l-60.493,60.02
	C335.192,164.671,329.942,164.658,326.704,161.42z"/>
<g>
</g>
<g>
</g>
<g>
</g>
<g>
</g>
<g>
</g>
<g>
</g>
<g>
</g>
<g>
</g>
<g>
</g>
<g>
</g>
<g>
</g>
<g>
</g>
<g>
</g>
<g>
</g>
<g>
</g>
</svg>
