<?xml version="1.0" encoding="iso-8859-1"?>
<!-- Generator: Adobe Illustrator 19.0.0, SVG Export Plug-In . SVG Version: 6.00 Build 0)  -->
<svg version="1.1" id="Layer_1" xmlns="http://www.w3.org/2000/svg" xmlns:xlink="http://www.w3.org/1999/xlink" x="0px" y="0px"
	 viewBox="0 0 512.001 512.001" style="enable-background:new 0 0 512.001 512.001;" xml:space="preserve">
<path style="fill:#419EBE;" d="M72.301,451.255c9.906,15.237,8.189,35.889-5.169,49.246c-15.337,15.337-40.288,15.329-55.625-0.008
	s-15.345-40.288-0.008-55.625c13.357-13.357,34.01-15.075,49.246-5.169l211.63-211.63l11.555,11.555L72.301,451.255z
	 M55.577,488.947c8.967-8.967,8.967-23.556,0-32.523s-23.556-8.967-32.523,0c-8.967,8.967-8.959,23.548,0.008,32.515
	C32.029,497.906,46.61,497.914,55.577,488.947z"/>
<rect x="239.109" y="131.41" transform="matrix(-0.7071 0.7071 -0.7071 -0.7071 734.4465 -25.0565)" style="fill:#146A8A;" width="266.607" height="16.341"/>
<path style="fill:#F7CAC9;" d="M310.043,277.291c3.197,3.197,8.366,3.189,11.555,0c3.189-3.189,3.197-8.358,0-11.555l-31.375-31.375
	l-13.48-1.926l1.926,13.48L310.043,277.291z"/>
<path style="fill:#FBE4E4;" d="M290.222,234.361l-11.555,11.555l-42.93-42.93c-3.196-3.196-3.189-8.366,0-11.555
	c3.189-3.189,8.358-3.196,11.555,0L290.222,234.361z"/>
<path style="fill:#F7CAC9;" d="M404.249,182.058c3.197,3.197,8.366,3.189,11.555,0c3.189-3.189,3.197-8.358,0-11.555l-31.375-31.375
	l-13.48-1.926l1.926,13.48L404.249,182.058z"/>
<path style="fill:#FBE4E4;" d="M384.428,139.128l-11.555,11.555l-42.93-42.93c-3.196-3.196-3.189-8.366,0-11.555
	c3.189-3.19,8.358-3.196,11.555,0L384.428,139.128z"/>
<path style="fill:#F7CAC9;" d="M427.358,158.949c3.197,3.197,8.365,3.189,11.555,0c3.19-3.189,3.197-8.358,0-11.555l-31.375-31.375
	l-13.48-1.926l1.926,13.48L427.358,158.949z"/>
<path style="fill:#FBE4E4;" d="M407.538,116.018l-11.555,11.555l-42.93-42.93c-3.196-3.196-3.189-8.366,0-11.555
	c3.189-3.19,8.358-3.196,11.555,0L407.538,116.018z"/>
<path style="fill:#F7CAC9;" d="M450.922,135.384c3.197,3.197,8.365,3.189,11.555,0c3.189-3.189,3.197-8.358,0-11.555l-31.375-31.375
	l-13.48-1.926l1.926,13.48L450.922,135.384z"/>
<path style="fill:#FBE4E4;" d="M431.102,92.454l-11.555,11.555l-42.929-42.93c-3.196-3.196-3.189-8.366,0-11.555
	c3.189-3.19,8.358-3.196,11.555,0L431.102,92.454z"/>
<path style="fill:#F7CAC9;" d="M474.487,111.82c3.197,3.197,8.365,3.189,11.555,0c3.19-3.189,3.197-8.358,0-11.555L454.667,68.89
	l-13.48-1.926l1.926,13.48L474.487,111.82z"/>
<path style="fill:#FBE4E4;" d="M454.666,68.89l-11.555,11.555l-42.93-42.931c-3.197-3.196-3.189-8.366,0-11.555
	c3.189-3.19,8.358-3.196,11.555,0L454.666,68.89z"/>
<path style="fill:#F7CAC9;" d="M334.919,251.387c3.197,3.197,8.366,3.189,11.555,0c3.19-3.189,3.197-8.358,0-11.555L315.1,208.457
	l-13.48-1.926l1.926,13.48L334.919,251.387z"/>
<path style="fill:#FBE4E4;" d="M315.099,208.457l-11.555,11.555l-42.93-42.93c-3.196-3.196-3.189-8.366,0-11.555
	c3.189-3.189,8.358-3.196,11.555,0L315.099,208.457z"/>
<path style="fill:#F7CAC9;" d="M358.484,227.823c3.197,3.197,8.366,3.189,11.555,0c3.19-3.189,3.197-8.358,0-11.555l-31.375-31.375
	l-13.48-1.926l1.926,13.48L358.484,227.823z"/>
<path style="fill:#FBE4E4;" d="M338.664,184.893l-11.555,11.555l-42.93-42.93c-3.196-3.196-3.189-8.366,0-11.555
	c3.189-3.189,8.358-3.196,11.555,0L338.664,184.893z"/>
<path style="fill:#F7CAC9;" d="M382.048,204.259c3.197,3.197,8.366,3.189,11.555,0c3.189-3.189,3.197-8.358,0-11.555l-31.375-31.375
	l-13.48-1.926l1.926,13.48L382.048,204.259z"/>
<path style="fill:#FBE4E4;" d="M362.227,161.328l-11.555,11.555l-42.93-42.93c-3.197-3.196-3.189-8.366,0-11.555
	c3.189-3.19,8.358-3.196,11.555,0L362.227,161.328z"/>
<path style="fill:#F7CAC9;" d="M498.051,88.256c3.197,3.197,8.365,3.189,11.555,0c3.189-3.189,3.197-8.358,0-11.555l-31.375-31.375
	l-13.48-1.926l1.926,13.48L498.051,88.256z"/>
<path style="fill:#FBE4E4;" d="M478.23,45.326l-11.555,11.555l-42.93-42.93c-3.197-3.196-3.189-8.366,0-11.555
	c3.189-3.19,8.358-3.196,11.555,0L478.23,45.326z"/>
<g>
</g>
<g>
</g>
<g>
</g>
<g>
</g>
<g>
</g>
<g>
</g>
<g>
</g>
<g>
</g>
<g>
</g>
<g>
</g>
<g>
</g>
<g>
</g>
<g>
</g>
<g>
</g>
<g>
</g>
</svg>
