<?xml version="1.0" encoding="iso-8859-1"?>
<!-- Generator: Adobe Illustrator 19.0.0, SVG Export Plug-In . SVG Version: 6.00 Build 0)  -->
<svg version="1.1" id="Layer_1" xmlns="http://www.w3.org/2000/svg" xmlns:xlink="http://www.w3.org/1999/xlink" x="0px" y="0px"
	 viewBox="0 0 512 512" style="enable-background:new 0 0 512 512;" xml:space="preserve">
<polygon style="fill:#82C8DB;" points="469.334,31.03 128,372.364 155.151,368.486 205.575,356.849 500.364,62.061 "/>
<polygon style="fill:#A3DDE9;" points="484.849,46.545 453.818,15.515 438.303,0 413.09,25.212 415.03,38.788 401.454,36.849 
	366.545,71.757 368.485,85.334 354.909,83.394 319.999,118.303 321.939,131.879 308.363,129.939 273.454,164.848 275.394,178.425 
	261.817,176.485 226.909,211.395 228.848,224.97 215.272,223.03 180.363,257.94 182.303,271.515 168.727,269.575 143.515,294.789 
	131.878,345.212 128,372.364 152.489,350.004 190.06,341.334 "/>
<path style="fill:#146A8A;" d="M147.393,465.455l-96.969-96.969c-3.213-3.213-3.213-8.423,0-11.637s8.422-3.213,11.637,0
	l96.969,96.969c3.213,3.213,3.213,8.423,0,11.637C155.817,468.668,150.608,468.668,147.393,465.455z"/>
<polygon style="fill:#82C8DB;" points="131.878,345.213 11.636,465.455 11.636,512 155.151,368.486 "/>
<rect x="53.096" y="381.451" transform="matrix(-0.7071 -0.7071 0.7071 -0.7071 -119.6888 757.209)" style="fill:#06384A;" width="87.766" height="43.883"/>
<g>
	<path style="fill:#2089B0;" d="M257.939,242.425l-31.03-31.03l-11.637,11.637l31.03,31.03c3.213,3.213,8.423,3.213,11.637,0
		C261.152,250.848,261.152,245.638,257.939,242.425z"/>
	<path style="fill:#2089B0;" d="M304.484,195.878l-31.03-31.03l-11.637,11.637l31.03,31.03c3.213,3.213,8.423,3.213,11.637,0
		C307.698,204.302,307.699,199.093,304.484,195.878z"/>
	<path style="fill:#2089B0;" d="M351.03,149.333L320,118.303l-11.637,11.637l31.03,31.03c3.213,3.213,8.423,3.213,11.637,0
		C354.244,157.757,354.244,152.547,351.03,149.333z"/>
	<path style="fill:#2089B0;" d="M397.575,102.788l-31.03-31.03l-11.637,11.637l31.03,31.03c3.213,3.213,8.423,3.213,11.637,0
		S400.789,106.002,397.575,102.788z"/>
	<path style="fill:#2089B0;" d="M211.394,288.97l-31.03-31.03l-11.637,11.637l31.03,31.03c3.213,3.213,8.423,3.213,11.637,0
		C214.606,297.393,214.607,292.184,211.394,288.97z"/>
	<path style="fill:#2089B0;" d="M444.121,67.879c3.213-3.213,3.213-8.422,0-11.637l-31.03-31.03l-11.637,11.637l31.03,31.03
		C435.698,71.092,440.908,71.092,444.121,67.879z"/>
</g>
<path style="fill:#06384A;" d="M116.363,480.97c-3.213-3.213-3.213-8.423,0-11.637l46.545-46.545c3.213-3.213,8.422-3.213,11.637,0
	c3.213,3.213,3.213,8.423,0,11.637L128,480.97C124.787,484.183,119.577,484.183,116.363,480.97z"/>
<g>
</g>
<g>
</g>
<g>
</g>
<g>
</g>
<g>
</g>
<g>
</g>
<g>
</g>
<g>
</g>
<g>
</g>
<g>
</g>
<g>
</g>
<g>
</g>
<g>
</g>
<g>
</g>
<g>
</g>
</svg>
