<?xml version="1.0" encoding="iso-8859-1"?>
<!-- Generator: Adobe Illustrator 19.0.0, SVG Export Plug-In . SVG Version: 6.00 Build 0)  -->
<svg version="1.1" id="Layer_1" xmlns="http://www.w3.org/2000/svg" xmlns:xlink="http://www.w3.org/1999/xlink" x="0px" y="0px"
	 viewBox="0 0 512 512" style="enable-background:new 0 0 512 512;" xml:space="preserve">
<path style="fill:#F0AEB0;" d="M194.11,451.868c-4.662,0-8.44,3.779-8.44,8.44s3.778,8.44,8.44,8.44h92.835v-16.879H194.11z"/>
<path style="fill:#E99398;" d="M379.78,451.868h-92.835v16.879h92.835c4.662,0,8.44-3.779,8.44-8.44S384.442,451.868,379.78,451.868
	z"/>
<g>
	<polygon style="fill:#F0AEB0;" points="433.355,70.003 234.676,257.001 358.096,257.001 484.588,122.61 	"/>
	<path style="fill:#F0AEB0;" d="M478.242,243.692L286.945,468.747C411.24,468.747,512,367.986,512,243.692L478.242,243.692
		L478.242,243.692z"/>
</g>
<g>
	<path style="fill:#F7CAC9;" d="M0,243.692c0,47.936,35.682,87.537,81.935,93.691v-0.721
		c35.387,77.906,113.87,132.085,205.01,132.085c105.65,0,191.297-100.76,191.297-225.055L0,243.692L0,243.692z"/>
	<path style="fill:#F7CAC9;" d="M506.001,107.942l-58.69-58.69c-7.997-7.998-20.965-7.998-28.963,0
		c-7.997,7.997-7.997,20.965,0,28.963l58.69,58.69c7.997,7.998,20.965,7.998,28.963,0S514,115.94,506.001,107.942z"/>
</g>
<g>
</g>
<g>
</g>
<g>
</g>
<g>
</g>
<g>
</g>
<g>
</g>
<g>
</g>
<g>
</g>
<g>
</g>
<g>
</g>
<g>
</g>
<g>
</g>
<g>
</g>
<g>
</g>
<g>
</g>
</svg>
