<?xml version="1.0" encoding="iso-8859-1"?>
<!-- Generator: Adobe Illustrator 19.0.0, SVG Export Plug-In . SVG Version: 6.00 Build 0)  -->
<svg version="1.1" id="Layer_1" xmlns="http://www.w3.org/2000/svg" xmlns:xlink="http://www.w3.org/1999/xlink" x="0px" y="0px"
	 viewBox="0 0 512 512" style="enable-background:new 0 0 512 512;" xml:space="preserve">
<path style="fill:#82C8DB;" d="M423.745,470.306L316.886,171.601V8.303h-33.211l-22.141,163.299L361.168,512h33.211
	C418.733,512,431.948,493.238,423.745,470.306z"/>
<path style="fill:#A3DDE9;" d="M390.534,470.306l-0.925-2.588l-53.864-81.576l0.401-67.873l-52.47-146.668V8.303h-88.562v163.299
	L88.256,470.306C80.052,493.237,93.267,512,117.622,512h243.546C385.522,512,398.737,493.238,390.534,470.306z"/>
<polygon style="fill:#419EBE;" points="308.102,318.27 175.856,318.27 122.392,467.719 340.181,467.719 340.181,412.368 "/>
<path style="fill:#62B3CD;" d="M330.724,16.605H181.276c-4.585,0-8.303-3.717-8.303-8.303S176.69,0,181.276,0h149.449
	c4.585,0,8.303,3.717,8.303,8.303S335.31,16.605,330.724,16.605z"/>
<polygon style="fill:#146A8A;" points="336.144,318.27 308.102,318.27 340.181,467.719 389.608,467.719 "/>
<g>
</g>
<g>
</g>
<g>
</g>
<g>
</g>
<g>
</g>
<g>
</g>
<g>
</g>
<g>
</g>
<g>
</g>
<g>
</g>
<g>
</g>
<g>
</g>
<g>
</g>
<g>
</g>
<g>
</g>
</svg>
